<svg width="400" height="228" viewBox="0 0 400 228" fill="none" xmlns="http://www.w3.org/2000/svg">
<mask id="mask0_226_11940" style="mask-type:luminance" maskUnits="userSpaceOnUse" x="0" y="0" width="400" height="228">
<path d="M399.1 0H0V227.32H399.1V0Z" fill="white"/>
</mask>
<g mask="url(#mask0_226_11940)">
<path d="M152.79 87.7204L156.54 72.7104H123.57L124.45 88.1104L152.79 87.7204Z" fill="#EAADAC"/>
<path d="M157.34 74.02V68.03L150.741 55.47C149.881 53.83 147.94 53.09 146.21 53.73C144.32 54.43 143.341 56.52 144.021 58.42L147.46 68.03V73.68L157.331 74.02H157.34Z" fill="#EAADAC"/>
<path d="M288.421 87.7204L284.671 72.7104H317.651L316.761 88.1104L288.421 87.7204Z" fill="#EAADAC"/>
<path d="M283.87 74.02V68.03L290.47 55.47C291.33 53.83 293.27 53.09 295 53.73C296.89 54.43 297.87 56.52 297.19 58.42L293.75 68.03V73.68L283.88 74.02H283.87Z" fill="#EAADAC"/>
<path d="M370.41 76.0204H76.8903C74.0703 76.0204 71.7803 73.8804 71.7803 71.2304C71.7803 68.5904 74.0703 66.4404 76.8903 66.4404H370.41C373.23 66.4404 375.52 68.5804 375.52 71.2304C375.52 73.8704 373.23 76.0204 370.41 76.0204Z" fill="#383995"/>
<path d="M103.691 43.1904H95.7705V99.2104H103.691V43.1904Z" fill="#0E002B"/>
<path d="M95.7699 99.2704C102.889 99.2704 108.66 86.7165 108.66 71.2304C108.66 55.7444 102.889 43.1904 95.7699 43.1904C88.6509 43.1904 82.8799 55.7444 82.8799 71.2304C82.8799 86.7165 88.6509 99.2704 95.7699 99.2704Z" fill="#0E002B"/>
<path d="M102.81 99.2704C109.929 99.2704 115.7 86.7165 115.7 71.2304C115.7 55.7444 109.929 43.1904 102.81 43.1904C95.691 43.1904 89.9199 55.7444 89.9199 71.2304C89.9199 86.7165 95.691 99.2704 102.81 99.2704Z" fill="#5B5ABB"/>
<path d="M100.341 99.2903C99.6406 99.2903 98.9507 99.1903 98.2807 98.9803C97.6107 98.7703 96.9807 98.4403 96.4007 98.0603C95.2407 97.2703 94.2407 96.2603 93.4107 95.1303C91.7407 92.8803 90.5806 90.3003 89.7206 87.6603C88.8606 85.0103 88.3507 82.2703 87.9507 79.5203C87.7707 78.1403 87.6207 76.7603 87.5207 75.3803C87.4307 74.0003 87.3606 72.6103 87.3406 71.2203C87.2906 65.6703 87.9207 60.0703 89.6807 54.7703C90.5607 52.1303 91.7407 49.5603 93.4207 47.3203C94.2507 46.2003 95.2507 45.1903 96.4007 44.3903C96.9907 44.0103 97.6107 43.6803 98.2807 43.4703C98.9507 43.2603 99.6406 43.1503 100.341 43.1603V43.2003C99.6506 43.2303 98.9707 43.3603 98.3207 43.5903C97.6707 43.8303 97.0807 44.1803 96.5107 44.5603C95.4007 45.3603 94.4507 46.3803 93.6507 47.5003C92.8507 48.6203 92.1806 49.8203 91.6006 51.0703C91.0206 52.3203 90.5107 53.6003 90.0807 54.9103C88.3807 60.1603 87.6407 65.7003 87.5607 71.2303C87.5307 74.0003 87.6806 76.7703 88.0906 79.5103C88.4906 82.2503 89.1407 84.9503 90.0407 87.5603C90.4807 88.8703 91.0007 90.1503 91.5807 91.3903C92.1707 92.6303 92.8507 93.8403 93.6507 94.9503C94.4507 96.0603 95.3907 97.0803 96.5007 97.8903C97.0707 98.2703 97.6607 98.6203 98.3007 98.8603C98.9507 99.0903 99.6307 99.2303 100.321 99.2603V99.3003L100.341 99.2903Z" fill="#383995"/>
<path d="M97.7303 99.2903C97.0303 99.2903 96.3403 99.1903 95.6703 98.9803C95.0003 98.7703 94.3703 98.4403 93.7903 98.0603C92.6303 97.2703 91.6303 96.2603 90.8003 95.1303C89.1303 92.8803 87.9703 90.3003 87.1103 87.6603C86.2503 85.0103 85.7403 82.2703 85.3403 79.5203C85.1603 78.1403 85.0103 76.7603 84.9103 75.3803C84.8203 74.0003 84.7503 72.6103 84.7303 71.2203C84.6803 65.6703 85.3104 60.0703 87.0704 54.7703C87.9504 52.1303 89.1304 49.5603 90.8104 47.3203C91.6404 46.2003 92.6403 45.1903 93.7903 44.3903C94.3803 44.0103 95.0003 43.6803 95.6703 43.4703C96.3403 43.2603 97.0303 43.1503 97.7303 43.1603V43.2003C97.0403 43.2303 96.3603 43.3603 95.7103 43.5903C95.0603 43.8303 94.4703 44.1803 93.9003 44.5603C92.7903 45.3603 91.8403 46.3803 91.0403 47.5003C90.2403 48.6203 89.5703 49.8203 88.9903 51.0703C88.4103 52.3203 87.9003 53.6003 87.4703 54.9103C85.7703 60.1603 85.0304 65.7003 84.9504 71.2303C84.9204 74.0003 85.0703 76.7703 85.4803 79.5103C85.8803 82.2503 86.5303 84.9503 87.4303 87.5603C87.8703 88.8703 88.3903 90.1503 88.9703 91.3903C89.5603 92.6303 90.2403 93.8403 91.0503 94.9503C91.8503 96.0603 92.7903 97.0803 93.9003 97.8903C94.4703 98.2703 95.0603 98.6203 95.7103 98.8603C96.3603 99.0903 97.0403 99.2303 97.7303 99.2603V99.3003V99.2903Z" fill="#383995"/>
<path d="M115.53 43.1904H107.61V99.2104H115.53V43.1904Z" fill="#0E002B"/>
<path d="M107.61 99.2704C114.729 99.2704 120.5 86.7165 120.5 71.2304C120.5 55.7444 114.729 43.1904 107.61 43.1904C100.491 43.1904 94.7197 55.7444 94.7197 71.2304C94.7197 86.7165 100.491 99.2704 107.61 99.2704Z" fill="#0E002B"/>
<path d="M332.86 99.2704C339.979 99.2704 345.75 86.7165 345.75 71.2304C345.75 55.7444 339.979 43.1904 332.86 43.1904C325.741 43.1904 319.97 55.7444 319.97 71.2304C319.97 86.7165 325.741 99.2704 332.86 99.2704Z" fill="#0E002B"/>
<path d="M339.91 43.1904H333.75V99.2104H339.91V43.1904Z" fill="#0E002B"/>
<path d="M339.901 99.2704C347.02 99.2704 352.791 86.7165 352.791 71.2304C352.791 55.7444 347.02 43.1904 339.901 43.1904C332.782 43.1904 327.011 55.7444 327.011 71.2304C327.011 86.7165 332.782 99.2704 339.901 99.2704Z" fill="#5B5ABB"/>
<path d="M337.43 99.2903C336.73 99.2903 336.041 99.1903 335.371 98.9803C334.701 98.7703 334.071 98.4403 333.491 98.0603C332.331 97.2703 331.331 96.2603 330.501 95.1303C328.831 92.8803 327.671 90.3003 326.811 87.6603C325.951 85.0103 325.441 82.2703 325.041 79.5203C324.861 78.1403 324.711 76.7603 324.611 75.3803C324.521 74.0003 324.45 72.6103 324.43 71.2203C324.38 65.6703 325.011 60.0703 326.771 54.7703C327.651 52.1303 328.831 49.5603 330.511 47.3203C331.341 46.2003 332.341 45.1903 333.491 44.3903C334.081 44.0103 334.701 43.6803 335.371 43.4703C336.041 43.2603 336.73 43.1503 337.43 43.1603V43.2003C336.74 43.2303 336.06 43.3603 335.41 43.5903C334.76 43.8303 334.171 44.1803 333.601 44.5603C332.491 45.3603 331.541 46.3803 330.741 47.5003C329.941 48.6203 329.27 49.8203 328.69 51.0703C328.11 52.3203 327.6 53.6003 327.17 54.9103C325.47 60.1603 324.73 65.7003 324.65 71.2303C324.62 74.0003 324.77 76.7703 325.18 79.5103C325.58 82.2503 326.231 84.9503 327.131 87.5603C327.571 88.8703 328.09 90.1503 328.67 91.3903C329.26 92.6303 329.941 93.8403 330.741 94.9503C331.541 96.0603 332.481 97.0803 333.591 97.8903C334.161 98.2703 334.75 98.6203 335.4 98.8603C336.05 99.0903 336.73 99.2303 337.42 99.2603V99.3003L337.43 99.2903Z" fill="#383995"/>
<path d="M334.82 99.2903C334.12 99.2903 333.43 99.1903 332.76 98.9803C332.09 98.7703 331.46 98.4403 330.88 98.0603C329.72 97.2703 328.72 96.2603 327.89 95.1303C326.22 92.8803 325.06 90.3003 324.2 87.6603C323.34 85.0103 322.83 82.2703 322.43 79.5203C322.25 78.1403 322.1 76.7603 322 75.3803C321.91 74.0003 321.84 72.6103 321.82 71.2203C321.77 65.6703 322.4 60.0703 324.16 54.7703C325.04 52.1303 326.22 49.5603 327.9 47.3203C328.73 46.2003 329.73 45.1903 330.88 44.3903C331.47 44.0103 332.09 43.6803 332.76 43.4703C333.43 43.2603 334.12 43.1503 334.82 43.1603V43.2003C334.13 43.2303 333.45 43.3603 332.8 43.5903C332.15 43.8303 331.56 44.1803 330.99 44.5603C329.88 45.3603 328.93 46.3803 328.13 47.5003C327.33 48.6203 326.66 49.8203 326.08 51.0703C325.5 52.3203 324.99 53.6003 324.56 54.9103C322.86 60.1603 322.12 65.7003 322.04 71.2303C322.01 74.0003 322.16 76.7703 322.57 79.5103C322.97 82.2503 323.62 84.9503 324.52 87.5603C324.96 88.8703 325.48 90.1503 326.06 91.3903C326.65 92.6303 327.33 93.8403 328.14 94.9503C328.94 96.0603 329.88 97.0803 330.99 97.8903C331.56 98.2703 332.15 98.6203 332.79 98.8603C333.44 99.0903 334.12 99.2303 334.81 99.2603V99.3003L334.82 99.2903Z" fill="#383995"/>
<path d="M114.651 99.2704C121.77 99.2704 127.541 86.7165 127.541 71.2304C127.541 55.7444 121.77 43.1904 114.651 43.1904C107.532 43.1904 101.761 55.7444 101.761 71.2304C101.761 86.7165 107.532 99.2704 114.651 99.2704Z" fill="#5B5ABB"/>
<path d="M122.85 71.2304C122.85 73.8704 120.75 76.0204 118.16 76.0204C115.57 76.0204 113.47 73.8804 113.47 71.2304C113.47 68.5804 115.57 66.4404 118.16 66.4404C120.75 66.4404 122.85 68.5804 122.85 71.2304Z" fill="#383995"/>
<path d="M142.4 66.4404H118.16V76.0204H142.4V66.4404Z" fill="#383995"/>
<path d="M112.18 99.2903C111.48 99.2903 110.79 99.1903 110.12 98.9803C109.45 98.7703 108.82 98.4403 108.24 98.0603C107.08 97.2703 106.08 96.2603 105.25 95.1303C103.58 92.8803 102.42 90.3003 101.56 87.6603C100.7 85.0103 100.19 82.2703 99.7905 79.5203C99.6105 78.1403 99.4604 76.7603 99.3604 75.3803C99.2704 74.0003 99.2005 72.6103 99.1805 71.2203C99.1305 65.6703 99.7604 60.0703 101.52 54.7703C102.4 52.1303 103.58 49.5603 105.26 47.3203C106.09 46.2003 107.09 45.1903 108.24 44.3903C108.83 44.0103 109.45 43.6803 110.12 43.4703C110.79 43.2603 111.48 43.1503 112.18 43.1603V43.2003C111.49 43.2303 110.81 43.3603 110.16 43.5903C109.51 43.8303 108.92 44.1803 108.35 44.5603C107.24 45.3603 106.29 46.3803 105.49 47.5003C104.69 48.6203 104.02 49.8203 103.44 51.0703C102.86 52.3203 102.35 53.6003 101.92 54.9103C100.22 60.1603 99.4804 65.7003 99.4004 71.2303C99.3704 74.0003 99.5205 76.7703 99.9305 79.5103C100.33 82.2503 100.98 84.9503 101.88 87.5603C102.32 88.8703 102.84 90.1503 103.42 91.3903C104.01 92.6303 104.69 93.8403 105.5 94.9503C106.3 96.0603 107.24 97.0803 108.35 97.8903C108.92 98.2703 109.51 98.6203 110.16 98.8603C110.81 99.0903 111.49 99.2303 112.18 99.2603V99.3003V99.2903Z" fill="#383995"/>
<path d="M109.57 99.2903C108.87 99.2903 108.18 99.1903 107.51 98.9803C106.84 98.7703 106.21 98.4403 105.63 98.0603C104.47 97.2703 103.47 96.2603 102.64 95.1303C100.97 92.8803 99.8101 90.3003 98.9501 87.6603C98.0901 85.0103 97.5801 82.2703 97.1801 79.5203C97.0001 78.1403 96.85 76.7603 96.75 75.3803C96.66 74.0003 96.5901 72.6103 96.5701 71.2203C96.5201 65.6703 97.1501 60.0703 98.9101 54.7703C99.7901 52.1303 100.97 49.5603 102.65 47.3203C103.48 46.2003 104.48 45.1903 105.63 44.3903C106.22 44.0103 106.84 43.6803 107.51 43.4703C108.18 43.2603 108.87 43.1503 109.57 43.1603V43.2003C108.88 43.2303 108.2 43.3603 107.55 43.5903C106.9 43.8303 106.31 44.1803 105.74 44.5603C104.63 45.3603 103.68 46.3803 102.88 47.5003C102.08 48.6203 101.41 49.8203 100.83 51.0703C100.25 52.3203 99.7401 53.6003 99.3101 54.9103C97.6101 60.1603 96.8701 65.7003 96.7901 71.2303C96.7601 74.0003 96.9101 76.7703 97.3201 79.5103C97.7201 82.2503 98.3701 84.9503 99.2701 87.5603C99.7101 88.8703 100.23 90.1503 100.81 91.3903C101.4 92.6303 102.08 93.8403 102.88 94.9503C103.68 96.0603 104.62 97.0803 105.73 97.8903C106.3 98.2703 106.89 98.6203 107.53 98.8603C108.18 99.0903 108.86 99.2303 109.55 99.2603V99.3003L109.57 99.2903Z" fill="#383995"/>
<path d="M357.6 71.2304C357.6 86.7204 351.83 99.2704 344.71 99.2704C337.59 99.2704 331.82 86.7104 331.82 71.2304C331.82 55.7504 337.59 43.1904 344.71 43.1904C351.83 43.1904 357.6 55.7504 357.6 71.2304Z" fill="#0E002B"/>
<path d="M351.751 43.1904H345.591V99.2104H351.751V43.1904Z" fill="#0E002B"/>
<path d="M351.74 99.2704C358.859 99.2704 364.631 86.7165 364.631 71.2304C364.631 55.7444 358.859 43.1904 351.74 43.1904C344.622 43.1904 338.851 55.7444 338.851 71.2304C338.851 86.7165 344.622 99.2704 351.74 99.2704Z" fill="#5B5ABB"/>
<path d="M359.94 71.2304C359.94 73.8704 357.84 76.0204 355.25 76.0204C352.66 76.0204 350.561 73.8804 350.561 71.2304C350.561 68.5804 352.66 66.4404 355.25 66.4404C357.84 66.4404 359.94 68.5804 359.94 71.2304Z" fill="#383995"/>
<path d="M365.72 66.4404H355.25V76.0204H365.72V66.4404Z" fill="#383995"/>
<path d="M349.27 99.2903C348.57 99.2903 347.88 99.1903 347.21 98.9803C346.54 98.7703 345.91 98.4403 345.33 98.0603C344.17 97.2703 343.17 96.2603 342.34 95.1303C340.67 92.8803 339.51 90.3003 338.65 87.6603C337.79 85.0103 337.28 82.2703 336.88 79.5203C336.7 78.1403 336.55 76.7603 336.45 75.3803C336.36 74.0003 336.29 72.6103 336.27 71.2203C336.22 65.6703 336.85 60.0703 338.61 54.7703C339.49 52.1303 340.67 49.5603 342.35 47.3203C343.18 46.2003 344.18 45.1903 345.33 44.3903C345.92 44.0103 346.54 43.6803 347.21 43.4703C347.88 43.2603 348.57 43.1503 349.27 43.1603V43.2003C348.58 43.2303 347.9 43.3603 347.25 43.5903C346.6 43.8303 346.01 44.1803 345.44 44.5603C344.33 45.3603 343.38 46.3803 342.58 47.5003C341.78 48.6203 341.11 49.8203 340.53 51.0703C339.95 52.3203 339.44 53.6003 339.01 54.9103C337.31 60.1603 336.57 65.7003 336.49 71.2303C336.46 74.0003 336.61 76.7703 337.02 79.5103C337.42 82.2503 338.07 84.9503 338.97 87.5603C339.41 88.8703 339.93 90.1503 340.51 91.3903C341.1 92.6303 341.78 93.8403 342.58 94.9503C343.38 96.0603 344.32 97.0803 345.43 97.8903C346 98.2703 346.59 98.6203 347.23 98.8603C347.88 99.0903 348.56 99.2303 349.25 99.2603V99.3003L349.27 99.2903Z" fill="#383995"/>
<path d="M346.66 99.2903C345.96 99.2903 345.27 99.1903 344.6 98.9803C343.93 98.7703 343.3 98.4403 342.72 98.0603C341.56 97.2703 340.56 96.2603 339.73 95.1303C338.06 92.8803 336.9 90.3003 336.04 87.6603C335.18 85.0103 334.67 82.2703 334.27 79.5203C334.09 78.1403 333.94 76.7603 333.84 75.3803C333.75 74.0003 333.68 72.6103 333.66 71.2203C333.61 65.6703 334.24 60.0703 336 54.7703C336.88 52.1303 338.06 49.5603 339.74 47.3203C340.57 46.2003 341.57 45.1903 342.72 44.3903C343.31 44.0103 343.93 43.6803 344.6 43.4703C345.27 43.2603 345.96 43.1503 346.66 43.1603V43.2003C345.97 43.2303 345.29 43.3603 344.64 43.5903C343.99 43.8303 343.4 44.1803 342.83 44.5603C341.72 45.3603 340.77 46.3803 339.97 47.5003C339.17 48.6203 338.5 49.8203 337.92 51.0703C337.34 52.3203 336.83 53.6003 336.4 54.9103C334.7 60.1603 333.96 65.7003 333.88 71.2303C333.85 74.0003 334 76.7703 334.41 79.5103C334.81 82.2503 335.46 84.9503 336.36 87.5603C336.8 88.8703 337.32 90.1503 337.9 91.3903C338.49 92.6303 339.17 93.8403 339.97 94.9503C340.77 96.0603 341.71 97.0803 342.82 97.8903C343.39 98.2703 343.98 98.6203 344.63 98.8603C345.28 99.0903 345.96 99.2303 346.65 99.2603V99.3003L346.66 99.2903Z" fill="#383995"/>
<path d="M197.43 61.76C197.43 61.76 198.6 76.16 206.24 79.92C213.87 83.67 232.93 80.41 243.99 86.93C255.05 93.45 285.46 130.38 285.46 130.38L288.42 87.72L316.76 88.11C316.76 88.11 323.28 173.42 294.25 173.42C265.22 173.42 241.82 135.21 241.82 135.21L231.08 160.78L230.63 190.6L168.76 181.52L169.75 160.78L154.74 92.85C154.74 92.85 161.21 82.68 174.12 81.69C187.03 80.7 185.8 69.74 185.8 69.74L197.44 61.75L197.43 61.76Z" fill="#EAADAC"/>
<path d="M241.821 135.21L232.141 120.3L238.751 144.23L241.821 135.21Z" fill="#DE9796"/>
<path d="M169.98 82.3603C169.98 82.3603 157.29 123.47 182.37 123.27C207.45 123.07 215.3 81.8303 215.3 81.8303H225.23C225.23 81.8303 213.781 138.48 241.821 135.22L233.13 160.79H165C165 160.79 155.54 146.57 157.31 118.92C159.08 91.2703 161.25 81.8203 161.25 81.8203L169.99 82.3503L169.98 82.3603Z" fill="#5B5ABB"/>
<path d="M168.92 167.36C168.92 167.36 177.83 171.76 200.64 171.13C223.45 170.5 230.87 163.21 230.87 163.21C230.87 163.21 249.51 176.2 258.99 200.87C268.47 225.55 273.21 264.46 273.21 264.46L352.01 258.45V308.12L265.02 315.53C247.66 317.01 231.25 307.38 224.08 291.5L194.42 225.86L133.99 252.12L136.06 332.8H86.0003L80.4803 252.02C78.6803 225.7 95.0903 201.56 120.22 193.56L164.8 179.36L168.92 167.37V167.36Z" fill="#F0C785"/>
<path d="M296.72 59.5601C299.75 59.5601 302 61.7701 301.37 64.1201L297.77 77.54C297.48 78.62 296.28 79.39 294.9 79.39C293.28 79.39 291.96 78.3501 291.96 77.0601V63.3401C291.96 61.2601 294.09 59.57 296.72 59.57V59.5601Z" fill="#EAADAC"/>
<path d="M303.22 59.5601C306.25 59.5601 308.5 61.7701 307.87 64.1201L304.27 77.54C303.98 78.62 302.78 79.39 301.4 79.39C299.78 79.39 298.46 78.3501 298.46 77.0601V63.3401C298.46 61.2601 300.59 59.57 303.22 59.57V59.5601Z" fill="#EAADAC"/>
<path d="M308.79 59.5601C311.81 59.5601 314.07 61.7701 313.44 64.1201L309.84 77.54C309.55 78.62 308.35 79.39 306.97 79.39C305.35 79.39 304.03 78.3501 304.03 77.0601V63.3401C304.03 61.2601 306.16 59.57 308.79 59.57V59.5601Z" fill="#EAADAC"/>
<path d="M315.061 59.5601C318.091 59.5601 320.341 61.7701 319.711 64.1201L316.111 77.54C315.821 78.62 314.621 79.39 313.241 79.39C311.621 79.39 310.301 78.3501 310.301 77.0601V63.3401C310.301 61.2601 312.431 59.57 315.061 59.57V59.5601Z" fill="#EAADAC"/>
<path d="M291.99 63.3301C292.07 65.3501 292.101 67.3601 292.131 69.3801C292.151 71.4001 292.171 73.4101 292.141 75.4301L292.111 76.9401C292.081 77.4201 292.241 77.8801 292.541 78.2601C293.151 79.0201 294.19 79.3701 295.17 79.3101C295.66 79.2801 296.151 79.1501 296.581 78.9001C297.011 78.6601 297.371 78.3001 297.581 77.8601C297.691 77.6401 297.731 77.4001 297.801 77.1501L297.99 76.4201L298.361 74.9501L298.581 74.9801L298.601 76.1801V76.7801C298.611 76.9901 298.61 77.1801 298.65 77.3501C298.78 78.0901 299.401 78.6601 300.091 78.9401C300.791 79.2201 301.601 79.2601 302.321 79.0501C303.041 78.8501 303.7 78.3601 303.98 77.6901H304.381C304.641 78.3001 305.221 78.7501 305.861 78.9801C306.511 79.2101 307.24 79.2201 307.9 79.0401C308.56 78.8501 309.18 78.4501 309.5 77.8601C309.66 77.5801 309.721 77.2101 309.831 76.8601L310.131 75.8001L310.45 75.8401V76.6101C310.44 76.8701 310.42 77.1301 310.45 77.3601C310.52 77.8401 310.81 78.2701 311.18 78.5901C311.94 79.2301 313.041 79.4701 314.041 79.2701V79.3101C313.051 79.5701 311.901 79.4201 311.051 78.7601C310.631 78.4301 310.29 77.9601 310.18 77.4101C310.12 77.1301 310.141 76.8701 310.131 76.6101V75.8401L310.44 75.8801L310.17 76.9501L310.031 77.4801C309.991 77.6601 309.921 77.8601 309.831 78.0401C309.461 78.7601 308.751 79.2301 308.011 79.4501C307.261 79.6601 306.45 79.6501 305.71 79.3901C304.98 79.1401 304.28 78.6301 303.97 77.8601H304.371C304.011 78.6901 303.23 79.2201 302.42 79.4401C301.6 79.6601 300.72 79.6101 299.94 79.2801C299.18 78.9501 298.471 78.2801 298.341 77.4101C298.301 77.1901 298.311 76.9801 298.321 76.7801V76.1801L298.351 74.9801L298.571 75.0101L298.16 76.4601L297.96 77.1901C297.89 77.4301 297.84 77.6801 297.72 77.9201C297.49 78.3901 297.1 78.7601 296.65 79.0101C296.2 79.2701 295.7 79.4101 295.19 79.4501C294.18 79.5201 293.081 79.2101 292.371 78.4101C292.021 78.0201 291.811 77.4701 291.831 76.9401L291.801 75.4301C291.781 73.4101 291.801 71.4001 291.811 69.3801C291.841 67.3601 291.87 65.3501 291.95 63.3301H291.99Z" fill="#0E002B"/>
<path d="M310.281 75.8402C310.491 73.2802 310.71 70.7102 310.95 68.1502C311.06 66.8702 311.151 65.5902 311.311 64.3102C311.481 63.0402 311.65 61.7602 311.9 60.4902H311.94C311.92 61.7902 311.82 63.0702 311.72 64.3502C311.61 65.6302 311.431 66.9102 311.271 68.1802C310.961 70.7302 310.641 73.2902 310.311 75.8402H310.271H310.281Z" fill="#0E002B"/>
<path d="M304.16 77.7801C304.42 74.8601 304.69 71.9401 304.98 69.0201C305.12 67.5601 305.23 66.1 305.42 64.64C305.62 63.19 305.81 61.73 306.09 60.29H306.13C306.09 61.76 305.96 63.22 305.83 64.69C305.7 66.15 305.49 67.6001 305.31 69.0601C304.95 71.9701 304.58 74.88 304.2 77.79H304.16V77.7801Z" fill="#0E002B"/>
<path d="M298.391 75.4601C298.591 72.9701 298.811 70.4901 299.031 68.0001C299.141 66.7601 299.221 65.5101 299.381 64.2801C299.551 63.0401 299.71 61.8101 299.96 60.5801H300C299.99 61.8401 299.891 63.0801 299.791 64.3201C299.691 65.5601 299.511 66.8001 299.361 68.0401C299.061 70.5201 298.75 72.9901 298.43 75.4601H298.391Z" fill="#0E002B"/>
<path d="M144.49 59.5601C141.47 59.5601 139.21 61.7701 139.84 64.1201L143.44 77.54C143.73 78.62 144.93 79.39 146.31 79.39C147.93 79.39 149.25 78.3501 149.25 77.0601V63.3401C149.25 61.2601 147.12 59.57 144.49 59.57V59.5601Z" fill="#EAADAC"/>
<path d="M137.991 59.5601C134.961 59.5601 132.711 61.7701 133.341 64.1201L136.941 77.54C137.231 78.62 138.431 79.39 139.811 79.39C141.431 79.39 142.751 78.3501 142.751 77.0601V63.3401C142.751 61.2601 140.621 59.57 137.991 59.57V59.5601Z" fill="#EAADAC"/>
<path d="M132.421 59.5601C129.401 59.5601 127.141 61.7701 127.771 64.1201L131.371 77.54C131.661 78.62 132.861 79.39 134.241 79.39C135.861 79.39 137.181 78.3501 137.181 77.0601V63.3401C137.181 61.2601 135.051 59.57 132.421 59.57V59.5601Z" fill="#EAADAC"/>
<path d="M126.161 59.5601C123.131 59.5601 120.881 61.7701 121.511 64.1201L125.111 77.54C125.401 78.62 126.601 79.39 127.981 79.39C129.601 79.39 130.921 78.3501 130.921 77.0601V63.3401C130.921 61.2601 128.791 59.57 126.161 59.57V59.5601Z" fill="#EAADAC"/>
<path d="M149.27 63.3301C149.35 65.3501 149.38 67.3601 149.41 69.3801C149.43 71.4001 149.45 73.4101 149.42 75.4301L149.39 76.9401C149.41 77.4701 149.2 78.0201 148.85 78.4101C148.14 79.2201 147.05 79.5201 146.03 79.4501C145.52 79.4101 145.01 79.2601 144.57 79.0101C144.12 78.7601 143.73 78.3901 143.5 77.9201C143.38 77.6801 143.33 77.4301 143.26 77.1901L143.05 76.4601L142.64 75.0101L142.86 74.9801L142.88 76.1801V76.7801C142.89 76.9701 142.9 77.1901 142.87 77.4101C142.73 78.2901 142.03 78.9501 141.27 79.2801C140.49 79.6101 139.61 79.6701 138.79 79.4401C137.98 79.2201 137.2 78.6901 136.84 77.8601H137.24C136.92 78.6201 136.23 79.1301 135.5 79.3901C134.76 79.6401 133.95 79.6601 133.2 79.4501C132.46 79.2401 131.75 78.7601 131.38 78.0401C131.29 77.8701 131.22 77.6601 131.18 77.4801L131.04 76.9501L130.77 75.8801L131.09 75.8401V76.6101C131.07 76.8601 131.09 77.1301 131.03 77.4101C130.93 77.9601 130.58 78.4301 130.16 78.7601C129.3 79.4201 128.16 79.5701 127.16 79.3101V79.2701C128.17 79.4701 129.27 79.2301 130.03 78.5901C130.4 78.2701 130.69 77.8401 130.76 77.3601C130.8 77.1301 130.78 76.8701 130.78 76.6101V75.8401L131.09 75.8001L131.39 76.8601C131.5 77.2101 131.56 77.5801 131.72 77.8601C132.04 78.4501 132.66 78.8501 133.32 79.0401C133.98 79.2201 134.71 79.2101 135.36 78.9801C136.01 78.7601 136.58 78.3001 136.84 77.6901H137.24C137.51 78.3601 138.18 78.8501 138.9 79.0501C139.62 79.2601 140.43 79.2201 141.13 78.9401C141.82 78.6601 142.44 78.0901 142.57 77.3501C142.61 77.1701 142.61 76.9801 142.61 76.7801V76.1801L142.64 74.9801L142.86 74.9501L143.23 76.4201L143.42 77.1501C143.49 77.4001 143.53 77.6401 143.64 77.8601C143.85 78.3001 144.22 78.6601 144.64 78.9001C145.07 79.1401 145.56 79.2701 146.05 79.3101C147.03 79.3701 148.07 79.0201 148.68 78.2601C148.98 77.8801 149.14 77.4201 149.11 76.9401L149.08 75.4301C149.06 73.4101 149.08 71.4001 149.09 69.3801C149.12 67.3601 149.15 65.3501 149.23 63.3301H149.27Z" fill="#0E002B"/>
<path d="M130.891 75.8402C130.561 73.2902 130.241 70.7402 129.931 68.1802C129.771 66.9002 129.591 65.6302 129.481 64.3502C129.381 63.0702 129.281 61.7902 129.261 60.4902H129.301C129.551 61.7502 129.721 63.0302 129.891 64.3002C130.051 65.5802 130.141 66.8602 130.251 68.1402C130.481 70.7002 130.711 73.2602 130.921 75.8302H130.881L130.891 75.8402Z" fill="#0E002B"/>
<path d="M137.011 77.7801C136.631 74.8701 136.261 71.96 135.901 69.05C135.721 67.6 135.511 66.1401 135.381 64.6801C135.261 63.2201 135.131 61.76 135.081 60.29H135.121C135.401 61.73 135.591 63.18 135.791 64.64C135.981 66.09 136.091 67.5601 136.231 69.0201C136.511 71.9401 136.791 74.8601 137.051 77.7801H137.011Z" fill="#0E002B"/>
<path d="M142.78 75.4703C142.46 73.0003 142.15 70.5203 141.85 68.0503C141.7 66.8103 141.52 65.5803 141.42 64.3303C141.33 63.0903 141.23 61.8403 141.21 60.5903H141.25C141.5 61.8103 141.66 63.0503 141.83 64.2903C141.99 65.5303 142.07 66.7703 142.18 68.0103C142.41 70.4903 142.62 72.9803 142.82 75.4703H142.78Z" fill="#0E002B"/>
<path d="M164.8 179.36L168.92 167.37C168.92 167.37 169.08 167.45 169.41 167.58L169.73 160.79H164.99C164.99 160.79 155.53 146.57 157.3 118.92C157.55 114.93 157.82 111.32 158.08 108.06L155.59 96.8004L154.72 92.8405L152.79 87.7104L124.94 88.1004L142.96 162.3C145.46 172.32 154.46 179.35 164.79 179.35L164.8 179.36Z" fill="#EAADAC"/>
<path d="M199.45 119.12L164.21 88.1102L169.73 83.9702L204.13 115.37L199.45 119.12Z" fill="#5B5ABB"/>
<path d="M163.32 111.93L216.18 83.9702V89.8902L165.78 117.4L163.32 111.93Z" fill="#5B5ABB"/>
<path d="M200.96 74.31C190.36 79.19 184.74 75.47 184.74 75.47C185.37 74.14 185.65 72.82 185.76 71.79L192.31 65.29L197.44 61.77C197.44 61.77 198.01 68.8 200.96 74.32V74.31Z" fill="#DE9796"/>
<path d="M204.361 32.5104C204.361 32.5104 202.361 23.4205 210.181 20.7805C218.001 18.1405 220.551 29.6904 220.551 29.6904C220.551 29.6904 227.191 29.6904 227.101 37.4204C227.011 45.1504 215.281 46.4204 215.281 46.4204L204.371 32.5104H204.361Z" fill="#383995"/>
<path d="M215.611 37.4201C215.611 42.5501 211.461 46.7001 206.331 46.7001C201.201 46.7001 197.051 42.5501 197.051 37.4201C197.051 32.2901 201.201 28.1401 206.331 28.1401C211.461 28.1401 215.611 32.2901 215.611 37.4201Z" fill="#5B5ABB"/>
<path d="M174.44 37.4204H201.18V51.4704C201.18 57.0604 197.63 71.8004 186.45 71.8004C175.27 71.8004 174.45 65.2504 174.45 54.6104V37.4204H174.44Z" fill="#EAADAC"/>
<path d="M210.181 53.7204C210.181 57.7504 206.911 61.0204 202.881 61.0204C198.851 61.0204 195.581 57.7504 195.581 53.7204C195.581 49.6904 198.851 46.4204 202.881 46.4204C206.911 46.4204 210.181 49.6904 210.181 53.7204Z" fill="#EAADAC"/>
<path d="M205.631 31.1404C191.441 24.2304 185.261 31.1404 185.261 31.1404C185.261 31.1404 177.621 28.4105 174.441 32.0505C171.261 35.6905 171.851 45.0505 171.851 45.0505H187.811C187.811 45.0505 186.721 40.6804 189.311 38.5004C189.311 38.5004 189.451 42.4605 191.221 45.0505L201.181 46.6205C201.731 46.4905 202.301 46.4204 202.891 46.4204C206.921 46.4204 210.191 49.6904 210.191 53.7204C210.191 57.7504 206.921 61.0205 202.891 61.0205C201.681 61.0205 200.541 60.7204 199.531 60.2004L197.581 64.5404C197.581 64.5404 202.371 71.5305 211.651 63.7105C220.931 55.8905 219.831 38.0605 205.651 31.1505L205.631 31.1404Z" fill="#383995"/>
<path d="M207.271 52.54C207.191 52.17 207.061 51.8 206.871 51.48C206.681 51.16 206.411 50.89 206.091 50.75L205.971 50.7C205.971 50.7 205.911 50.69 205.881 50.7C205.821 50.7 205.741 50.75 205.681 50.8C205.541 50.9 205.421 51.03 205.301 51.18C205.071 51.47 204.881 51.79 204.681 52.12C204.301 52.77 203.971 53.46 203.641 54.14C203.321 54.83 203.001 55.53 202.711 56.23L202.351 56.05C202.651 55.59 202.981 55.16 203.351 54.76C203.541 54.56 203.741 54.37 203.971 54.2C204.201 54.04 204.461 53.88 204.791 53.87C204.871 53.88 204.961 53.89 205.031 53.92C205.101 53.96 205.191 53.99 205.241 54.05C205.361 54.16 205.441 54.3 205.481 54.44C205.571 54.72 205.581 55 205.561 55.27C205.521 55.81 205.401 56.34 205.231 56.85C205.331 56.32 205.401 55.79 205.391 55.27C205.391 55.01 205.351 54.75 205.271 54.52C205.191 54.29 205.011 54.14 204.801 54.16C204.591 54.17 204.371 54.31 204.171 54.47C203.971 54.63 203.791 54.81 203.621 55.01C203.281 55.4 202.971 55.84 202.691 56.27L202.331 56.09C202.911 54.66 203.551 53.27 204.371 51.95C204.581 51.62 204.801 51.3 205.071 51.01C205.201 50.86 205.351 50.72 205.531 50.6C205.621 50.54 205.721 50.49 205.851 50.48C205.911 50.46 205.981 50.48 206.041 50.5L206.181 50.56C206.561 50.74 206.821 51.08 206.981 51.43C207.151 51.78 207.241 52.17 207.271 52.55V52.54Z" fill="#0E002B"/>
<path d="M187.701 43.5101C187.931 42.9601 188.251 42.4501 188.651 42.0001C189.051 41.5501 189.541 41.1601 190.121 40.9201C190.701 40.6901 191.391 40.6602 191.971 40.9002C192.551 41.1302 193.021 41.5501 193.371 42.0201C192.901 41.6601 192.401 41.3601 191.861 41.2101C191.331 41.0601 190.771 41.1002 190.261 41.3102C189.751 41.5102 189.291 41.8501 188.861 42.2301C188.441 42.6201 188.041 43.0501 187.681 43.5101H187.701Z" fill="#0E002B"/>
<path d="M194.59 50.7102C194.82 51.8002 193.22 53.0702 191.01 53.5402C188.8 54.0102 186.82 53.5102 186.59 52.4202C186.36 51.3302 187.96 50.0602 190.17 49.5902C192.38 49.1202 194.36 49.6202 194.59 50.7102Z" fill="white"/>
<path d="M191.61 51.6102C191.58 52.6902 190.69 53.5402 189.61 53.5202C188.53 53.4902 187.681 52.6002 187.701 51.5202C187.721 50.4402 188.621 49.5902 189.701 49.6102C190.781 49.6402 191.63 50.5302 191.61 51.6102Z" fill="#0E002B"/>
<path d="M186.59 52.4202C186.46 52.0102 186.62 51.5602 186.87 51.2202C187.12 50.8702 187.45 50.5802 187.8 50.3502C188.5 49.8702 189.31 49.5802 190.13 49.3902C190.95 49.2202 191.81 49.1602 192.65 49.3102C193.07 49.3802 193.48 49.5102 193.85 49.7302C194.21 49.9402 194.55 50.2902 194.59 50.7102C194.45 50.3202 194.12 50.0502 193.75 49.9102C193.39 49.7502 192.99 49.6702 192.6 49.6302C191.81 49.5502 191 49.6302 190.21 49.7902C189.43 49.9602 188.66 50.2202 187.97 50.6202C187.63 50.8202 187.3 51.0502 187.03 51.3402C186.75 51.6202 186.56 52.0002 186.59 52.4202Z" fill="#0E002B"/>
<path d="M173.061 49.0102C172.541 50.0002 173.741 51.6502 175.741 52.7002C177.741 53.7502 179.781 53.8102 180.301 52.8202C180.821 51.8302 179.621 50.1802 177.621 49.1302C175.621 48.0802 173.581 48.0202 173.061 49.0102Z" fill="white"/>
<path d="M174.78 50.1004C174.51 51.1504 175.14 52.2104 176.19 52.4804C177.24 52.7504 178.3 52.1204 178.57 51.0704C178.84 50.0204 178.21 48.9604 177.16 48.6904C176.11 48.4204 175.05 49.0504 174.78 50.1004Z" fill="#0E002B"/>
<path d="M180.3 52.8204C180.44 52.4304 180.36 52.0104 180.17 51.6704C179.99 51.3204 179.74 51.0004 179.46 50.7204C178.9 50.1504 178.23 49.6904 177.52 49.3204C176.81 48.9504 176.05 48.6605 175.27 48.5205C174.88 48.4505 174.48 48.4204 174.09 48.4704C173.7 48.5104 173.31 48.6705 173.07 49.0205C173.23 48.6305 173.65 48.3805 174.05 48.2705C174.47 48.1605 174.9 48.1504 175.32 48.1904C176.17 48.2704 176.97 48.5604 177.72 48.9504C178.46 49.3504 179.16 49.8504 179.7 50.5104C179.97 50.8304 180.21 51.2004 180.35 51.6004C180.49 52.0004 180.53 52.4805 180.29 52.8305L180.3 52.8204Z" fill="#0E002B"/>
<path d="M175.45 45.1701C175.65 44.6901 175.94 44.2501 176.31 43.8901C176.68 43.5201 177.17 43.2601 177.7 43.1801C178.23 43.0901 178.78 43.2 179.26 43.41C179.51 43.49 179.73 43.6501 179.97 43.7701C180.18 43.9401 180.41 44.08 180.58 44.29C181.35 45.06 181.67 46.15 181.76 47.19C181.85 48.24 181.73 49.2901 181.56 50.3101C181.2 52.3601 180.51 54.32 179.83 56.26C179.15 58.21 178.37 60.1201 177.47 61.9801L177.33 61.8401C178.48 61.3201 179.62 60.79 180.78 60.29C179.67 60.88 178.55 61.4501 177.43 62.0301L177.16 62.1701L177.28 61.8901C178.12 60.0201 178.8 58.0701 179.48 56.1401C180.14 54.1901 180.78 52.2401 181.17 50.2401C181.35 49.2401 181.48 48.22 181.4 47.22C181.31 46.23 181.06 45.2101 180.37 44.4901C180.22 44.2901 180.01 44.1601 179.82 43.9901C179.6 43.8701 179.4 43.71 179.17 43.63C178.72 43.41 178.22 43.3101 177.73 43.3601C177.24 43.4101 176.76 43.63 176.38 43.97C176 44.3 175.68 44.7201 175.45 45.1801V45.1701Z" fill="#0E002B"/>
<path d="M187.501 61.1801C187.861 61.4401 188.241 61.6301 188.641 61.7001C189.031 61.7701 189.431 61.7301 189.801 61.5901C190.181 61.4601 190.511 61.2101 190.851 60.9601C191.001 60.8201 191.181 60.6901 191.331 60.5401C191.481 60.3901 191.641 60.2401 191.811 60.1001C191.711 60.3001 191.601 60.4901 191.481 60.6801C191.361 60.8601 191.211 61.0301 191.061 61.2001C190.741 61.5201 190.381 61.8201 189.941 61.9801C189.501 62.1501 188.991 62.1801 188.551 62.0201C188.111 61.8701 187.731 61.5701 187.501 61.1901V61.1801Z" fill="#0E002B"/>
<path d="M223.24 41.5702L222.94 41.2802C222.94 41.2802 226.74 37.3302 226.45 33.5202C226.33 31.9502 225.52 30.5902 224.06 29.4902C222.72 28.4902 221.75 27.9902 221.04 27.7702C221.21 28.5502 221.25 29.2202 221.15 29.6902C220.98 30.4802 220.45 30.4802 220.23 30.4402C219.39 30.3002 218.87 29.5702 218.74 28.9102C218.61 28.2702 218.81 27.7202 219.28 27.4202C219.51 27.2802 219.87 27.1602 220.44 27.2202C219.6 24.4102 217.29 20.4002 213.94 19.5202C212.81 19.2202 211.82 19.3802 210.98 19.9902C208.45 21.8302 208.11 27.1902 208.1 27.2502L207.69 27.2302C207.7 27.0002 208.05 21.6102 210.74 19.6602C211.68 18.9802 212.79 18.8002 214.05 19.1302C217.57 20.0502 220.11 24.3102 220.93 27.3202C221.72 27.5202 222.82 28.0502 224.31 29.1702C225.88 30.3402 226.74 31.8002 226.87 33.5002C227.18 37.4902 223.41 41.4102 223.25 41.5802L223.24 41.5702ZM220.16 27.6102C219.83 27.6102 219.63 27.6902 219.51 27.7702C219.2 27.9702 219.07 28.3602 219.16 28.8202C219.26 29.3302 219.67 29.9202 220.31 30.0302C220.41 30.0502 220.65 30.0902 220.75 29.6002C220.84 29.1702 220.77 28.4802 220.56 27.6502C220.41 27.6202 220.27 27.6102 220.16 27.6102Z" fill="#0E002B"/>
<path d="M212.44 61.1402L212.1 60.9102C215.32 56.1702 218.49 43.2502 207.77 33.5702C196.92 23.7702 185.49 31.2502 185.38 31.3302L185.23 31.4302L185.11 31.2902C185.11 31.2902 181.8 27.5602 178.87 28.3702C176.86 28.9302 175.44 31.4302 174.65 35.8202L174.24 35.7502C175.06 31.1902 176.58 28.5702 178.76 27.9702C181.65 27.1702 184.67 30.1902 185.31 30.8802C186.72 30.0202 197.66 23.8602 208.06 33.2502C218.99 43.1202 215.74 56.3002 212.46 61.1402H212.44Z" fill="#0E002B"/>
<path d="M169.731 160.79L169.411 167.58C169.081 167.45 168.921 167.37 168.921 167.37L164.791 179.36C162.581 179.36 160.441 179.04 158.401 178.43L167.361 163.21H164.201C164.201 163.21 158.271 153.29 154.721 140.45C152.671 133.03 154.871 116.34 157.091 103.57L158.081 108.07C157.821 111.33 157.551 114.94 157.301 118.93C155.531 146.58 164.991 160.8 164.991 160.8H169.731V160.79Z" fill="#DE9796"/>
<path d="M166.451 82.1501C165.751 84.5101 165.211 86.91 164.721 89.32C164.241 91.73 163.871 94.16 163.601 96.6C163.341 99.04 163.201 101.5 163.241 103.95C163.291 106.4 163.501 108.85 164.011 111.24C164.521 113.63 165.331 115.97 166.621 118.05C167.261 119.09 168.021 120.06 168.901 120.91C169.781 121.76 170.771 122.5 171.831 123.1C173.971 124.31 176.391 124.94 178.831 125.17C179.441 125.24 180.061 125.23 180.671 125.27L182.511 125.34L184.351 125.26C184.961 125.23 185.581 125.23 186.181 125.12L188.001 124.87L188.461 124.81C188.611 124.78 188.761 124.74 188.911 124.71L189.811 124.5L190.711 124.29C191.011 124.22 191.311 124.16 191.601 124.05L193.341 123.47C195.621 122.6 197.851 121.54 199.851 120.13L200.611 119.62L201.331 119.05C201.801 118.66 202.301 118.31 202.751 117.9L204.101 116.66C204.551 116.25 204.951 115.78 205.371 115.34L206.001 114.67L206.581 113.96C206.961 113.48 207.371 113.03 207.731 112.53L208.811 111.05C209.171 110.56 209.481 110.03 209.821 109.52C212.451 105.38 214.421 100.85 215.961 96.19C216.721 93.86 217.361 91.48 217.891 89.08C218.411 86.68 218.871 84.2601 219.141 81.8101H219.181C218.731 86.7201 217.701 91.5701 216.251 96.2801C214.771 100.98 212.851 105.58 210.181 109.75C208.881 111.85 207.371 113.83 205.681 115.64C205.251 116.08 204.851 116.56 204.391 116.97L203.021 118.22C202.561 118.63 202.051 118.99 201.571 119.38L200.841 119.95L200.061 120.46C198.031 121.89 195.761 122.93 193.441 123.78L191.671 124.34C191.381 124.44 191.071 124.5 190.771 124.57L189.861 124.77L188.951 124.97C188.801 125 188.651 125.04 188.501 125.06L188.041 125.12L186.201 125.35C185.591 125.45 184.971 125.44 184.351 125.47L182.501 125.54L180.651 125.45C180.031 125.41 179.421 125.41 178.801 125.34C176.351 125.09 173.921 124.43 171.751 123.24C169.581 122.05 167.751 120.27 166.421 118.18C165.081 116.09 164.221 113.73 163.671 111.32C162.601 106.47 162.731 101.46 163.281 96.57C163.871 91.67 164.911 86.83 166.411 82.14H166.451V82.1501Z" fill="white"/>
<path d="M221.841 81.8303C220.721 87.4703 219.951 93.1703 219.471 98.8903C219.221 101.75 219.051 104.62 219.081 107.49C219.101 110.36 219.301 113.24 219.731 116.07C220.141 118.91 220.811 121.71 221.751 124.41C222.711 127.1 224.021 129.68 225.791 131.91C227.561 134.13 229.831 135.97 232.451 137.11C233.751 137.69 235.121 138.11 236.521 138.41C237.931 138.68 239.351 138.84 240.791 138.89V138.93C239.351 138.93 237.911 138.85 236.481 138.61C235.061 138.35 233.661 137.95 232.321 137.39C230.981 136.83 229.711 136.11 228.551 135.23C227.391 134.35 226.361 133.31 225.451 132.18C223.621 129.92 222.321 127.28 221.381 124.54C220.451 121.8 219.871 118.96 219.511 116.1C219.151 113.24 219.001 110.36 218.941 107.49C218.901 104.61 218.941 101.73 219.141 98.8603C219.341 95.9903 219.681 93.1203 220.121 90.2803C220.571 87.4403 221.111 84.6103 221.821 81.8203H221.861L221.841 81.8303Z" fill="white"/>
<path d="M201.2 139.02C201.2 139.83 200.85 140.6 200.33 141.21C199.83 141.84 199.18 142.32 198.51 142.76C197.16 143.63 195.66 144.22 194.13 144.69C191.06 145.62 187.85 145.96 184.66 145.95C181.47 145.91 178.27 145.51 175.2 144.63C173.67 144.18 172.16 143.62 170.8 142.78C170.13 142.35 169.47 141.87 168.95 141.25C168.42 140.65 168.05 139.86 168.03 139.03C168.03 138.2 168.39 137.4 168.91 136.78C169.42 136.14 170.07 135.64 170.75 135.2C172.11 134.33 173.63 133.75 175.16 133.3C178.24 132.41 181.45 132.06 184.65 132.06C187.84 132.06 191.06 132.43 194.12 133.36C195.65 133.83 197.15 134.42 198.5 135.29C199.16 135.73 199.81 136.22 200.32 136.84C200.84 137.45 201.18 138.23 201.19 139.03L201.2 139.02ZM201.16 139.02C201.15 138.23 200.8 137.47 200.28 136.88C199.77 136.27 199.13 135.79 198.46 135.38C197.1 134.56 195.6 134.02 194.07 133.62C191.01 132.81 187.83 132.5 184.67 132.49C183.09 132.49 181.51 132.59 179.94 132.78C178.37 132.97 176.81 133.25 175.29 133.68C173.78 134.11 172.28 134.66 170.94 135.47C170.28 135.88 169.64 136.35 169.14 136.95C168.63 137.53 168.29 138.26 168.27 139.03C168.27 139.8 168.6 140.54 169.1 141.14C169.59 141.75 170.22 142.24 170.89 142.66C172.23 143.5 173.73 144.08 175.25 144.5C176.78 144.93 178.34 145.21 179.92 145.38C181.5 145.55 183.08 145.62 184.67 145.61C187.83 145.58 191.01 145.25 194.07 144.44C195.6 144.03 197.1 143.49 198.46 142.67C199.14 142.26 199.78 141.77 200.28 141.17C200.8 140.58 201.15 139.82 201.16 139.02Z" fill="white"/>
<path d="M197.051 139.02C197.051 141.82 191.501 144.09 184.661 144.09C177.821 144.09 172.271 141.82 172.271 139.02C172.271 136.22 177.821 133.95 184.661 133.95C191.501 133.95 197.051 136.22 197.051 139.02Z" fill="#383995"/>
<path d="M164.8 179.34C166.35 179.88 167.93 180.31 169.52 180.73C171.1 181.15 172.7 181.52 174.3 181.86C177.5 182.55 180.74 183.08 183.99 183.49C187.24 183.91 190.51 184.21 193.79 184.28C197.07 184.37 200.35 184.26 203.62 183.96C206.88 183.65 210.13 183.17 213.34 182.55C214.14 182.39 214.94 182.2 215.74 182.03C216.14 181.94 216.54 181.86 216.94 181.76L218.13 181.45C218.92 181.23 219.72 181.05 220.5 180.82L222.85 180.11C225.96 179.1 229.05 177.98 232.03 176.62C235.04 175.32 237.91 173.73 240.77 172.12L240.79 172.16C238 173.89 235.15 175.54 232.15 176.9C230.68 177.63 229.15 178.24 227.63 178.87C226.88 179.2 226.09 179.44 225.32 179.73C224.54 180 223.78 180.3 222.98 180.52C219.85 181.55 216.64 182.3 213.42 182.94C210.18 183.54 206.92 183.93 203.64 184.19C200.36 184.42 197.07 184.47 193.79 184.42C190.51 184.36 187.22 184.19 183.95 183.83C180.68 183.46 177.44 182.89 174.23 182.17C171.03 181.44 167.85 180.55 164.78 179.37V179.33L164.8 179.34Z" fill="#0E002B"/>
<path d="M194.421 225.86L188.691 207.2L187.631 228.81L194.421 225.86Z" fill="#0E002B"/>
<path d="M240.78 179.36L241.84 181.61L241.82 181.62L240.78 179.36Z" fill="#383995"/>
<path d="M243.93 186.311L245.94 191.031L245.83 191.071L243.87 186.331L243.93 186.311Z" fill="#383995"/>
<path d="M247.871 195.791L249.73 200.581L249.541 200.651L247.73 195.851L247.871 195.791Z" fill="#383995"/>
<path d="M251.5 205.41L253.18 210.26L252.96 210.34L251.29 205.48L251.5 205.41Z" fill="#383995"/>
<path d="M254.78 215.15L256.27 220.07L256.01 220.14L254.53 215.22L254.78 215.15Z" fill="#383995"/>
<path d="M257.65 225.021L258.9 230L258.61 230.07L257.37 225.091L257.65 225.021Z" fill="#383995"/>
<path d="M187.971 222L183.332 223.82L183.312 223.77L187.971 222Z" fill="#383995"/>
<path d="M178.691 225.65L174.051 227.48L173.991 227.33L178.651 225.55L178.691 225.65Z" fill="#383995"/>
</g>
</svg>
