<svg width="798" height="520" viewBox="0 0 798 520" fill="none" xmlns="http://www.w3.org/2000/svg">
<mask id="mask0_226_11632" style="mask-type:luminance" maskUnits="userSpaceOnUse" x="0" y="0" width="798" height="520">
<path d="M797.48 0H0V519.18H797.48V0Z" fill="white"/>
</mask>
<g mask="url(#mask0_226_11632)">
<path d="M613.91 157.59V144.48L628.35 116.98C630.23 113.4 634.47 111.77 638.27 113.17C642.41 114.7 644.55 119.28 643.06 123.44L635.53 144.48V156.85L613.92 157.59H613.91Z" fill="#EAADAC"/>
<path d="M183.57 157.59V144.48L169.13 116.98C167.25 113.4 163.01 111.77 159.21 113.17C155.07 114.7 152.93 119.28 154.42 123.44L161.95 144.48V156.85L183.56 157.59H183.57Z" fill="#EAADAC"/>
<path d="M772.12 145.18H25.3604V157.98H772.12V145.18Z" fill="#F0C785"/>
<path d="M716.731 126.85H701.981L700.141 151.58L701.981 176.31H716.731V151.58V126.85Z" fill="#F0C785"/>
<path d="M750.82 151.58L749.9 169.34H742.53V133.82H749.9L750.82 151.58Z" fill="#F0C785"/>
<path d="M742.53 57.3398H716.73V151.58V245.82H742.53V151.58V57.3398Z" fill="#0E002B"/>
<path d="M725.281 245.82C724.971 230.11 724.881 214.41 724.951 198.7C725.011 190.85 725.161 182.99 725.171 175.14C725.221 167.29 725.151 159.43 725.081 151.58C724.941 135.87 724.811 120.17 724.861 104.46C724.851 96.6099 724.931 88.7498 725.001 80.8998C725.061 73.0498 725.131 65.1898 725.281 57.3398H725.371C725.521 65.1898 725.591 73.0498 725.651 80.8998C725.721 88.7498 725.801 96.6099 725.791 104.46C725.841 120.17 725.711 135.87 725.571 151.58C725.501 159.43 725.431 167.29 725.481 175.14C725.491 182.99 725.641 190.85 725.701 198.7C725.771 214.41 725.681 230.11 725.371 245.82H725.281Z" fill="#F0C785"/>
<path d="M733.891 245.82C733.581 230.11 733.491 214.41 733.561 198.7C733.621 190.85 733.771 182.99 733.781 175.14C733.831 167.29 733.761 159.43 733.691 151.58C733.551 135.87 733.421 120.17 733.471 104.46C733.461 96.6099 733.541 88.7498 733.611 80.8998C733.671 73.0498 733.741 65.1898 733.891 57.3398H733.981C734.131 65.1898 734.201 73.0498 734.261 80.8998C734.331 88.7498 734.411 96.6099 734.401 104.46C734.451 120.17 734.321 135.87 734.181 151.58C734.111 159.43 734.041 167.29 734.091 175.14C734.101 182.99 734.251 190.85 734.311 198.7C734.381 214.41 734.291 230.11 733.981 245.82H733.891Z" fill="#F0C785"/>
<path d="M82.9307 126.85H97.6807L99.5207 151.58L97.6807 176.31H82.9307V151.58V126.85Z" fill="#F0C785"/>
<path d="M48.8408 151.58L49.7608 169.34H57.1308V133.82H49.7608L48.8408 151.58Z" fill="#F0C785"/>
<path d="M57.1309 57.3398H82.9309V151.58V245.82H57.1309V151.58V57.3398Z" fill="#0E002B"/>
<path d="M74.2913 245.82C73.9813 230.11 73.8913 214.41 73.9613 198.7C74.0213 190.85 74.1713 182.99 74.1813 175.14C74.2313 167.29 74.1613 159.43 74.0913 151.58C73.9513 135.87 73.8213 120.17 73.8713 104.46C73.8613 96.6099 73.9413 88.7498 74.0113 80.8998C74.0713 73.0498 74.1413 65.1898 74.2913 57.3398H74.3813C74.5313 65.1898 74.6013 73.0498 74.6613 80.8998C74.7313 88.7498 74.8113 96.6099 74.8013 104.46C74.8513 120.17 74.7213 135.87 74.5813 151.58C74.5113 159.43 74.4413 167.29 74.4913 175.14C74.5013 182.99 74.6513 190.85 74.7113 198.7C74.7813 214.41 74.6913 230.11 74.3813 245.82H74.2913Z" fill="#F0C785"/>
<path d="M65.6809 245.82C65.3709 230.11 65.2809 214.41 65.3509 198.7C65.4109 190.85 65.5609 182.99 65.5709 175.14C65.6209 167.29 65.5509 159.43 65.4809 151.58C65.3409 135.87 65.2109 120.17 65.2609 104.46C65.2509 96.6099 65.3309 88.7498 65.4009 80.8998C65.4609 73.0498 65.5309 65.1898 65.6809 57.3398H65.7709C65.9209 65.1898 65.9909 73.0498 66.0509 80.8998C66.1209 88.7498 66.2009 96.6099 66.1909 104.46C66.2409 120.17 66.1109 135.87 65.9709 151.58C65.9009 159.43 65.8309 167.29 65.8809 175.14C65.8909 182.99 66.0409 190.85 66.1009 198.7C66.1709 214.41 66.0809 230.11 65.7709 245.82H65.6809Z" fill="#F0C785"/>
<path d="M413.03 476.73L461.58 786.99H561.74L515.14 476.73H413.03Z" fill="#EAADAC"/>
<path d="M413.03 476.73L517.2 490.45L515.14 476.73H413.03Z" fill="#DE9796"/>
<path d="M384.45 476.73L335.9 786.99H235.74L282.34 476.73H384.45Z" fill="#EAADAC"/>
<path d="M384.45 476.73L280.28 490.46L282.34 476.73H384.45Z" fill="#DE9796"/>
<path d="M471.16 330.69L398.74 350.94L326.32 330.7C326.32 330.7 270.46 413.84 270.46 476.74H392.36L398.75 422.27L405.14 476.73H527.04C527.04 413.83 471.18 330.69 471.18 330.69H471.16Z" fill="#F0C785"/>
<path d="M429.361 96.4299H366.141C366.141 96.4299 366.791 66.3398 397.751 66.3398C428.711 66.3398 429.361 96.4299 429.361 96.4299Z" fill="#5B5ABB"/>
<path d="M415.33 163.31L408.2 147.92L398.74 148.96L389.28 147.92L382.14 163.31C380.02 181.47 398.73 190.76 398.73 190.76C398.73 190.76 417.45 181.47 415.32 163.31H415.33Z" fill="#EAADAC"/>
<path d="M389.01 148.51L387.03 152.78C387.03 152.78 398.75 160.08 412.26 156.68L408.47 148.5H389.01V148.51Z" fill="#DE9796"/>
<path d="M433.62 127.099C437.396 123.323 437.396 117.2 433.62 113.424C429.843 109.647 423.721 109.647 419.944 113.424C416.168 117.2 416.168 123.323 419.944 127.099C423.721 130.875 429.843 130.875 433.62 127.099Z" fill="#EAADAC"/>
<path d="M433.67 117.66C433.07 116.54 432.14 115.42 430.95 115.27C430.45 115.11 430.15 115.75 429.89 116.29C429.64 116.86 429.46 117.48 429.29 118.09C428.94 119.33 428.69 120.6 428.44 121.87C428.21 123.14 427.98 124.43 427.79 125.7L426.93 125.51C427.23 124.61 427.6 123.77 428.06 122.94C428.28 122.53 428.54 122.12 428.87 121.75C429.19 121.39 429.55 121 430.13 120.85C430.28 120.84 430.43 120.81 430.57 120.82C430.71 120.86 430.87 120.87 430.99 120.95C431.25 121.09 431.44 121.3 431.57 121.52C431.84 121.96 431.97 122.42 432.04 122.89C432.19 123.81 432.21 124.74 432.13 125.65C432.05 124.74 431.93 123.83 431.68 122.98C431.55 122.56 431.38 122.14 431.15 121.82C430.91 121.49 430.59 121.34 430.28 121.45C429.96 121.55 429.66 121.88 429.42 122.21C429.17 122.55 428.96 122.93 428.76 123.32C428.36 124.1 428.05 124.96 427.77 125.79L426.91 125.6C427.27 122.99 427.74 120.41 428.54 117.88C428.75 117.25 428.99 116.63 429.31 116.02C429.47 115.72 429.65 115.42 429.91 115.15C430.04 115.02 430.19 114.88 430.41 114.8C430.51 114.75 430.64 114.76 430.76 114.75L431.03 114.8C431.75 114.93 432.32 115.42 432.74 115.93C433.17 116.45 433.47 117.05 433.67 117.68V117.66Z" fill="#0E002B"/>
<path d="M377.535 127.094C381.311 123.317 381.311 117.195 377.535 113.418C373.758 109.642 367.636 109.642 363.859 113.418C360.083 117.195 360.083 123.317 363.859 127.094C367.636 130.87 373.758 130.87 377.535 127.094Z" fill="#EAADAC"/>
<path d="M363.811 117.66C364.011 117.04 364.311 116.44 364.741 115.91C365.151 115.39 365.731 114.91 366.451 114.78L366.721 114.73C366.831 114.73 366.971 114.73 367.071 114.78C367.291 114.86 367.441 114.99 367.571 115.13C367.831 115.4 368.011 115.7 368.171 116C368.491 116.61 368.731 117.23 368.941 117.86C369.751 120.39 370.221 122.97 370.571 125.58L369.711 125.77C369.431 124.94 369.121 124.09 368.721 123.3C368.521 122.91 368.301 122.53 368.061 122.19C367.811 121.86 367.521 121.53 367.201 121.43C366.891 121.32 366.571 121.47 366.331 121.8C366.101 122.12 365.931 122.54 365.801 122.96C365.551 123.82 365.431 124.72 365.351 125.63C365.271 124.72 365.291 123.8 365.441 122.87C365.521 122.41 365.641 121.94 365.911 121.5C366.041 121.28 366.231 121.07 366.491 120.93C366.611 120.85 366.771 120.84 366.911 120.8C367.061 120.79 367.211 120.81 367.351 120.83C367.921 120.98 368.291 121.37 368.611 121.73C368.931 122.1 369.191 122.5 369.421 122.92C369.881 123.75 370.251 124.59 370.551 125.49L369.691 125.68C369.501 124.4 369.271 123.12 369.041 121.85C368.791 120.58 368.531 119.31 368.191 118.07C368.021 117.45 367.841 116.83 367.591 116.27C367.331 115.73 367.031 115.09 366.531 115.25C365.341 115.4 364.411 116.52 363.811 117.64V117.66Z" fill="#0E002B"/>
<path d="M398.741 95.46H373.141V127.45C373.141 137.72 378.921 143.5 384.981 146.74C393.541 151.31 403.941 151.31 412.501 146.74C418.571 143.5 424.341 137.72 424.341 127.45V95.46H398.741Z" fill="#EAADAC"/>
<path d="M403.5 108.11C403.6 107.09 403.91 106.1 404.37 105.18C404.83 104.25 405.47 103.38 406.35 102.73C407.23 102.09 408.39 101.78 409.46 101.94C410.55 102.05 411.47 102.63 412.25 103.25C411.27 102.95 410.35 102.6 409.41 102.64C408.49 102.64 407.61 102.91 406.88 103.46C406.14 103.99 405.53 104.74 404.98 105.53C404.44 106.33 403.96 107.2 403.5 108.11Z" fill="#0E002B"/>
<path d="M405.13 136.1C406.51 135.87 407.65 135.32 408.61 134.51C409.08 134.1 409.51 133.62 409.91 133.11C410.11 132.85 410.29 132.57 410.49 132.31C410.67 132.03 410.85 131.74 411.07 131.46C411.04 131.81 410.97 132.15 410.89 132.5C410.77 132.83 410.67 133.17 410.5 133.49C410.19 134.13 409.74 134.72 409.19 135.21C408.62 135.67 407.96 136.04 407.24 136.2C406.53 136.37 405.78 136.37 405.12 136.11L405.13 136.1Z" fill="#0E002B"/>
<path d="M417.11 114.31C417.55 116.16 414.88 118.39 411.13 119.28C407.39 120.17 403.99 119.4 403.55 117.55C403.11 115.7 405.78 113.47 409.53 112.58C413.27 111.69 416.67 112.46 417.11 114.31Z" fill="white"/>
<path d="M408.94 119.59C410.779 119.59 412.27 118.099 412.27 116.26C412.27 114.421 410.779 112.93 408.94 112.93C407.101 112.93 405.61 114.421 405.61 116.26C405.61 118.099 407.101 119.59 408.94 119.59Z" fill="#0E002B"/>
<path d="M403.55 117.55C403.29 116.87 403.54 116.07 403.93 115.46C404.34 114.84 404.88 114.33 405.47 113.9C406.65 113.03 408.02 112.49 409.42 112.14C410.83 111.82 412.3 111.69 413.74 111.93C414.46 112.05 415.17 112.26 415.82 112.63C416.45 113 417.03 113.59 417.11 114.32C416.83 113.66 416.26 113.25 415.63 113.03C415.01 112.79 414.34 112.69 413.67 112.64C412.32 112.56 410.96 112.72 409.64 113.03C408.32 113.35 407.03 113.82 405.87 114.5C405.29 114.85 404.74 115.24 404.3 115.74C403.83 116.22 403.51 116.85 403.56 117.56L403.55 117.55Z" fill="#0E002B"/>
<path d="M377.821 114.31C377.381 116.16 380.051 118.39 383.801 119.28C387.541 120.17 390.941 119.4 391.381 117.55C391.821 115.7 389.151 113.47 385.401 112.58C381.661 111.69 378.261 112.46 377.821 114.31Z" fill="white"/>
<path d="M385.99 119.59C387.829 119.59 389.32 118.099 389.32 116.26C389.32 114.421 387.829 112.93 385.99 112.93C384.151 112.93 382.66 114.421 382.66 116.26C382.66 118.099 384.151 119.59 385.99 119.59Z" fill="#0E002B"/>
<path d="M391.38 117.55C391.43 116.83 391.11 116.21 390.64 115.73C390.19 115.23 389.64 114.84 389.07 114.49C387.91 113.81 386.62 113.34 385.3 113.02C383.98 112.71 382.62 112.54 381.27 112.63C380.6 112.68 379.93 112.78 379.31 113.02C378.68 113.24 378.11 113.65 377.83 114.31C377.91 113.58 378.49 112.98 379.12 112.62C379.76 112.25 380.48 112.04 381.2 111.92C382.65 111.68 384.11 111.82 385.52 112.13C386.92 112.48 388.29 113.03 389.47 113.89C390.06 114.32 390.6 114.83 391.01 115.45C391.4 116.06 391.65 116.86 391.39 117.54L391.38 117.55Z" fill="#0E002B"/>
<path d="M450.03 105.18C447.92 104.36 444.52 108.92 436.45 108.11C428.39 107.3 423.28 90.9297 423.28 90.9297L408.94 95.4697C411.3 108.11 424.34 110.92 424.34 110.92C425.12 110.72 425.93 110.6 426.78 110.6C432.12 110.6 436.45 114.93 436.45 120.27C436.45 123.89 434.46 127.04 431.51 128.7C448.17 132.75 446.46 112.94 446.46 112.94C446.46 112.94 452.13 106.01 450.03 105.19V105.18Z" fill="#383995"/>
<path d="M420.351 91.8501C421.741 95.0801 423.431 98.1801 425.401 101.08C426.381 102.53 427.441 103.93 428.631 105.21C429.811 106.49 431.111 107.67 432.561 108.57C434.011 109.48 435.641 110.09 437.321 110.15L438.601 110.18C439.031 110.18 439.451 110.11 439.881 110.09C440.311 110.09 440.721 109.98 441.141 109.91L441.771 109.8L442.381 109.62C445.671 108.74 448.551 106.47 450.451 103.54L450.531 103.58C449.061 106.82 446.111 109.4 442.641 110.5C440.901 111.02 439.061 111.22 437.251 111.05C435.411 110.93 433.641 110.19 432.161 109.18C430.651 108.18 429.351 106.94 428.181 105.6C427.001 104.26 425.971 102.82 425.011 101.33C423.121 98.3301 421.541 95.1601 420.261 91.8801L420.341 91.8501H420.351Z" fill="#0E002B"/>
<path d="M347.51 105.24C349.62 104.42 353.021 108.98 361.091 108.17C369.151 107.36 374.261 90.9897 374.261 90.9897L388.6 95.5297C386.24 108.17 373.201 110.98 373.201 110.98C372.421 110.78 371.611 110.66 370.761 110.66C365.421 110.66 361.091 114.99 361.091 120.33C361.091 123.95 363.081 127.1 366.031 128.76C349.371 132.81 351.081 113 351.081 113C351.081 113 345.41 106.07 347.51 105.25V105.24Z" fill="#383995"/>
<path d="M377.26 91.9397C375.97 95.2197 374.39 98.3897 372.51 101.39C371.55 102.88 370.52 104.32 369.34 105.66C368.17 107 366.87 108.25 365.36 109.24C363.88 110.25 362.11 110.98 360.27 111.11C358.47 111.29 356.63 111.09 354.88 110.56C351.4 109.46 348.45 106.88 346.99 103.64L347.07 103.6C348.97 106.54 351.85 108.8 355.14 109.68L355.75 109.86L356.38 109.97C356.8 110.04 357.21 110.14 357.64 110.15C358.07 110.17 358.49 110.23 358.92 110.24L360.2 110.21C361.88 110.15 363.51 109.54 364.96 108.63C366.42 107.72 367.72 106.55 368.89 105.27C370.07 103.99 371.13 102.59 372.12 101.14C374.09 98.2397 375.77 95.1297 377.17 91.9097L377.25 91.9397H377.26Z" fill="#0E002B"/>
<path d="M423.79 88.1898C423.79 88.1898 418.4 84.2497 397.75 84.9697C377.1 84.2497 371.71 88.1898 371.71 88.1898C363.23 93.6798 362.16 101.2 366.14 104.94C370.12 108.67 378.64 103.36 384.13 99.4197C387.15 97.2497 390.98 97.0397 393.8 97.2797C396.43 97.5097 399.06 97.5097 401.69 97.2797C404.52 97.0297 408.34 97.2497 411.36 99.4197C416.85 103.36 425.37 108.67 429.35 104.94C433.33 101.21 432.26 93.6898 423.78 88.1898H423.79Z" fill="#E48A59"/>
<path d="M406.101 77.5299C406.091 78.4299 405.461 79.1499 404.801 79.6699C404.131 80.2199 403.341 80.6099 402.541 80.9299C400.931 81.5799 399.181 81.7999 397.461 81.7599C395.741 81.6799 394.041 81.3499 392.421 80.7999C391.611 80.5199 390.811 80.2 390.091 79.71C389.731 79.47 389.401 79.1699 389.111 78.8199C388.841 78.4599 388.641 78.0199 388.611 77.5299C388.601 77.0399 388.771 76.5699 389.021 76.1699C389.281 75.7799 389.611 75.4499 389.971 75.1899C390.691 74.6499 391.501 74.2699 392.331 73.9899C393.991 73.4299 395.731 73.1899 397.461 73.1899C399.191 73.2199 400.931 73.4499 402.551 74.1099C403.351 74.4299 404.141 74.8299 404.811 75.3799C405.471 75.9099 406.101 76.6299 406.111 77.5299H406.101ZM406.011 77.5299C405.991 77.1199 405.831 76.72 405.591 76.39C405.321 76.07 405.021 75.79 404.661 75.58C403.961 75.15 403.171 74.8699 402.361 74.6799C400.751 74.3099 399.101 74.1499 397.461 74.1599C395.821 74.1799 394.161 74.3399 392.601 74.7999C391.821 75.0399 391.061 75.33 390.401 75.77C389.751 76.2 389.171 76.78 389.121 77.52C389.101 78.26 389.621 78.9699 390.291 79.4399C390.951 79.9299 391.721 80.2799 392.521 80.5099C394.131 80.9899 395.821 81.0499 397.471 80.9899C399.131 80.9199 400.771 80.7599 402.381 80.3799C403.181 80.1799 403.971 79.9099 404.681 79.4699C405.041 79.2599 405.351 78.9799 405.611 78.6599C405.851 78.3299 406.011 77.93 406.031 77.52L406.011 77.5299Z" fill="#F0C785"/>
<path d="M379.19 106.7C379.77 105.18 381.03 103.91 382.6 103.32C383.38 103 384.23 102.92 385.06 102.93C385.48 102.96 385.9 102.97 386.3 103.06L386.92 103.17C387.13 103.23 387.34 103.3 387.54 103.37C389.17 104.08 390.2 105.55 390.98 106.99C391.75 108.46 392.3 110.02 392.74 111.61C393.63 114.77 394.05 118.03 394.2 121.29C394.36 124.55 394.24 127.83 393.64 131.05L393.13 130.8C395.33 128.5 397.57 126.22 399.83 123.98C397.77 126.42 395.68 128.83 393.56 131.21L392.92 131.93L393.05 130.96C393.47 127.78 393.53 124.55 393.35 121.34C393.25 119.74 393.09 118.13 392.84 116.55C392.62 114.96 392.32 113.38 391.91 111.83C391.51 110.28 390.99 108.76 390.28 107.35C389.56 105.97 388.67 104.57 387.29 103.92C385.88 103.4 384.2 103.2 382.7 103.65C381.2 104.1 379.9 105.24 379.17 106.69L379.19 106.7Z" fill="#0E002B"/>
<path d="M403.95 466.69L462.73 466.37L477.43 466.28H492.12C501.92 466.36 511.71 466.42 521.51 466.68V466.77C511.71 467.03 501.92 467.1 492.12 467.18H477.43L462.73 467.09L403.95 466.77V466.68V466.69Z" fill="#383995"/>
<path d="M460.021 343.15C460.371 344.35 460.74 345.54 461.18 346.7C461.6 347.87 462.07 349.02 462.6 350.13C463.66 352.35 464.921 354.49 466.581 356.26C468.211 358.05 470.36 359.33 472.76 359.63C473.35 359.73 473.96 359.71 474.57 359.71C475.17 359.63 475.78 359.6 476.38 359.44C477.6 359.23 478.74 358.75 479.91 358.29C477.79 359.57 475.311 360.54 472.701 360.33C471.411 360.26 470.13 359.86 468.98 359.27C467.82 358.67 466.82 357.82 465.93 356.89C464.18 355 462.9 352.76 461.97 350.42C461.03 348.08 460.35 345.65 460.03 343.16L460.021 343.15Z" fill="#383995"/>
<path d="M415.331 163.31C415.331 163.31 409.091 182.99 398.741 182.99C388.391 182.99 382.151 163.31 382.151 163.31L283.101 190.76L319.091 298.41L321.681 327.26C321.681 327.26 349.041 350.93 398.741 350.93C448.441 350.93 475.801 327.26 475.801 327.26L478.391 298.41L514.381 190.76L415.331 163.31Z" fill="#5B5ABB"/>
<path d="M484.27 363.45C485.17 365.03 486.04 366.63 486.91 368.23L486.51 368.43C485.73 366.79 484.95 365.15 484.19 363.49L484.27 363.45Z" fill="#5B5ABB"/>
<path d="M491.241 376.84L493.261 381.21L495.231 385.61L494.541 385.91L492.521 381.55L490.561 377.15L491.241 376.84Z" fill="#5B5ABB"/>
<path d="M498.82 394.56L500.55 399.05L502.35 403.52L502.04 403.64L500.3 399.15L498.49 394.69L498.82 394.56Z" fill="#5B5ABB"/>
<path d="M505.791 412.53L508.841 421.68L507.981 421.94L505.141 412.75L505.791 412.53Z" fill="#5B5ABB"/>
<path d="M511.4 430.99C512.06 434.14 512.71 437.3 513.32 440.46L512.54 440.6C511.82 437.48 511.14 434.35 510.48 431.22L511.391 431L511.4 430.99Z" fill="#5B5ABB"/>
<path d="M514.38 450.07L514.43 455.54H514.34L513.95 450.1L514.38 450.07Z" fill="#5B5ABB"/>
<path d="M511.38 199.75L547.35 251.51L613.92 184.51V157.59H684.81L665.79 204.55C665.79 204.55 603.54 343.15 553.83 343.15C504.12 343.15 478.4 298.41 478.4 298.41L511.38 199.75Z" fill="#EAADAC"/>
<path d="M511.371 199.76L495.291 318.81C484.081 308.31 478.391 298.42 478.391 298.42L511.371 199.76Z" fill="#DE9796"/>
<path d="M478.391 298.42L496.661 185.85L514.381 190.76L478.391 298.42Z" fill="#E48A59"/>
<path d="M478.351 298.41L491.991 246.78L495.391 233.87L498.871 220.98C501.271 212.41 503.661 203.84 506.241 195.31L506.331 195.33C504.261 203.99 502.001 212.6 499.751 221.21L496.261 234.1L492.691 246.96L478.441 298.43L478.351 298.41Z" fill="#383995"/>
<path d="M501.39 187.16L494.72 219.59C493.61 224.99 492.54 230.41 491.32 235.79C490.08 241.17 488.85 246.55 487.43 251.88L487.34 251.86C488.25 246.41 489.35 241 490.43 235.59C491.53 230.18 492.8 224.81 494.01 219.43L501.3 187.14L501.39 187.16Z" fill="#383995"/>
<path d="M642.051 125.94C648.671 125.94 653.611 130.78 652.231 135.92L644.351 165.3C643.721 167.66 641.101 169.34 638.061 169.34C634.511 169.34 631.631 167.06 631.631 164.24V134.2C631.631 129.64 636.291 125.94 642.041 125.94H642.051Z" fill="#EAADAC"/>
<path d="M656.271 125.94C662.891 125.94 667.831 130.78 666.451 135.92L658.571 165.3C657.941 167.66 655.321 169.34 652.281 169.34C648.731 169.34 645.851 167.06 645.851 164.24V134.2C645.851 129.64 650.511 125.94 656.261 125.94H656.271Z" fill="#EAADAC"/>
<path d="M668.46 125.94C675.08 125.94 680.02 130.78 678.64 135.92L670.76 165.3C670.13 167.66 667.51 169.34 664.47 169.34C660.92 169.34 658.04 167.06 658.04 164.24V134.2C658.04 129.64 662.7 125.94 668.45 125.94H668.46Z" fill="#EAADAC"/>
<path d="M682.17 125.94C688.79 125.94 693.73 130.78 692.35 135.92L684.47 165.3C683.84 167.66 681.22 169.34 678.18 169.34C674.63 169.34 671.75 167.06 671.75 164.24V134.2C671.75 129.64 676.41 125.94 682.16 125.94H682.17Z" fill="#EAADAC"/>
<path d="M631.681 134.2C631.851 138.61 631.921 143.02 631.981 147.44C632.011 151.85 632.061 156.26 632.011 160.68L631.951 163.99C631.881 165.05 632.231 166.05 632.881 166.88C634.211 168.54 636.491 169.31 638.631 169.17C639.711 169.09 640.781 168.81 641.721 168.28C642.661 167.75 643.461 166.96 643.921 166C644.161 165.53 644.261 164.99 644.401 164.45L644.811 162.85L645.621 159.64L646.091 159.7L646.141 162.33L646.161 163.65C646.161 164.1 646.161 164.52 646.251 164.9C646.541 166.51 647.901 167.76 649.411 168.38C650.941 169 652.711 169.09 654.291 168.63C655.871 168.19 657.321 167.12 657.921 165.66H658.801C659.371 166.99 660.631 167.99 662.051 168.48C663.471 168.97 665.061 169.01 666.521 168.61C667.961 168.19 669.321 167.32 670.031 166.03C670.371 165.41 670.521 164.6 670.761 163.83L671.411 161.51L672.111 161.6L672.091 163.3C672.091 163.87 672.041 164.44 672.121 164.94C672.271 165.98 672.901 166.93 673.721 167.64C675.391 169.04 677.781 169.56 679.981 169.12L680.001 169.21C677.811 169.77 675.301 169.45 673.431 168C672.521 167.28 671.761 166.26 671.541 165.05C671.421 164.44 671.451 163.86 671.431 163.31L671.411 161.61L672.111 161.7L671.511 164.04L671.211 165.21C671.121 165.6 670.971 166.05 670.771 166.43C669.951 168.01 668.401 169.04 666.781 169.51C665.141 169.97 663.371 169.94 661.751 169.39C660.151 168.83 658.621 167.72 657.931 166.04H658.811C658.031 167.85 656.321 169.02 654.541 169.5C652.751 169.98 650.811 169.87 649.101 169.14C647.431 168.41 645.891 166.96 645.591 165.04C645.511 164.56 645.531 164.09 645.541 163.67L645.561 162.35L645.611 159.72L646.081 159.78L645.171 162.96L644.721 164.55C644.571 165.07 644.461 165.63 644.201 166.15C643.691 167.18 642.841 168 641.851 168.54C640.871 169.1 639.771 169.42 638.651 169.51C636.431 169.66 634.031 169 632.481 167.23C631.721 166.37 631.261 165.17 631.301 164.01L631.251 160.7C631.201 156.29 631.251 151.88 631.281 147.46C631.341 143.05 631.421 138.64 631.581 134.22H631.671L631.681 134.2Z" fill="#0E002B"/>
<path d="M671.71 161.58C672.17 155.97 672.66 150.36 673.17 144.75C673.42 141.95 673.61 139.14 673.97 136.34C674.35 133.55 674.71 130.76 675.26 127.99H675.35C675.31 130.83 675.08 133.63 674.87 136.44C674.63 139.25 674.24 142.03 673.89 144.83C673.22 150.42 672.52 156.01 671.8 161.59H671.71V161.58Z" fill="#0E002B"/>
<path d="M658.32 165.83C658.89 159.44 659.49 153.05 660.11 146.66C660.41 143.47 660.66 140.27 661.07 137.08C661.5 133.9 661.92 130.72 662.53 127.56H662.62C662.53 130.79 662.24 133.98 661.97 137.18C661.68 140.38 661.23 143.55 660.83 146.74C660.05 153.11 659.24 159.48 658.41 165.84H658.32V165.83Z" fill="#0E002B"/>
<path d="M645.7 160.76C646.14 155.32 646.61 149.88 647.11 144.44C647.35 141.72 647.53 139 647.88 136.29C648.25 133.58 648.6 130.88 649.15 128.19H649.24C649.21 130.94 648.99 133.66 648.79 136.39C648.56 139.11 648.17 141.81 647.84 144.52C647.19 149.94 646.51 155.36 645.8 160.77H645.71L645.7 160.76Z" fill="#0E002B"/>
<path d="M393.53 466.79L334.75 467.11L320.06 467.2H305.37C295.57 467.12 285.78 467.06 275.98 466.8V466.71C285.78 466.45 295.57 466.38 305.37 466.3H320.06L334.75 466.39L393.53 466.71V466.8V466.79Z" fill="#383995"/>
<path d="M337.46 343.16C337.14 345.64 336.45 348.08 335.52 350.42C334.59 352.76 333.31 355 331.56 356.89C330.67 357.82 329.67 358.66 328.51 359.27C327.36 359.87 326.08 360.26 324.79 360.33C322.18 360.54 319.69 359.58 317.58 358.29C318.75 358.74 319.89 359.23 321.11 359.44C321.7 359.6 322.32 359.64 322.92 359.71C323.53 359.71 324.13 359.73 324.73 359.63C327.12 359.34 329.28 358.05 330.91 356.26C332.57 354.5 333.83 352.36 334.89 350.13C335.42 349.02 335.89 347.87 336.31 346.7C336.76 345.54 337.12 344.35 337.47 343.15L337.46 343.16Z" fill="#383995"/>
<path d="M313.29 363.5C312.53 365.16 311.75 366.8 310.97 368.44L310.57 368.24C311.45 366.64 312.32 365.04 313.21 363.46L313.29 363.5Z" fill="#5B5ABB"/>
<path d="M306.921 377.16L304.961 381.55L302.941 385.92L302.251 385.62L304.221 381.22L306.241 376.84L306.921 377.16Z" fill="#5B5ABB"/>
<path d="M298.991 394.69L297.181 399.16L295.441 403.65L295.131 403.53L296.931 399.06L298.661 394.56L298.991 394.69Z" fill="#5B5ABB"/>
<path d="M292.341 412.76L289.501 421.94L288.641 421.69L291.691 412.53L292.341 412.76Z" fill="#5B5ABB"/>
<path d="M286.99 431.22C286.33 434.35 285.65 437.48 284.93 440.6L284.15 440.46C284.76 437.3 285.41 434.14 286.07 430.99L286.98 431.21L286.99 431.22Z" fill="#5B5ABB"/>
<path d="M283.531 450.11L283.141 455.55H283.051L283.101 450.08L283.531 450.11Z" fill="#5B5ABB"/>
<path d="M415.33 163.32C415.33 163.32 415.33 163.32 415.33 163.34C415.14 163.93 408.94 183 398.75 183C388.56 183 382.36 163.94 382.17 163.35V163.33L374.91 165.34C381.76 193.05 398.76 195.33 398.76 195.33C398.76 195.33 415.76 193.05 422.61 165.34L415.35 163.33L415.33 163.32Z" fill="#E48A59"/>
<path d="M286.1 199.76L250.13 251.52L183.56 184.52V157.6H112.67L131.69 204.56C131.69 204.56 193.94 343.16 243.65 343.16C293.36 343.16 319.08 298.42 319.08 298.42L286.1 199.76Z" fill="#EAADAC"/>
<path d="M286.11 199.76L302.19 318.81C313.4 308.31 319.09 298.42 319.09 298.42L286.11 199.76Z" fill="#DE9796"/>
<path d="M319.091 298.42L300.821 185.86L283.101 190.77L319.091 298.42Z" fill="#E48A59"/>
<path d="M319.05 298.43L304.8 246.96L301.23 234.1L297.74 221.21C295.5 212.6 293.24 203.99 291.16 195.33L291.25 195.31C293.82 203.83 296.21 212.41 298.62 220.98L302.1 233.87L305.5 246.78L319.14 298.41L319.05 298.43Z" fill="#383995"/>
<path d="M296.181 187.14L303.471 219.43C304.681 224.81 305.941 230.19 307.051 235.59C308.131 241 309.231 246.41 310.141 251.86L310.051 251.88C308.631 246.54 307.401 241.16 306.161 235.79C304.941 230.41 303.871 224.99 302.761 219.59L296.091 187.16L296.181 187.14Z" fill="#383995"/>
<path d="M155.43 125.94C148.81 125.94 143.87 130.78 145.25 135.92L153.13 165.3C153.76 167.66 156.38 169.34 159.42 169.34C162.97 169.34 165.85 167.06 165.85 164.24V134.2C165.85 129.64 161.19 125.94 155.44 125.94H155.43Z" fill="#EAADAC"/>
<path d="M141.21 125.94C134.59 125.94 129.65 130.78 131.03 135.92L138.91 165.3C139.54 167.66 142.16 169.34 145.2 169.34C148.75 169.34 151.63 167.06 151.63 164.24V134.2C151.63 129.64 146.97 125.94 141.22 125.94H141.21Z" fill="#EAADAC"/>
<path d="M129.021 125.94C122.401 125.94 117.461 130.78 118.841 135.92L126.721 165.3C127.351 167.66 129.971 169.34 133.011 169.34C136.561 169.34 139.441 167.06 139.441 164.24V134.2C139.441 129.64 134.781 125.94 129.031 125.94H129.021Z" fill="#EAADAC"/>
<path d="M115.31 125.94C108.69 125.94 103.75 130.78 105.13 135.92L113.01 165.3C113.64 167.66 116.26 169.34 119.3 169.34C122.85 169.34 125.73 167.06 125.73 164.24V134.2C125.73 129.64 121.07 125.94 115.32 125.94H115.31Z" fill="#EAADAC"/>
<path d="M165.891 134.2C166.061 138.61 166.131 143.02 166.191 147.44C166.221 151.85 166.271 156.26 166.221 160.68L166.171 163.99C166.211 165.15 165.751 166.35 164.991 167.21C163.441 168.97 161.041 169.64 158.821 169.49C157.701 169.4 156.601 169.08 155.621 168.52C154.641 167.98 153.781 167.16 153.271 166.13C153.011 165.61 152.901 165.05 152.751 164.53L152.301 162.94L151.391 159.76L151.861 159.7L151.911 162.33L151.931 163.65C151.931 164.08 151.961 164.54 151.881 165.02C151.581 166.94 150.041 168.4 148.371 169.12C146.661 169.85 144.731 169.96 142.931 169.48C141.151 169 139.441 167.83 138.661 166.02H139.541C138.851 167.69 137.321 168.81 135.721 169.37C134.101 169.92 132.331 169.96 130.691 169.49C129.061 169.02 127.511 167.99 126.701 166.41C126.501 166.03 126.351 165.58 126.261 165.19L125.961 164.02L125.361 161.68L126.061 161.59L126.041 163.29C126.021 163.85 126.041 164.42 125.931 165.03C125.711 166.23 124.951 167.25 124.041 167.98C122.171 169.43 119.651 169.75 117.471 169.19L117.491 169.1C119.691 169.54 122.081 169.02 123.751 167.62C124.571 166.92 125.201 165.97 125.351 164.92C125.431 164.42 125.391 163.85 125.381 163.28L125.361 161.58L126.061 161.49L126.711 163.81C126.951 164.58 127.091 165.39 127.441 166.01C128.151 167.31 129.511 168.18 130.951 168.59C132.411 168.99 134.001 168.95 135.421 168.46C136.831 167.97 138.101 166.97 138.671 165.64H139.551C140.151 167.11 141.601 168.17 143.181 168.61C144.771 169.07 146.531 168.98 148.061 168.36C149.571 167.74 150.931 166.49 151.221 164.88C151.301 164.49 151.301 164.08 151.311 163.63L151.331 162.31L151.381 159.68L151.851 159.62L152.661 162.83L153.071 164.43C153.221 164.97 153.321 165.51 153.551 165.98C154.011 166.94 154.811 167.73 155.751 168.26C156.691 168.79 157.761 169.07 158.841 169.15C160.981 169.29 163.261 168.52 164.591 166.86C165.241 166.03 165.601 165.03 165.521 163.97L165.471 160.66C165.421 156.25 165.471 151.84 165.501 147.42C165.561 143.01 165.641 138.6 165.801 134.18H165.891V134.2Z" fill="#0E002B"/>
<path d="M125.67 161.59C124.95 156.01 124.25 150.42 123.58 144.83C123.24 142.04 122.84 139.25 122.6 136.44C122.39 133.63 122.16 130.83 122.12 128H122.21C122.77 130.76 123.13 133.55 123.5 136.34C123.86 139.13 124.05 141.94 124.3 144.75C124.81 150.36 125.3 155.97 125.76 161.58H125.67V161.59Z" fill="#0E002B"/>
<path d="M139.061 165.84C138.231 159.48 137.421 153.11 136.631 146.74C136.231 143.56 135.781 140.38 135.491 137.18C135.221 133.98 134.931 130.79 134.841 127.57H134.931C135.541 130.72 135.961 133.9 136.391 137.08C136.801 140.26 137.051 143.46 137.351 146.66C137.971 153.05 138.571 159.44 139.141 165.83H139.051L139.061 165.84Z" fill="#0E002B"/>
<path d="M151.69 160.77C150.99 155.36 150.31 149.94 149.65 144.52C149.31 141.81 148.93 139.11 148.7 136.39C148.5 133.67 148.27 130.95 148.25 128.2H148.34C148.89 130.88 149.24 133.58 149.61 136.29C149.96 139 150.14 141.72 150.38 144.44C150.87 149.88 151.34 155.32 151.79 160.76H151.7L151.69 160.77Z" fill="#0E002B"/>
<path d="M456.99 257.13C456.99 259.45 439.92 255.93 438.23 258.01C436.87 259.68 446.94 274.68 444.65 276.13C442.77 277.32 432.24 262.35 429.82 263.36C427.71 264.24 431.45 282.17 428.99 282.88C426.76 283.52 420.1 266.44 417.63 266.93C415.33 267.39 415.83 285.72 413.36 286.03C411.02 286.32 406.93 268.44 404.46 268.59C402.09 268.73 400.21 286.98 397.74 286.98C395.27 286.98 393.39 268.73 391.02 268.59C388.55 268.44 384.46 286.32 382.11 286.03C379.63 285.72 380.13 267.39 377.84 266.93C375.37 266.44 368.71 283.53 366.48 282.88C364.03 282.17 367.76 264.24 365.65 263.36C363.24 262.35 352.7 277.32 350.82 276.13C348.54 274.68 358.61 259.69 357.25 258.02C355.56 255.94 338.49 259.45 338.49 257.14C338.49 254.83 355.56 258.34 357.25 256.26C358.61 254.59 348.54 239.59 350.83 238.14C352.71 236.95 363.24 251.92 365.66 250.91C367.77 250.03 364.03 232.1 366.49 231.39C368.72 230.75 375.38 247.83 377.85 247.34C380.15 246.88 379.65 228.55 382.12 228.24C384.46 227.95 388.55 245.83 391.02 245.68C393.39 245.54 395.27 227.29 397.74 227.29C400.21 227.29 402.09 245.54 404.46 245.68C406.93 245.83 411.02 227.95 413.37 228.24C415.85 228.55 415.35 246.88 417.64 247.34C420.11 247.83 426.77 230.74 429 231.39C431.45 232.1 427.72 250.03 429.83 250.91C432.24 251.92 442.78 236.95 444.66 238.14C446.94 239.59 436.87 254.58 438.23 256.25C439.92 258.33 456.99 254.82 456.99 257.13Z" fill="#F0C785"/>
</g>
</svg>
