<svg width="787" height="1018" viewBox="0 0 787 1018" fill="none" xmlns="http://www.w3.org/2000/svg">
<path d="M707.19 629.856L694.71 452.406H642.39L707.19 629.856Z" fill="#EAADAC"/>
<path d="M642.39 452.406L682.01 557.336L656.58 452.406H642.39Z" fill="#DE9796"/>
<path d="M388.479 154.386C388.479 154.386 387.89 212.866 426.01 225.426C426.01 225.426 424.069 322.316 365.159 317.386C306.239 312.456 302.729 235.976 302.729 235.976C302.729 235.976 339.439 215.556 339.439 184.156L388.479 154.386Z" fill="#EAADAC"/>
<path d="M397.55 197.816C374.29 219.756 333.95 207.106 332.99 206.786C335.47 202.496 337.44 197.796 338.53 192.756C339.12 189.986 339.45 187.126 339.45 184.156L388.48 154.396C388.48 154.396 388.24 177.526 397.55 197.816Z" fill="#DE9796"/>
<path d="M313.21 42.0659L408.23 49.3859C408.23 49.3859 407.81 54.8659 405.23 88.3659C402.65 121.866 386.48 196.596 334.7 192.606C282.93 188.616 292.68 77.856 292.68 77.856L313.21 42.0659Z" fill="#EAADAC"/>
<path d="M426.653 133.395C434.438 121.758 431.315 106.014 419.678 98.2294C408.041 90.4451 392.297 93.5683 384.513 105.205C376.728 116.842 379.852 132.586 391.488 140.37C403.125 148.154 418.869 145.031 426.653 133.395Z" fill="#EAADAC"/>
<path d="M419.589 110.186C419.079 108.916 418.42 107.706 417.55 106.686C416.7 105.656 415.58 104.846 414.33 104.576L413.859 104.486C413.739 104.516 413.63 104.466 413.51 104.546C413.39 104.586 413.269 104.636 413.159 104.736C413.039 104.806 412.93 104.916 412.82 105.026C412.39 105.466 412.019 106.016 411.709 106.606C411.059 107.766 410.579 109.026 410.099 110.296C409.149 112.826 408.399 115.446 407.659 118.066C406.949 120.696 406.279 123.336 405.679 125.986L404.52 125.636C405.28 123.826 406.18 122.116 407.24 120.476C407.77 119.656 408.36 118.856 409.06 118.146C409.76 117.456 410.549 116.716 411.689 116.506C411.979 116.506 412.27 116.466 412.55 116.506C412.82 116.606 413.119 116.636 413.349 116.816C413.829 117.116 414.189 117.556 414.419 118.016C414.909 118.926 415.109 119.906 415.209 120.876C415.409 122.806 415.35 124.736 415.08 126.636C415.11 124.726 415.049 122.806 414.699 120.956C414.519 120.036 414.25 119.126 413.81 118.366C413.37 117.606 412.629 117.146 411.849 117.326C411.069 117.496 410.38 118.146 409.78 118.816C409.18 119.496 408.649 120.266 408.159 121.056C407.179 122.636 406.369 124.366 405.639 126.086L404.479 125.726C405.659 120.356 407.049 115.036 409.089 109.896C409.619 108.616 410.199 107.356 410.939 106.156C411.299 105.556 411.73 104.966 412.27 104.456C412.41 104.326 412.549 104.206 412.729 104.106C412.889 103.986 413.08 103.906 413.29 103.846C413.48 103.756 413.729 103.796 413.949 103.786L414.49 103.916C415.2 104.106 415.859 104.446 416.399 104.906C416.959 105.346 417.439 105.876 417.839 106.446C418.659 107.576 419.22 108.856 419.58 110.186H419.589Z" fill="#0E002B"/>
<path d="M343.16 93.0962C343.66 91.0462 344.51 89.0561 345.65 87.2461C346.79 85.4361 348.26 83.7562 350.15 82.5762C352.04 81.4062 354.41 80.9062 356.58 81.3562C358.76 81.7862 360.66 82.9462 362.22 84.3462C360.37 83.3362 358.41 82.5562 356.43 82.3262C354.44 82.1162 352.48 82.5962 350.8 83.6462C349.11 84.6762 347.69 86.1761 346.44 87.8061C345.21 89.4561 344.1 91.2262 343.14 93.1062L343.16 93.0962Z" fill="#0E002B"/>
<path d="M372.56 109.986C373.19 113.926 367.23 118.146 359.27 119.406C351.3 120.676 344.34 118.506 343.71 114.566C343.08 110.626 349.04 106.406 357 105.146C364.97 103.876 371.94 106.046 372.56 109.986Z" fill="white"/>
<path d="M365.14 111.576C364.84 115.426 361.49 118.296 357.64 118.006C353.79 117.706 350.92 114.356 351.21 110.506C351.51 106.656 354.86 103.786 358.71 104.076C362.56 104.376 365.43 107.726 365.14 111.576Z" fill="#0E002B"/>
<path d="M343.71 114.576C343.56 113.856 343.6 113.076 343.85 112.356C344.12 111.646 344.49 110.966 344.97 110.376C345.94 109.196 347.16 108.266 348.44 107.486C351.03 105.916 353.95 105.036 356.9 104.526C359.86 104.086 362.92 104.016 365.86 104.706C367.32 105.056 368.77 105.556 370.06 106.376C370.7 106.786 371.26 107.316 371.74 107.906C372.2 108.516 372.48 109.246 372.56 109.976C372.35 109.266 371.98 108.636 371.49 108.126C370.97 107.636 370.4 107.206 369.75 106.906C368.49 106.246 367.09 105.866 365.68 105.656C362.85 105.216 359.94 105.316 357.1 105.766C354.26 106.226 351.47 107.026 348.91 108.326C347.63 108.966 346.42 109.766 345.43 110.776C344.91 111.266 344.49 111.846 344.16 112.476C343.86 113.116 343.7 113.826 343.72 114.576H343.71Z" fill="#0E002B"/>
<path d="M292.56 107.436C291.34 111.236 296.57 116.316 304.25 118.786C311.93 121.256 319.15 120.186 320.37 116.386C321.59 112.586 316.36 107.506 308.68 105.036C301 102.566 293.78 103.636 292.56 107.436Z" fill="white"/>
<path d="M302.75 111.626C302.45 115.466 305.33 118.826 309.18 119.126C313.02 119.426 316.38 116.546 316.68 112.696C316.98 108.846 314.1 105.496 310.25 105.196C306.41 104.896 303.05 107.776 302.75 111.626Z" fill="#0E002B"/>
<path d="M320.37 116.386C320.5 115.656 320.45 114.926 320.25 114.246C320.01 113.576 319.69 112.936 319.25 112.376C318.42 111.216 317.35 110.246 316.18 109.416C313.85 107.746 311.21 106.526 308.48 105.636C305.74 104.766 302.88 104.216 300.02 104.216C298.59 104.216 297.15 104.376 295.81 104.826C295.12 105.026 294.49 105.356 293.91 105.766C293.35 106.206 292.89 106.766 292.57 107.436C292.76 106.726 293.15 106.046 293.7 105.516C294.26 105.006 294.9 104.566 295.59 104.256C296.99 103.646 298.49 103.366 299.99 103.246C303.01 103.016 306.02 103.556 308.88 104.436C311.72 105.386 314.47 106.706 316.79 108.656C317.94 109.626 319 110.726 319.78 112.046C320.17 112.696 320.43 113.436 320.59 114.166C320.72 114.916 320.65 115.696 320.38 116.386H320.37Z" fill="#0E002B"/>
<path d="M298.87 93.9561C299.28 92.1661 300.04 90.4361 301.15 88.9361C302.23 87.4261 303.78 86.1961 305.59 85.6061C307.39 84.9861 309.38 85.0161 311.2 85.4761C312.14 85.6161 313 86.0261 313.9 86.3261C314.72 86.7861 315.62 87.1361 316.35 87.7661C319.52 89.9861 321.29 93.6261 322.24 97.2161C323.21 100.846 323.43 104.596 323.45 108.306C323.44 115.736 322.22 123.056 321.04 130.316C319.83 137.586 318.31 144.796 316.32 151.916L315.82 151.566C319.53 149.016 323.22 146.446 326.95 143.936C323.39 146.686 319.78 149.376 316.19 152.086L315.47 152.636L315.7 151.736C317.5 144.636 318.73 137.376 319.93 130.136C321.06 122.886 322.11 115.596 322.25 108.306C322.27 104.666 322.07 100.996 321.17 97.5061C320.25 94.0661 318.71 90.6261 315.82 88.4861C315.16 87.8861 314.32 87.5361 313.56 87.0761C312.72 86.7861 311.91 86.3561 311.03 86.2061C309.3 85.7261 307.46 85.6561 305.75 86.1461C304.03 86.6261 302.5 87.7161 301.38 89.1461C300.25 90.5661 299.39 92.2261 298.87 93.9861V93.9561Z" fill="#0E002B"/>
<path d="M348.11 150.826C349.49 151.556 350.97 152.006 352.42 152.036C353.87 152.076 355.27 151.676 356.5 150.936C357.77 150.246 358.801 149.136 359.821 148.046C360.271 147.436 360.78 146.876 361.24 146.246C361.68 145.616 362.12 144.976 362.62 144.356C362.38 145.096 362.081 145.826 361.781 146.556C361.441 147.266 361.02 147.946 360.61 148.626C360.14 149.276 359.641 149.906 359.081 150.496C358.481 151.056 357.87 151.596 357.14 152.006C355.72 152.846 353.981 153.266 352.331 152.996C350.691 152.756 349.19 151.956 348.11 150.806V150.826Z" fill="#0E002B"/>
<path d="M429.92 112.156C427.03 102.356 418.34 94.886 407.54 94.046C401.95 93.616 396.64 95.036 392.21 97.796C387.57 85.716 382.49 63.0459 382.49 63.0459C382.49 63.0459 353.71 81.886 343.65 67.526C343.65 67.526 300.85 93.996 275.29 79.636C249.72 65.286 241.64 31.196 243.44 24.026C245.24 16.836 253.76 26.266 253.76 26.266C253.76 26.266 248.37 12.816 256.89 2.49596C265.41 -7.82404 276.51 21.336 312.91 20.886C349.31 20.446 358.28 -2.824 390.12 0.286C421.97 3.396 426.91 27.166 426.91 27.166C426.91 27.166 436.34 15.496 454.72 28.966C473.11 42.416 429.92 112.166 429.92 112.166V112.156Z" fill="#5B5ABB"/>
<path d="M390.34 53.506C389.44 55.786 388.25 57.9461 386.94 60.0161C385.63 62.0961 384.09 64.026 382.38 65.806C380.71 67.626 378.77 69.176 376.76 70.616L375.17 71.5861L374.37 72.066L373.53 72.4661L371.85 73.2661C371.29 73.5361 370.69 73.6961 370.11 73.9161C369.52 74.1161 368.94 74.3561 368.35 74.5161L366.53 74.936C365.32 75.266 364.09 75.376 362.87 75.556C362.26 75.656 361.64 75.7061 361.02 75.7261L359.16 75.816C357.92 75.746 356.67 75.786 355.43 75.556C352.96 75.236 350.49 74.5461 348.33 73.2161C346.18 71.8961 344.29 70.0861 343.29 67.6561L343.94 67.796C341.84 69.826 339.58 71.6261 337.25 73.3461C334.92 75.0561 332.52 76.666 330.02 78.126C327.52 79.576 324.97 80.936 322.33 82.126C319.69 83.296 316.97 84.306 314.21 85.186C303.17 88.636 290.89 88.5661 279.97 84.4061C274.5 82.3861 269.35 79.5761 264.66 76.1061C262.37 74.2961 260.12 72.3961 258.25 70.1061C256.38 67.8361 254.84 65.2261 254.03 62.3561C253.2 59.4961 253.16 56.426 253.84 53.546C254.54 50.666 255.86 48.0061 257.49 45.5861C260.77 40.7461 265.19 36.836 270.01 33.686L270.08 33.796C267.73 35.456 265.54 37.336 263.53 39.376C261.52 41.416 259.63 43.586 258.11 45.996C256.58 48.396 255.37 51.006 254.77 53.756C254.2 56.506 254.31 59.3761 255.14 62.0361C255.97 64.6961 257.46 67.126 259.24 69.296C261.03 71.476 263.22 73.306 265.45 75.066C270.06 78.406 275.09 81.226 280.4 83.256C285.73 85.256 291.36 86.5161 297.07 86.7061C299.92 86.8761 302.78 86.6461 305.63 86.3561C308.47 85.9761 311.28 85.4161 314.05 84.6561C319.57 83.0961 324.88 80.7461 329.8 77.7861C334.72 74.8261 339.35 71.3261 343.37 67.2661L343.78 66.8561L344.03 67.4161C344.96 69.5161 346.8 71.226 348.83 72.376C350.88 73.546 353.2 74.216 355.57 74.496C356.75 74.706 357.96 74.6461 359.15 74.7061C360.35 74.6061 361.55 74.6661 362.75 74.4761C363.94 74.3261 365.15 74.2261 366.31 73.9161L368.07 73.5261C368.65 73.3761 369.21 73.1461 369.78 72.9661C374.33 71.4261 378.45 68.716 381.87 65.296C385.29 61.886 388.17 57.8661 390.23 53.4561L390.35 53.506H390.34Z" fill="#0E002B"/>
<path d="M426.85 27.1458C427.38 24.3058 428.37 21.5458 429.85 19.0358C431.35 16.5558 433.5 14.3157 436.27 13.1157C439.02 11.8757 442.23 11.8057 445.07 12.6157C447.92 13.4357 450.53 14.8358 452.81 16.6358L452.74 16.7457C450.11 15.5757 447.5 14.3958 444.76 13.8458C442.07 13.2458 439.23 13.0457 436.64 14.0557C434.06 15.0357 431.93 17.0357 430.37 19.3757C428.79 21.7157 427.65 24.3958 426.96 27.1658L426.84 27.1458H426.85Z" fill="#0E002B"/>
<path d="M312.92 229.006C312.92 229.006 327.33 293.616 355.37 293.616C383.41 293.616 412.35 217.876 412.35 217.876C412.35 217.876 459.67 237.096 490.17 229.916C520.67 222.736 587.06 195.446 640.89 255.746C694.72 316.046 722.53 452.406 722.53 452.406H573.6L550.27 619.276H227.3L213.84 452.406H81.96C81.96 452.406 133.1 283.746 185.13 242.476C237.16 201.206 280.11 236.156 312.91 228.996L312.92 229.006Z" fill="#E48A59"/>
<path d="M573.59 452.406L592.43 317.566V452.406H573.59Z" fill="#0E002B"/>
<path d="M213.84 452.406L202.18 317.566L191.41 452.406H213.84Z" fill="#0E002B"/>
<path d="M292.62 229.256C293.15 234.106 294.1 238.906 295.2 243.656C296.31 248.406 297.69 253.086 299.3 257.676C302.52 266.856 306.86 275.666 312.56 283.536C318.19 291.426 325.48 298.256 334.11 302.796C338.38 305.156 343.05 306.706 347.77 307.876L351.34 308.656L354.96 309.076C356.16 309.276 357.38 309.206 358.59 309.226C359.8 309.226 361.02 309.286 362.22 309.096C367.07 308.806 371.78 307.396 376.23 305.526C377.32 305.006 378.48 304.616 379.52 303.996L382.7 302.246C384.72 300.916 386.81 299.676 388.7 298.146C390.67 296.736 392.46 295.086 394.3 293.506C396.03 291.806 397.83 290.176 399.45 288.356C401.14 286.606 402.69 284.736 404.28 282.906C405.79 281.006 407.35 279.136 408.76 277.156C420.27 261.446 429.19 243.886 436.21 225.666L436.33 225.706C433.26 234.996 429.37 244.006 424.98 252.766C420.6 261.516 415.65 270.036 409.81 277.926C406.9 281.876 403.82 285.726 400.4 289.266C398.75 291.086 396.91 292.736 395.14 294.436C393.25 296.016 391.43 297.676 389.41 299.096C387.47 300.626 385.35 301.896 383.26 303.196L379.99 304.916C378.92 305.526 377.73 305.906 376.61 306.416C372.04 308.236 367.22 309.576 362.28 309.786C357.37 310.036 352.41 309.586 347.67 308.306C346.46 308.066 345.3 307.686 344.13 307.316C342.97 306.926 341.77 306.646 340.65 306.146L337.23 304.786L333.92 303.176C329.58 300.896 325.49 298.136 321.75 294.936C318 291.746 314.69 288.066 311.73 284.146C305.83 276.246 301.54 267.266 298.4 257.986C295.31 248.676 293.24 239.016 292.51 229.256H292.64H292.62Z" fill="#0E002B"/>
<path d="M438.148 502.633C480.35 469.733 494.7 417.586 470.2 386.161C445.701 354.735 391.629 355.93 349.427 388.83C307.226 421.731 292.875 473.878 317.375 505.303C341.875 536.729 395.947 535.534 438.148 502.633Z" fill="white"/>
<path d="M485.8 373.676C494.09 384.256 498.85 397.376 500.02 410.736C501.2 424.136 499.06 437.696 494.69 450.386C490.32 463.106 483.75 475.016 475.74 485.806C467.7 496.606 458.01 506.096 447.45 514.386C436.8 522.566 425.17 529.516 412.77 534.696C400.37 539.846 387.24 543.316 373.86 544.476C360.51 545.596 346.85 544.486 334.09 540.186C321.37 535.886 309.75 528.076 301.42 517.456C293.09 506.836 288.26 493.666 287.1 480.246C285.94 466.796 288.12 453.196 292.55 440.506C296.98 427.786 303.59 415.886 311.65 405.116C319.74 394.356 329.34 384.786 339.91 376.466C350.55 368.256 362.15 361.206 374.58 356.046C387.01 350.906 400.17 347.456 413.57 346.326C426.94 345.206 440.62 346.406 453.34 350.796C466.03 355.176 477.57 363.046 485.8 373.676ZM485.7 373.756C477.4 363.216 465.85 355.476 453.2 351.216C440.51 346.946 426.91 345.856 413.64 347.106C400.34 348.356 387.31 351.916 375.04 357.126C362.77 362.386 351.22 369.246 340.66 377.426C330.17 385.666 320.63 395.156 312.6 405.816C304.6 416.486 298.03 428.276 293.64 440.866C289.27 453.436 287.02 466.856 288.07 480.156C289.12 493.416 293.8 506.456 301.97 517.026C310.16 527.576 321.64 535.376 334.26 539.716C346.91 544.066 360.53 545.256 373.83 544.006C387.15 542.776 400.2 539.236 412.51 534.036C424.81 528.806 436.34 521.836 446.88 513.636C457.37 505.366 466.82 495.796 474.91 485.166C482.95 474.526 489.57 462.746 494.02 450.146C498.45 437.576 500.74 424.116 499.71 410.766C498.68 397.446 493.93 384.356 485.72 373.756H485.7Z" fill="#0E002B"/>
<path d="M550.27 619.276C550.27 619.276 610.46 837.876 601.79 1017.83H408.49L395.67 848.346L379.73 1017.83H182.1L227.29 619.276H550.26H550.27Z" fill="#383995"/>
<path d="M220.01 644.686L235.11 644.476V645.016L220.01 644.816V644.686Z" fill="#0E002B"/>
<path d="M250.21 644.346L265.32 644.256V645.236L250.21 645.146V644.346Z" fill="#0E002B"/>
<path d="M280.42 644.206C285.45 644.176 290.49 644.176 295.52 644.206V645.296C290.49 645.316 285.45 645.316 280.42 645.296V644.216V644.206Z" fill="#0E002B"/>
<path d="M310.62 644.266L325.72 644.396V645.106L310.62 645.236V644.266Z" fill="#0E002B"/>
<path d="M340.83 644.506L355.93 644.556V644.936L340.83 644.986V644.506Z" fill="#0E002B"/>
<path d="M371.03 644.496L386.13 644.426V645.076L371.03 645.006V644.496Z" fill="#0E002B"/>
<path d="M401.229 644.336L416.33 644.236V645.266L401.229 645.166V644.336Z" fill="#0E002B"/>
<path d="M431.439 644.156L446.54 644.116V645.386L431.439 645.336V644.156Z" fill="#0E002B"/>
<path d="M461.64 644.086L476.74 644.106V645.396L461.64 645.416V644.086Z" fill="#0E002B"/>
<path d="M491.84 644.116L506.95 644.216V645.276L491.84 645.376V644.116Z" fill="#0E002B"/>
<path d="M522.05 644.326L537.15 644.426V645.076L522.05 645.176V644.326Z" fill="#0E002B"/>
<path d="M552.25 644.586L560.46 644.686V644.816L552.25 644.916V644.586Z" fill="#0E002B"/>
<path d="M238.03 296.686L241.34 315.716L247.8 352.876C248.59 357.386 253.2 360.966 258.87 361.476H258.88L274.52 321.816H274.53L276.76 296.926C277.53 288.406 269.45 280.716 258.71 279.746C246.34 278.636 236.31 286.846 238.02 296.686H238.03Z" fill="#EAADAC"/>
<path d="M228.02 280.956C215.65 279.846 205.62 288.056 207.33 297.886L217.1 354.076C217.88 358.586 222.5 362.166 228.17 362.676C234.8 363.276 240.56 359.486 241.03 354.226L246.07 298.126C246.84 289.606 238.75 281.916 228.02 280.946V280.956Z" fill="#EAADAC"/>
<path d="M197.07 280.956C184.7 279.846 174.67 288.056 176.38 297.886L186.15 354.076C186.93 358.586 191.55 362.166 197.22 362.676C203.85 363.276 209.61 359.486 210.08 354.226L215.12 298.126C215.89 289.606 207.8 281.916 197.07 280.946V280.956Z" fill="#EAADAC"/>
<path d="M164.98 280.956C152.61 279.846 142.58 288.056 144.29 297.886L154.06 354.076C154.84 358.586 159.46 362.166 165.13 362.676C171.76 363.276 177.52 359.486 177.99 354.226L183.03 298.126C183.8 289.606 175.71 281.916 164.98 280.946V280.956Z" fill="#EAADAC"/>
<path d="M406.58 325.416H0V343.126H406.58V325.416Z" fill="#5B5ABB"/>
<path d="M99.6697 257.946H49.4297V410.586H99.6697V257.946Z" fill="#5B5ABB"/>
<path d="M49.4302 367.726V300.806C34.0702 300.806 21.6201 313.256 21.6201 328.616V339.916C21.6201 355.276 34.0702 367.726 49.4302 367.726Z" fill="#0E002B"/>
<path d="M99.6699 325.416V343.116H107.74L99.6699 325.416Z" fill="#0E002B"/>
<path d="M83.2302 410.586C82.8102 397.866 82.6803 385.146 82.7703 372.426C82.8503 366.066 83.0603 359.706 83.0703 353.346C83.1303 346.986 83.0502 340.626 82.9402 334.266C82.7102 321.546 82.5901 308.826 82.6401 296.106C82.6601 283.386 82.8402 270.666 83.2302 257.946H83.3601C83.7501 270.666 83.9302 283.386 83.9502 296.106C83.9902 308.826 83.8701 321.546 83.6501 334.266C83.5501 340.626 83.4603 346.986 83.5203 353.346C83.5403 359.706 83.7403 366.066 83.8203 372.426C83.9103 385.146 83.7901 397.866 83.3601 410.586H83.2302Z" fill="white"/>
<path d="M65.74 410.586C65.32 397.866 65.19 385.146 65.28 372.426C65.36 366.066 65.5701 359.706 65.5801 353.346C65.6401 346.986 65.5599 340.626 65.4499 334.266C65.2199 321.546 65.0999 308.826 65.1499 296.106C65.1699 283.386 65.35 270.666 65.74 257.946H65.8699C66.2599 270.666 66.44 283.386 66.46 296.106C66.5 308.826 66.3799 321.546 66.1599 334.266C66.0599 340.626 65.97 346.986 66.03 353.346C66.05 359.706 66.2501 366.066 66.3301 372.426C66.4201 385.146 66.2999 397.866 65.8699 410.586H65.74Z" fill="white"/>
<path d="M303.6 410.586H353.84V257.946H303.6V410.586Z" fill="#5B5ABB"/>
<path d="M353.84 300.806C369.19 300.806 381.65 313.266 381.65 328.616V339.916C381.65 355.266 369.19 367.726 353.84 367.726V300.806Z" fill="#0E002B"/>
<path d="M303.6 325.416V343.116H295.53L303.6 325.416Z" fill="#0E002B"/>
<path d="M319.91 410.586C319.49 397.866 319.36 385.146 319.45 372.426C319.53 366.066 319.74 359.706 319.75 353.346C319.81 346.986 319.73 340.626 319.62 334.266C319.39 321.546 319.27 308.826 319.32 296.106C319.34 283.386 319.52 270.666 319.91 257.946H320.04C320.43 270.666 320.61 283.386 320.63 296.106C320.67 308.826 320.55 321.546 320.33 334.266C320.23 340.626 320.14 346.986 320.2 353.346C320.22 359.706 320.42 366.066 320.5 372.426C320.59 385.146 320.47 397.866 320.04 410.586H319.91Z" fill="white"/>
<path d="M337.4 410.586C336.98 397.866 336.85 385.146 336.94 372.426C337.02 366.066 337.23 359.706 337.24 353.346C337.3 346.986 337.22 340.626 337.11 334.266C336.88 321.546 336.76 308.826 336.81 296.106C336.83 283.386 337.01 270.666 337.4 257.946H337.53C337.92 270.666 338.1 283.386 338.12 296.106C338.16 308.826 338.04 321.546 337.82 334.266C337.72 340.626 337.63 346.986 337.69 353.346C337.71 359.706 337.91 366.066 337.99 372.426C338.08 385.146 337.96 397.866 337.53 410.586H337.4Z" fill="white"/>
<path d="M146.15 384.006L83.32 551.976C66.05 598.156 95.2999 648.596 143.95 656.546C189.66 664.016 231.81 630.336 234.6 584.096L246.12 393.826L146.15 384.016V384.006Z" fill="#EAADAC"/>
<path d="M246.12 393.816L274.53 321.806L144.28 297.886L146.15 387.156L246.12 393.816Z" fill="#EAADAC"/>
<path d="M176.1 354.706C183.73 344.916 182.27 332.026 173.08 328.136L120.55 305.906C116.34 304.126 110.82 306.056 107.32 310.546C103.23 315.796 103.29 322.686 107.45 325.936L151.87 360.576C158.62 365.836 169.46 363.206 176.09 354.706H176.1Z" fill="#EAADAC"/>
<path d="M179.24 287.586C179.71 293.276 180.141 298.976 180.541 304.666C180.751 307.516 181.04 310.356 181.1 313.216C181.13 316.076 181.18 318.926 180.97 321.796H180.84C180.34 318.966 180.1 316.126 179.84 313.276C179.61 310.426 179.611 307.576 179.531 304.716C179.351 299.006 179.21 293.296 179.11 287.586H179.24Z" fill="#0E002B"/>
<path d="M210.34 287.586C210.81 293.276 211.24 298.976 211.64 304.666C211.85 307.516 212.14 310.356 212.2 313.216C212.23 316.076 212.28 318.926 212.07 321.796H211.94C211.44 318.966 211.2 316.126 210.94 313.276C210.71 310.426 210.71 307.576 210.63 304.716C210.45 299.006 210.31 293.296 210.21 287.586H210.34Z" fill="#0E002B"/>
<path d="M240.21 286.346C240.68 292.036 241.11 297.736 241.51 303.426C241.72 306.276 242.01 309.116 242.07 311.976C242.1 314.836 242.15 317.686 241.94 320.556H241.81C241.31 317.726 241.07 314.886 240.81 312.036C240.58 309.186 240.58 306.336 240.5 303.476C240.32 297.766 240.18 292.056 240.08 286.346H240.21Z" fill="#0E002B"/>
<path d="M81.96 555.926L99.6699 452.406H120.56L81.96 555.926Z" fill="#EAADAC"/>
<path d="M120.56 452.406H107.74L89.8203 534.866L120.56 452.406Z" fill="#DE9796"/>
<path d="M548.28 358.116L544.97 377.146L538.51 414.306C537.72 418.816 533.11 422.396 527.44 422.906H527.43L511.79 383.246H511.78L509.55 358.356C508.78 349.836 516.86 342.146 527.6 341.176C539.97 340.066 550 348.276 548.29 358.116H548.28Z" fill="#EAADAC"/>
<path d="M558.289 342.396C570.659 341.286 580.689 349.496 578.979 359.326L569.209 415.516C568.429 420.026 563.809 423.606 558.139 424.116C551.509 424.716 545.749 420.926 545.279 415.666L540.239 359.566C539.469 351.046 547.559 343.356 558.289 342.386V342.396Z" fill="#EAADAC"/>
<path d="M589.239 342.396C601.609 341.286 611.639 349.496 609.929 359.326L600.159 415.516C599.379 420.026 594.759 423.606 589.089 424.116C582.459 424.716 576.699 420.926 576.229 415.666L571.189 359.566C570.419 351.046 578.509 343.356 589.239 342.386V342.396Z" fill="#EAADAC"/>
<path d="M621.329 342.396C633.699 341.286 643.729 349.496 642.019 359.326L632.249 415.516C631.469 420.026 626.849 423.606 621.179 424.116C614.549 424.716 608.789 420.926 608.319 415.666L603.279 359.566C602.509 351.046 610.599 343.356 621.329 342.386V342.396Z" fill="#EAADAC"/>
<path d="M379.729 404.556L786.31 404.556V386.846L379.729 386.846V404.556Z" fill="#5B5ABB"/>
<path d="M686.64 472.026H736.88V319.386H686.64V472.026Z" fill="#5B5ABB"/>
<path d="M736.88 429.166V362.246C752.24 362.246 764.69 374.696 764.69 390.056V401.356C764.69 416.716 752.24 429.166 736.88 429.166Z" fill="#0E002B"/>
<path d="M686.639 386.856V404.556H678.56L686.639 386.856Z" fill="#0E002B"/>
<path d="M702.95 472.026C702.53 459.306 702.4 446.586 702.49 433.866C702.57 427.506 702.78 421.146 702.79 414.786C702.85 408.426 702.77 402.066 702.66 395.706C702.43 382.986 702.31 370.266 702.36 357.546C702.38 344.826 702.56 332.106 702.95 319.386H703.08C703.47 332.106 703.65 344.826 703.67 357.546C703.71 370.266 703.59 382.986 703.37 395.706C703.27 402.066 703.18 408.426 703.24 414.786C703.26 421.146 703.46 427.506 703.54 433.866C703.63 446.586 703.51 459.306 703.08 472.026H702.95Z" fill="white"/>
<path d="M720.439 472.026C720.019 459.306 719.889 446.586 719.979 433.866C720.059 427.506 720.269 421.146 720.279 414.786C720.339 408.426 720.259 402.066 720.149 395.706C719.919 382.986 719.799 370.266 719.849 357.546C719.869 344.826 720.049 332.106 720.439 319.386H720.569C720.959 332.106 721.139 344.826 721.159 357.546C721.199 370.266 721.079 382.986 720.859 395.706C720.759 402.066 720.669 408.426 720.729 414.786C720.749 421.146 720.949 427.506 721.029 433.866C721.119 446.586 720.999 459.306 720.569 472.026H720.439Z" fill="white"/>
<path d="M482.71 319.386H432.47V472.026H482.71V319.386Z" fill="#5B5ABB"/>
<path d="M432.46 429.166C417.11 429.166 404.65 416.706 404.65 401.356V390.056C404.65 374.706 417.11 362.246 432.46 362.246V429.176V429.166Z" fill="#0E002B"/>
<path d="M482.71 386.856V404.556H490.78L482.71 386.856Z" fill="#0E002B"/>
<path d="M466.269 472.026C465.849 459.306 465.719 446.586 465.809 433.866C465.889 427.506 466.099 421.146 466.109 414.786C466.169 408.426 466.089 402.066 465.979 395.706C465.749 382.986 465.629 370.266 465.679 357.546C465.699 344.826 465.879 332.106 466.269 319.386H466.399C466.789 332.106 466.969 344.826 466.989 357.546C467.029 370.266 466.909 382.986 466.689 395.706C466.589 402.066 466.499 408.426 466.559 414.786C466.579 421.146 466.779 427.506 466.859 433.866C466.949 446.586 466.829 459.306 466.399 472.026H466.269Z" fill="white"/>
<path d="M448.78 472.026C448.36 459.306 448.23 446.586 448.32 433.866C448.4 427.506 448.61 421.146 448.62 414.786C448.68 408.426 448.6 402.066 448.49 395.706C448.26 382.986 448.14 370.266 448.19 357.546C448.21 344.826 448.39 332.106 448.78 319.386H448.91C449.3 332.106 449.48 344.826 449.5 357.546C449.54 370.266 449.42 382.986 449.2 395.706C449.1 402.066 449.01 408.426 449.07 414.786C449.09 421.146 449.29 427.506 449.37 433.866C449.46 446.586 449.34 459.306 448.91 472.026H448.78Z" fill="white"/>
<path d="M640.159 445.436L702.99 613.406C720.26 659.586 691.009 710.026 642.359 717.976C596.649 725.446 554.499 691.766 551.709 645.526L540.189 455.256L640.159 445.446V445.436Z" fill="#EAADAC"/>
<path d="M540.179 455.256L511.77 383.236L642.02 359.326L640.159 448.596L540.179 455.256Z" fill="#EAADAC"/>
<path d="M610.199 416.146C602.569 406.356 604.029 393.466 613.219 389.576L665.749 367.346C669.959 365.566 675.479 367.496 678.979 371.986C683.069 377.236 683.009 384.126 678.849 387.376L634.429 422.016C627.679 427.276 616.839 424.656 610.209 416.146H610.199Z" fill="#EAADAC"/>
<path d="M607.19 349.036C607.08 354.746 606.94 360.456 606.77 366.166C606.69 369.016 606.69 371.876 606.46 374.726C606.2 377.576 605.97 380.416 605.46 383.246H605.33C605.11 380.366 605.17 377.516 605.2 374.656C605.26 371.806 605.55 368.956 605.76 366.106C606.16 360.406 606.59 354.716 607.06 349.026H607.19V349.036Z" fill="#0E002B"/>
<path d="M576.1 349.036C575.99 354.746 575.85 360.456 575.68 366.166C575.6 369.016 575.6 371.876 575.37 374.726C575.11 377.576 574.88 380.416 574.37 383.246H574.24C574.02 380.366 574.08 377.516 574.11 374.656C574.17 371.806 574.46 368.956 574.67 366.106C575.07 360.406 575.5 354.716 575.97 349.026H576.1V349.036Z" fill="#0E002B"/>
<path d="M546.23 347.786C546.12 353.496 545.98 359.206 545.81 364.916C545.73 367.766 545.73 370.626 545.5 373.476C545.24 376.316 545.01 379.166 544.5 381.996H544.37C544.15 379.116 544.21 376.266 544.24 373.406C544.3 370.556 544.59 367.706 544.8 364.856C545.2 359.156 545.63 353.466 546.1 347.776H546.23V347.786Z" fill="#0E002B"/>
</svg>
