<svg width="201" height="190" viewBox="0 0 201 190" fill="none" xmlns="http://www.w3.org/2000/svg">
<path d="M180.18 160.472L176.99 115.262H163.67L180.18 160.472Z" fill="#EAADAC"/>
<path d="M163.67 115.262L173.76 141.992L167.28 115.262H163.67Z" fill="#DE9796"/>
<path d="M98.98 39.3423C98.98 39.3423 98.8298 54.2423 108.54 57.4423C108.54 57.4423 108.05 82.1223 93.0398 80.8723C78.0298 79.6123 77.1299 60.1323 77.1299 60.1323C77.1299 60.1323 86.48 54.9323 86.48 46.9323L98.97 39.3423H98.98Z" fill="#EAADAC"/>
<path d="M101.29 50.4023C95.3598 55.9923 85.0898 52.7723 84.8398 52.6923C85.4698 51.6023 85.97 50.4023 86.25 49.1123C86.4 48.4023 86.48 47.6823 86.48 46.9223L98.97 39.3423C98.97 39.3423 98.9098 45.2323 101.28 50.4023H101.29Z" fill="#DE9796"/>
<path d="M79.7996 10.7227L104.01 12.5826C104.01 12.5826 103.9 13.9826 103.25 22.5126C102.59 31.0426 98.4696 50.0826 85.2796 49.0726C72.0896 48.0526 74.5796 19.8427 74.5796 19.8427L79.8096 10.7227H79.7996Z" fill="#EAADAC"/>
<path d="M109.78 30.9026C109.51 34.4626 106.4 37.1226 102.84 36.8426C99.2801 36.5726 96.6201 33.4626 96.9001 29.9026C97.1801 26.3426 100.28 23.6826 103.84 23.9626C107.4 24.2326 110.06 27.3426 109.78 30.9026Z" fill="#EAADAC"/>
<path d="M106.9 28.0724C106.77 27.7524 106.6 27.4425 106.38 27.1825C106.16 26.9225 105.88 26.7124 105.56 26.6424L105.44 26.6225C105.44 26.6225 105.38 26.6224 105.35 26.6324C105.32 26.6324 105.29 26.6525 105.26 26.6825C105.23 26.7025 105.2 26.7324 105.17 26.7524C105.06 26.8624 104.97 27.0025 104.89 27.1525C104.73 27.4525 104.6 27.7725 104.48 28.0925C104.24 28.7425 104.05 29.4024 103.86 30.0724C103.68 30.7424 103.51 31.4125 103.36 32.0925L103.06 32.0024C103.25 31.5424 103.48 31.1024 103.75 30.6924C103.88 30.4824 104.03 30.2825 104.21 30.1025C104.39 29.9225 104.59 29.7425 104.88 29.6825C104.95 29.6825 105.03 29.6725 105.1 29.6825C105.17 29.7125 105.25 29.7124 105.3 29.7624C105.42 29.8424 105.51 29.9524 105.57 30.0724C105.69 30.3024 105.751 30.5525 105.771 30.8025C105.821 31.2925 105.8 31.7825 105.74 32.2725C105.74 31.7825 105.74 31.2924 105.64 30.8224C105.59 30.5924 105.53 30.3525 105.41 30.1625C105.3 29.9725 105.11 29.8525 104.91 29.9025C104.71 29.9425 104.53 30.1125 104.38 30.2825C104.23 30.4525 104.09 30.6525 103.97 30.8525C103.72 31.2525 103.51 31.6924 103.33 32.1324L103.03 32.0425C103.33 30.6725 103.68 29.3224 104.2 28.0124C104.33 27.6824 104.48 27.3624 104.67 27.0624C104.76 26.9124 104.87 26.7624 105.01 26.6324C105.04 26.6024 105.08 26.5725 105.13 26.5425C105.17 26.5125 105.221 26.4925 105.271 26.4725C105.321 26.4525 105.38 26.4625 105.44 26.4625L105.58 26.4925C105.76 26.5425 105.93 26.6325 106.07 26.7425C106.21 26.8525 106.33 26.9924 106.44 27.1324C106.65 27.4224 106.79 27.7525 106.88 28.0825L106.9 28.0724Z" fill="#0E002B"/>
<path d="M87.4297 23.7224C87.5597 23.2024 87.7696 22.6924 88.0596 22.2324C88.3496 21.7724 88.7297 21.3424 89.2097 21.0424C89.6897 20.7424 90.2896 20.6124 90.8496 20.7324C91.4096 20.8424 91.8896 21.1324 92.2896 21.4924C91.8196 21.2324 91.3196 21.0324 90.8096 20.9824C90.2996 20.9324 89.7996 21.0523 89.3796 21.3223C88.9496 21.5823 88.5898 21.9723 88.2698 22.3823C87.9598 22.8023 87.6697 23.2524 87.4297 23.7324V23.7224Z" fill="#0E002B"/>
<path d="M94.9202 28.0227C95.0802 29.0227 93.5601 30.1027 91.5301 30.4227C89.5001 30.7427 87.7302 30.1927 87.5702 29.1927C87.4102 28.1927 88.9303 27.1127 90.9603 26.7927C92.9903 26.4727 94.7602 27.0227 94.9202 28.0227Z" fill="white"/>
<path d="M93.03 28.4327C92.95 29.4127 92.1001 30.1427 91.1201 30.0727C90.1401 29.9927 89.4102 29.1427 89.4802 28.1627C89.5602 27.1827 90.4101 26.4527 91.3901 26.5227C92.3701 26.6027 93.1 27.4527 93.03 28.4327Z" fill="#0E002B"/>
<path d="M87.5699 29.1924C87.5299 29.0124 87.5399 28.8124 87.5999 28.6224C87.6699 28.4424 87.76 28.2724 87.89 28.1224C88.14 27.8224 88.4501 27.5824 88.7701 27.3824C89.4301 26.9824 90.17 26.7624 90.93 26.6324C91.68 26.5224 92.46 26.5024 93.21 26.6824C93.58 26.7724 93.9498 26.9024 94.2798 27.1124C94.4398 27.2124 94.59 27.3524 94.71 27.5024C94.83 27.6624 94.9 27.8424 94.92 28.0324C94.87 27.8524 94.77 27.6924 94.65 27.5624C94.52 27.4324 94.37 27.3324 94.21 27.2524C93.89 27.0824 93.53 26.9924 93.17 26.9324C92.45 26.8224 91.71 26.8424 90.98 26.9624C90.26 27.0824 89.54 27.2824 88.89 27.6124C88.57 27.7724 88.2601 27.9824 88.0001 28.2424C87.8701 28.3624 87.76 28.5124 87.68 28.6724C87.6 28.8324 87.5599 29.0124 87.5699 29.2024V29.1924Z" fill="#0E002B"/>
<path d="M74.54 27.3723C74.23 28.3423 75.5602 29.6322 77.5202 30.2622C79.4802 30.8922 81.32 30.6222 81.63 29.6522C81.94 28.6822 80.6101 27.3922 78.6501 26.7622C76.6901 26.1322 74.85 26.4023 74.54 27.3723Z" fill="white"/>
<path d="M77.1397 28.4423C77.0597 29.4223 77.7996 30.2723 78.7796 30.3523C79.7596 30.4323 80.6098 29.6923 80.6898 28.7123C80.7698 27.7323 80.0296 26.8723 79.0496 26.8023C78.0696 26.7223 77.2197 27.4623 77.1397 28.4423Z" fill="#0E002B"/>
<path d="M81.6199 29.6523C81.6499 29.4623 81.6398 29.2823 81.5898 29.1123C81.5298 28.9423 81.4498 28.7823 81.3398 28.6323C81.1298 28.3423 80.8598 28.0923 80.5598 27.8823C79.9698 27.4523 79.2899 27.1423 78.5999 26.9223C77.8999 26.7023 77.1699 26.5623 76.4399 26.5623C76.0799 26.5623 75.7099 26.6023 75.3699 26.7223C75.1999 26.7723 75.0299 26.8523 74.8899 26.9623C74.7499 27.0723 74.6298 27.2123 74.5498 27.3823C74.5998 27.2023 74.6998 27.0323 74.8398 26.8923C74.9798 26.7623 75.1398 26.6523 75.3198 26.5723C75.6798 26.4123 76.0599 26.3423 76.4399 26.3123C77.2099 26.2523 77.98 26.3923 78.7 26.6123C79.42 26.8523 80.13 27.1923 80.72 27.6823C81.01 27.9323 81.28 28.2123 81.48 28.5423C81.58 28.7123 81.6499 28.8923 81.6899 29.0823C81.7199 29.2723 81.6999 29.4723 81.6399 29.6423L81.6199 29.6523Z" fill="#0E002B"/>
<path d="M76.1504 23.9425C76.2504 23.4825 76.4505 23.0425 76.7305 22.6625C77.0105 22.2725 77.4004 21.9625 77.8604 21.8125C78.3204 21.6525 78.8303 21.6625 79.2903 21.7825C79.5303 21.8225 79.7505 21.9225 79.9805 22.0025C80.1905 22.1225 80.4203 22.2126 80.6003 22.3726C81.4103 22.9426 81.8603 23.8625 82.1003 24.7825C82.3503 25.7125 82.4004 26.6625 82.4104 27.6025C82.4104 29.4925 82.1003 31.3625 81.8003 33.2125C81.4903 35.0625 81.1003 36.9025 80.6003 38.7125L80.4705 38.6226C81.4105 37.9726 82.3603 37.3226 83.3103 36.6826C82.4003 37.3826 81.4803 38.0625 80.5703 38.7625L80.3904 38.9025L80.4504 38.6725C80.9104 36.8625 81.2203 35.0125 81.5303 33.1725C81.8203 31.3225 82.0804 29.4725 82.1204 27.6125C82.1204 26.6825 82.0803 25.7525 81.8503 24.8625C81.6203 23.9825 81.2205 23.1125 80.4905 22.5625C80.3205 22.4125 80.1104 22.3225 79.9104 22.2025C79.7004 22.1325 79.4905 22.0225 79.2605 21.9825C78.8205 21.8625 78.3504 21.8425 77.9104 21.9725C77.4704 22.0925 77.0803 22.3725 76.8003 22.7325C76.5103 23.0925 76.2904 23.5125 76.1604 23.9625L76.1504 23.9425Z" fill="#0E002B"/>
<path d="M88.6904 38.4327C89.0404 38.6227 89.4203 38.7327 89.7903 38.7427C90.1603 38.7527 90.5203 38.6527 90.8303 38.4627C91.1503 38.2827 91.4104 38.0027 91.6804 37.7227C91.7904 37.5727 91.9303 37.4227 92.0403 37.2627C92.1503 37.1027 92.2604 36.9427 92.3904 36.7827C92.3304 36.9727 92.2504 37.1527 92.1704 37.3427C92.0804 37.5227 91.9804 37.6927 91.8704 37.8727C91.7504 38.0327 91.6205 38.2027 91.4805 38.3527C91.3305 38.4927 91.1705 38.6327 90.9905 38.7427C90.6305 38.9627 90.1805 39.0627 89.7605 38.9927C89.3405 38.9327 88.9604 38.7327 88.6904 38.4327Z" fill="#0E002B"/>
<path d="M109.53 28.5824C108.79 26.0824 106.58 24.1825 103.83 23.9725C102.41 23.8625 101.05 24.2225 99.9197 24.9325C98.7397 21.8525 97.4397 16.0824 97.4397 16.0824C97.4397 16.0824 90.1096 20.8825 87.5496 17.2225C87.5496 17.2225 76.6497 23.9625 70.1297 20.3025C63.6097 16.6425 61.5598 7.96243 62.0198 6.13243C62.4798 4.30243 64.6497 6.70244 64.6497 6.70244C64.6497 6.70244 63.2797 3.27244 65.4497 0.642444C67.6197 -1.98756 70.4498 5.44244 79.7198 5.32244C88.9898 5.21244 91.2797 -0.717563 99.3897 0.0724367C107.5 0.862437 108.76 6.92247 108.76 6.92247C108.76 6.92247 111.16 3.95243 115.85 7.38243C120.53 10.8124 109.53 28.5824 109.53 28.5824Z" fill="#5B5ABB"/>
<path d="M99.4502 13.6325C99.2202 14.2125 98.92 14.7625 98.58 15.2925C98.25 15.8225 97.8501 16.3125 97.4201 16.7725C96.9901 17.2325 96.5002 17.6325 95.9902 18.0025L95.59 18.2525L95.3901 18.3726L95.1801 18.4725L94.7502 18.6725C94.6102 18.7425 94.45 18.7825 94.31 18.8425C94.16 18.8925 94.0101 18.9526 93.8601 18.9926L93.4001 19.1025C93.0901 19.1825 92.7802 19.2125 92.4702 19.2625C92.3102 19.2925 92.1602 19.3026 92.0002 19.3026L91.53 19.3225C91.21 19.3025 90.9 19.3225 90.58 19.2525C89.95 19.1725 89.3202 18.9925 88.7702 18.6525C88.2202 18.3125 87.7402 17.8525 87.4902 17.2325L87.6601 17.2725C87.1201 17.7925 86.5502 18.2526 85.9502 18.6826C85.3602 19.1226 84.7401 19.5325 84.1101 19.9025C83.4701 20.2725 82.8201 20.6225 82.1501 20.9225C81.4801 21.2225 80.79 21.4825 80.08 21.7025C77.27 22.5825 74.1401 22.5625 71.3601 21.5025C69.9701 20.9925 68.6602 20.2725 67.4602 19.3825C66.8802 18.9225 66.3 18.4425 65.83 17.8525C65.35 17.2725 64.9602 16.6125 64.7602 15.8825C64.5502 15.1525 64.5402 14.3725 64.7102 13.6425C64.8902 12.9125 65.2301 12.2325 65.6401 11.6125C66.4801 10.3825 67.6 9.38252 68.83 8.58252L68.8501 8.61255C68.2501 9.03255 67.6901 9.51253 67.1801 10.0325C66.6701 10.5525 66.19 11.1025 65.8 11.7225C65.41 12.3325 65.1002 13.0025 64.9502 13.7025C64.8002 14.4025 64.83 15.1325 65.04 15.8125C65.25 16.4925 65.63 17.1125 66.08 17.6625C66.54 18.2225 67.0901 18.6825 67.6601 19.1325C68.8301 19.9825 70.1102 20.7025 71.4702 21.2225C72.8302 21.7325 74.2602 22.0525 75.7202 22.1025C76.4502 22.1425 77.1801 22.0925 77.9001 22.0125C78.6201 21.9125 79.34 21.7725 80.04 21.5825C81.45 21.1825 82.8 20.5825 84.05 19.8325C85.3 19.0825 86.4802 18.1825 87.5102 17.1525L87.6101 17.0425L87.6701 17.1826C87.9101 17.7126 88.3801 18.1525 88.8901 18.4425C89.4101 18.7425 90.0001 18.9125 90.6101 18.9825C90.9101 19.0325 91.2202 19.0225 91.5202 19.0325C91.8302 19.0025 92.1301 19.0325 92.4401 18.9725C92.7401 18.9325 93.0501 18.9125 93.3501 18.8325L93.8 18.7325C93.95 18.6925 94.0902 18.6325 94.2402 18.5925C95.4002 18.2025 96.45 17.5125 97.32 16.6425C98.19 15.7725 98.9202 14.7526 99.4502 13.6226H99.4802L99.4502 13.6325Z" fill="#0E002B"/>
<path d="M108.75 6.92269C108.88 6.20269 109.14 5.49268 109.52 4.85268C109.9 4.22268 110.45 3.65267 111.16 3.34267C111.86 3.02267 112.68 3.01266 113.4 3.21266C114.13 3.42266 114.79 3.78268 115.37 4.23268L115.35 4.26265C114.68 3.96265 114.02 3.66266 113.32 3.52266C112.63 3.37266 111.91 3.32265 111.25 3.57265C110.59 3.82265 110.05 4.3327 109.65 4.9327C109.25 5.5327 108.96 6.21269 108.78 6.92269H108.75Z" fill="#0E002B"/>
<path d="M79.7305 58.3425C79.7305 58.3425 83.4003 74.8026 90.5403 74.8026C97.6803 74.8026 105.06 55.5025 105.06 55.5025C105.06 55.5025 117.11 60.4025 124.89 58.5725C132.66 56.7425 149.57 49.7925 163.29 65.1525C177 80.5125 184.09 115.253 184.09 115.253H146.15L140.21 157.763H57.9304L54.5005 115.253H20.9004C20.9004 115.253 33.9304 72.2825 47.1804 61.7725C60.4404 51.2625 71.3805 60.1625 79.7405 58.3425H79.7305Z" fill="#E48A59"/>
<path d="M146.14 115.263L150.94 80.9126V115.263H146.14Z" fill="#0E002B"/>
<path d="M54.4805 115.263L51.5105 80.9126L48.7705 115.263H54.4805Z" fill="#0E002B"/>
<path d="M74.5503 58.4125C74.6803 59.6525 74.9304 60.8725 75.2104 62.0825C75.4904 63.2925 75.8505 64.4825 76.2505 65.6525C77.0705 67.9925 78.1804 70.2325 79.6304 72.2425C81.0604 74.2525 82.9204 75.9925 85.1204 77.1525C86.2104 77.7525 87.4003 78.1524 88.6003 78.4424L89.5105 78.6425L90.4304 78.7524C90.7404 78.8024 91.0504 78.7825 91.3604 78.7925C91.6704 78.7925 91.9803 78.8125 92.2803 78.7625C93.5203 78.6925 94.7203 78.3325 95.8503 77.8525C96.1303 77.7225 96.4204 77.6225 96.6904 77.4625L97.5005 77.0125C98.0205 76.6725 98.5503 76.3525 99.0303 75.9725C99.5303 75.6125 99.9904 75.1925 100.46 74.7925C100.9 74.3625 101.361 73.9425 101.771 73.4825C102.201 73.0325 102.6 72.5625 103 72.0925C103.38 71.6025 103.78 71.1325 104.14 70.6225C107.07 66.6225 109.34 62.1424 111.13 57.5024H111.16C110.38 59.8824 109.391 62.1725 108.271 64.4025C107.151 66.6325 105.89 68.8024 104.4 70.8124C103.66 71.8224 102.87 72.8025 102 73.7025C101.58 74.1625 101.11 74.5825 100.66 75.0225C100.18 75.4225 99.7104 75.8525 99.2004 76.2125C98.7104 76.6025 98.1704 76.9225 97.6304 77.2625L96.8003 77.7025C96.5303 77.8625 96.2204 77.9525 95.9404 78.0825C94.7804 78.5425 93.5503 78.8924 92.2903 78.9424C91.0403 79.0024 89.7703 78.8924 88.5703 78.5624C88.2603 78.5024 87.9704 78.4024 87.6704 78.3124C87.3704 78.2124 87.0703 78.1425 86.7803 78.0125L85.9104 77.6625L85.0703 77.2524C83.9603 76.6724 82.9205 75.9725 81.9705 75.1525C81.0205 74.3425 80.1704 73.4025 79.4204 72.4025C77.9204 70.3925 76.8205 68.1025 76.0205 65.7325C75.2305 63.3625 74.7005 60.9025 74.5205 58.4125H74.5503Z" fill="#0E002B"/>
<path d="M111.662 128.178C122.412 119.797 126.067 106.514 119.825 98.5079C113.584 90.5023 99.8103 90.8063 89.0606 99.1867C78.311 107.567 74.6561 120.851 80.8973 128.856C87.1385 136.862 100.912 136.558 111.662 128.178Z" fill="#F0C785"/>
<path d="M123.77 95.2024C125.88 97.9024 127.09 101.242 127.39 104.642C127.69 108.052 127.15 111.512 126.03 114.742C124.92 117.982 123.24 121.012 121.2 123.762C119.15 126.512 116.68 128.932 113.99 131.042C111.28 133.132 108.31 134.902 105.16 136.222C102 137.532 98.6598 138.422 95.2498 138.712C91.8498 139.002 88.3697 138.712 85.1197 137.622C81.8797 136.522 78.9196 134.532 76.7996 131.832C74.6796 129.122 73.4497 125.772 73.1497 122.352C72.8597 118.922 73.4096 115.462 74.5396 112.222C75.6696 108.982 77.3497 105.952 79.4097 103.202C81.4697 100.462 83.9197 98.0224 86.6097 95.9024C89.3197 93.8124 92.2798 92.0124 95.4398 90.7024C98.6098 89.3924 101.96 88.5124 105.37 88.2224C108.78 87.9324 112.26 88.2425 115.5 89.3625C118.73 90.4825 121.67 92.4824 123.77 95.1924V95.2024ZM123.75 95.2224C121.64 92.5324 118.69 90.5625 115.47 89.4825C112.24 88.3925 108.77 88.1125 105.39 88.4325C102 88.7525 98.6796 89.6625 95.5596 90.9825C92.4396 92.3225 89.4896 94.0724 86.7996 96.1524C84.1296 98.2524 81.6997 100.672 79.6497 103.382C77.6097 106.102 75.9397 109.102 74.8197 112.312C73.7097 115.512 73.1297 118.932 73.3997 122.322C73.6697 125.702 74.8598 129.022 76.9398 131.712C79.0298 134.402 81.9498 136.392 85.1698 137.492C88.3898 138.602 91.8598 138.902 95.2498 138.582C98.6398 138.272 101.97 137.372 105.1 136.042C108.23 134.712 111.17 132.932 113.86 130.842C116.53 128.732 118.94 126.292 121 123.592C123.05 120.882 124.74 117.882 125.87 114.672C127 111.472 127.58 108.042 127.32 104.642C127.06 101.252 125.85 97.9124 123.76 95.2124L123.75 95.2224Z" fill="#0E002B"/>
<path d="M140.2 157.772C140.2 157.772 146.68 170.262 146.68 188.402H49.1602L57.9202 157.772H140.2Z" fill="#383995"/>
<path d="M56.0596 164.252L59.8997 164.202V164.332L56.0596 164.282V164.252Z" fill="#0E002B"/>
<path d="M63.75 164.162L67.5999 164.142V164.392L63.75 164.372V164.162Z" fill="#0E002B"/>
<path d="M71.4502 164.132C72.7302 164.132 74.01 164.132 75.3 164.132V164.412C74.02 164.412 72.7402 164.412 71.4502 164.412V164.132Z" fill="#0E002B"/>
<path d="M79.1396 164.142L82.9897 164.172V164.352L79.1396 164.392V164.142Z" fill="#0E002B"/>
<path d="M86.8398 164.202L90.6799 164.222V164.312L86.8398 164.332V164.202Z" fill="#0E002B"/>
<path d="M94.5293 164.202L98.3794 164.182V164.352L94.5293 164.332V164.202Z" fill="#0E002B"/>
<path d="M102.229 164.162L106.069 164.132V164.392L102.229 164.372V164.162Z" fill="#0E002B"/>
<path d="M109.92 164.112L113.77 164.102V164.422L109.92 164.412V164.112Z" fill="#0E002B"/>
<path d="M117.62 164.092L121.46 164.102V164.432H117.62V164.092Z" fill="#0E002B"/>
<path d="M125.31 164.102L129.16 164.132V164.402L125.31 164.422V164.102Z" fill="#0E002B"/>
<path d="M133.01 164.152L136.85 164.182V164.352L133.01 164.372V164.152Z" fill="#0E002B"/>
<path d="M140.7 164.222L142.79 164.252V164.282L140.7 164.312V164.222Z" fill="#0E002B"/>
<path d="M60.6502 75.5925L61.4903 80.4425L63.1302 89.9126C63.3302 91.0626 64.5103 91.9726 65.9503 92.1026L69.9403 82.0025L70.5103 75.6626C70.7103 73.4926 68.6502 71.5326 65.9102 71.2826C62.7602 71.0026 60.2002 73.0926 60.6402 75.6026L60.6502 75.5925Z" fill="#EAADAC"/>
<path d="M58.0997 71.5828C54.9497 71.3028 52.3897 73.3928 52.8297 75.8928L55.3197 90.2129C55.5197 91.3629 56.6997 92.2729 58.1397 92.4029C59.8297 92.5529 61.2998 91.5928 61.4198 90.2528L62.7098 75.9629C62.9098 73.7929 60.8497 71.8328 58.1097 71.5828H58.0997Z" fill="#EAADAC"/>
<path d="M50.21 71.5828C47.06 71.3028 44.5 73.3928 44.94 75.8928L47.43 90.2129C47.63 91.3629 48.8001 92.2729 50.2501 92.4029C51.9401 92.5529 53.4099 91.5928 53.5299 90.2528L54.8199 75.9629C55.0199 73.7929 52.96 71.8328 50.22 71.5828H50.21Z" fill="#EAADAC"/>
<path d="M42.0301 71.5828C38.8801 71.3028 36.3203 73.3928 36.7603 75.8928L39.2503 90.2129C39.4503 91.3629 40.6302 92.2729 42.0702 92.4029C43.7602 92.5529 45.2302 91.5928 45.3502 90.2528L46.6402 75.9629C46.8402 73.7929 44.7801 71.8328 42.0401 71.5828H42.0301Z" fill="#EAADAC"/>
<path d="M103.58 82.9126H0V87.4226H103.58V82.9126Z" fill="#5B5ABB"/>
<path d="M25.3997 65.7227H12.5996V104.613H25.3997V65.7227Z" fill="#5B5ABB"/>
<path d="M12.5997 93.6926V76.6426C8.68973 76.6426 5.50977 79.8126 5.50977 83.7326V86.6126C5.50977 90.5226 8.67973 93.7026 12.5997 93.7026V93.6926Z" fill="#0E002B"/>
<path d="M25.4004 82.9126V87.4226H27.4504L25.4004 82.9126Z" fill="#0E002B"/>
<path d="M21.2095 104.613C21.0995 101.373 21.0694 98.1329 21.0894 94.8929C21.1094 93.2729 21.1595 91.6529 21.1695 90.0329C21.1895 88.4129 21.1695 86.7929 21.1395 85.1729C21.0795 81.9329 21.0495 78.6929 21.0595 75.4529C21.0595 72.2129 21.1095 68.9729 21.2095 65.7329H21.2394C21.3394 68.9729 21.3795 72.2129 21.3895 75.4529C21.3995 78.6929 21.3695 81.9329 21.3095 85.1729C21.2795 86.7929 21.2595 88.4129 21.2795 90.0329C21.2795 91.6529 21.3394 93.2729 21.3594 94.8929C21.3794 98.1329 21.3594 101.373 21.2394 104.613H21.2095Z" fill="white"/>
<path d="M16.7505 104.613C16.6405 101.373 16.6106 98.1329 16.6306 94.8929C16.6506 93.2729 16.7006 91.6529 16.7106 90.0329C16.7306 88.4129 16.7106 86.7929 16.6806 85.1729C16.6206 81.9329 16.5905 78.6929 16.6005 75.4529C16.6005 72.2129 16.6505 68.9729 16.7505 65.7329H16.7806C16.8806 68.9729 16.9206 72.2129 16.9306 75.4529C16.9406 78.6929 16.9105 81.9329 16.8505 85.1729C16.8205 86.7929 16.8006 88.4129 16.8206 90.0329C16.8206 91.6529 16.8806 93.2729 16.9006 94.8929C16.9206 98.1329 16.9006 101.373 16.7806 104.613H16.7505Z" fill="white"/>
<path d="M77.3503 104.613H90.1504V65.7228H77.3503V104.613Z" fill="#5B5ABB"/>
<path d="M90.1504 76.6426C94.0604 76.6426 97.2405 79.8126 97.2405 83.7326V86.6126C97.2405 90.5226 94.0704 93.7026 90.1504 93.7026V76.6526V76.6426Z" fill="#0E002B"/>
<path d="M77.3501 82.9126V87.4226H75.29L77.3501 82.9126Z" fill="#0E002B"/>
<path d="M81.5104 104.613C81.4004 101.373 81.3703 98.1329 81.3903 94.8929C81.4103 93.2729 81.4604 91.6529 81.4704 90.0329C81.4904 88.4129 81.4704 86.7929 81.4404 85.1729C81.3804 81.9329 81.3503 78.6929 81.3603 75.4529C81.3603 72.2129 81.4104 68.9729 81.5104 65.7329H81.5402C81.6402 68.9729 81.6804 72.2129 81.6904 75.4529C81.7004 78.6929 81.6703 81.9329 81.6103 85.1729C81.5803 86.7929 81.5603 88.4129 81.5803 90.0329C81.5803 91.6529 81.6403 93.2729 81.6603 94.8929C81.6803 98.1329 81.6602 101.373 81.5402 104.613H81.5104Z" fill="white"/>
<path d="M85.9597 104.613C85.8497 101.373 85.8195 98.1329 85.8395 94.8929C85.8595 93.2729 85.9096 91.6529 85.9196 90.0329C85.9396 88.4129 85.9196 86.7929 85.8896 85.1729C85.8296 81.9329 85.7995 78.6929 85.8095 75.4529C85.8095 72.2129 85.8597 68.9729 85.9597 65.7329H85.9897C86.0897 68.9729 86.1296 72.2129 86.1396 75.4529C86.1496 78.6929 86.1195 81.9329 86.0595 85.1729C86.0295 86.7929 86.0095 88.4129 86.0295 90.0329C86.0295 91.6529 86.0896 93.2729 86.1096 94.8929C86.1296 98.1329 86.1097 101.373 85.9897 104.613H85.9597Z" fill="white"/>
<path d="M37.2397 97.8328L21.2295 140.623C16.8295 152.383 24.2796 165.243 36.6796 167.263C48.3296 169.163 59.0595 160.583 59.7795 148.803L62.7096 100.323L37.2397 97.8228V97.8328Z" fill="#EAADAC"/>
<path d="M62.7097 100.333L69.9497 81.9926L36.7598 75.8926L37.2397 98.6426L62.7097 100.333Z" fill="#EAADAC"/>
<path d="M44.8697 90.3727C46.8197 87.8827 46.4397 84.5927 44.0997 83.6027L30.7197 77.9426C29.6497 77.4926 28.2397 77.9827 27.3497 79.1227C26.3097 80.4627 26.3197 82.2127 27.3797 83.0427L38.6998 91.8627C40.4198 93.2027 43.1797 92.5327 44.8697 90.3727Z" fill="#EAADAC"/>
<path d="M45.6697 73.2725C45.7897 74.7225 45.8998 76.1725 45.9998 77.6225C46.0498 78.3525 46.1296 79.0725 46.1396 79.8025C46.1396 80.5325 46.1596 81.2625 46.1096 81.9925H46.0796C45.9496 81.2725 45.8896 80.5424 45.8296 79.8224C45.7696 79.0924 45.7698 78.3725 45.7498 77.6425C45.7098 76.1925 45.6696 74.7325 45.6396 73.2825H45.6697V73.2725Z" fill="#0E002B"/>
<path d="M53.5896 73.2725C53.7096 74.7225 53.8197 76.1725 53.9197 77.6225C53.9697 78.3525 54.0496 79.0725 54.0596 79.8025C54.0596 80.5325 54.0795 81.2625 54.0295 81.9925H53.9998C53.8698 81.2725 53.8098 80.5424 53.7498 79.8224C53.6898 79.0924 53.6897 78.3725 53.6697 77.6425C53.6297 76.1925 53.5896 74.7325 53.5596 73.2825H53.5896V73.2725Z" fill="#0E002B"/>
<path d="M61.2 72.9526C61.32 74.4026 61.4298 75.8527 61.5298 77.3027C61.5798 78.0327 61.6599 78.7527 61.6699 79.4827C61.6699 80.2127 61.6899 80.9427 61.6399 81.6727H61.6099C61.4799 80.9527 61.4199 80.2226 61.3599 79.5026C61.2999 78.7726 61.2998 78.0526 61.2798 77.3226C61.2398 75.8726 61.1999 74.4126 61.1699 72.9626H61.2V72.9526Z" fill="#0E002B"/>
<path d="M20.8799 141.642L25.3999 115.262H30.7198L20.8799 141.642Z" fill="#EAADAC"/>
<path d="M30.7196 115.262H27.4497L22.8896 136.272L30.7196 115.262Z" fill="#DE9796"/>
<path d="M139.69 91.2425L138.85 96.0924L137.21 105.562C137.01 106.712 135.83 107.622 134.39 107.752L130.4 97.6524L129.83 91.3124C129.63 89.1424 131.69 87.1825 134.43 86.9325C137.58 86.6525 140.14 88.7424 139.7 91.2524L139.69 91.2425Z" fill="#EAADAC"/>
<path d="M142.24 87.2327C145.39 86.9527 147.95 89.0427 147.51 91.5427L145.02 105.863C144.82 107.013 143.65 107.923 142.2 108.053C140.51 108.203 139.04 107.243 138.92 105.903L137.63 91.6128C137.43 89.4428 139.49 87.4827 142.23 87.2327H142.24Z" fill="#EAADAC"/>
<path d="M150.12 87.2327C153.27 86.9527 155.83 89.0427 155.39 91.5427L152.9 105.863C152.7 107.013 151.53 107.923 150.08 108.053C148.39 108.203 146.92 107.243 146.8 105.903L145.51 91.6128C145.31 89.4428 147.37 87.4827 150.11 87.2327H150.12Z" fill="#EAADAC"/>
<path d="M158.3 87.2327C161.45 86.9527 164.01 89.0427 163.57 91.5427L161.08 105.863C160.88 107.013 159.71 107.923 158.26 108.053C156.57 108.203 155.1 107.243 154.98 105.903L153.7 91.6128C153.5 89.4428 155.56 87.4827 158.3 87.2327Z" fill="#EAADAC"/>
<path d="M96.7502 103.073L200.33 103.073V98.5627L96.7502 98.5627V103.073Z" fill="#5B5ABB"/>
<path d="M174.94 120.263H187.74V81.3727H174.94V120.263Z" fill="#5B5ABB"/>
<path d="M187.74 109.342V92.2925C191.65 92.2925 194.83 95.4624 194.83 99.3824V102.262C194.83 106.172 191.66 109.352 187.74 109.352V109.342Z" fill="#0E002B"/>
<path d="M174.94 98.5625V103.073H172.88L174.94 98.5625Z" fill="#0E002B"/>
<path d="M179.09 120.262C178.98 117.022 178.95 113.782 178.97 110.542C178.99 108.922 179.04 107.302 179.05 105.682C179.07 104.062 179.05 102.442 179.02 100.822C178.96 97.5823 178.93 94.3424 178.94 91.1024C178.94 87.8624 178.99 84.6223 179.09 81.3823H179.12C179.22 84.6223 179.26 87.8624 179.27 91.1024C179.28 94.3424 179.25 97.5823 179.19 100.822C179.16 102.442 179.14 104.062 179.16 105.682C179.16 107.302 179.22 108.922 179.24 110.542C179.26 113.782 179.24 117.022 179.12 120.262H179.09Z" fill="white"/>
<path d="M183.55 120.262C183.44 117.022 183.41 113.782 183.43 110.542C183.45 108.922 183.5 107.302 183.51 105.682C183.53 104.062 183.51 102.442 183.48 100.822C183.42 97.5823 183.39 94.3424 183.4 91.1024C183.4 87.8624 183.45 84.6223 183.55 81.3823H183.58C183.68 84.6223 183.72 87.8624 183.73 91.1024C183.74 94.3424 183.71 97.5823 183.65 100.822C183.62 102.442 183.6 104.062 183.62 105.682C183.62 107.302 183.68 108.922 183.7 110.542C183.72 113.782 183.7 117.022 183.58 120.262H183.55Z" fill="white"/>
<path d="M122.981 81.3726H110.181V120.263H122.981V81.3726Z" fill="#5B5ABB"/>
<path d="M110.181 109.342C106.271 109.342 103.091 106.172 103.091 102.252V99.3723C103.091 95.4623 106.261 92.2823 110.181 92.2823V109.332V109.342Z" fill="#0E002B"/>
<path d="M122.98 98.5625V103.073H125.04L122.98 98.5625Z" fill="#0E002B"/>
<path d="M118.8 120.262C118.69 117.022 118.66 113.782 118.68 110.542C118.7 108.922 118.75 107.302 118.76 105.682C118.78 104.062 118.76 102.442 118.73 100.822C118.67 97.5823 118.64 94.3424 118.65 91.1024C118.65 87.8624 118.7 84.6223 118.8 81.3823H118.83C118.93 84.6223 118.97 87.8624 118.98 91.1024C118.99 94.3424 118.96 97.5823 118.9 100.822C118.87 102.442 118.85 104.062 118.87 105.682C118.87 107.302 118.93 108.922 118.95 110.542C118.97 113.782 118.95 117.022 118.83 120.262H118.8Z" fill="white"/>
<path d="M114.34 120.262C114.23 117.022 114.2 113.782 114.22 110.542C114.24 108.922 114.29 107.302 114.3 105.682C114.32 104.062 114.3 102.442 114.27 100.822C114.21 97.5823 114.18 94.3424 114.19 91.1024C114.19 87.8624 114.24 84.6223 114.34 81.3823H114.37C114.47 84.6223 114.51 87.8624 114.52 91.1024C114.53 94.3424 114.5 97.5823 114.44 100.822C114.41 102.442 114.39 104.062 114.41 105.682C114.41 107.302 114.47 108.922 114.49 110.542C114.51 113.782 114.49 117.022 114.37 120.262H114.34Z" fill="white"/>
<path d="M163.1 113.492L179.11 156.282C183.51 168.042 176.06 180.902 163.66 182.922C152.01 184.822 141.28 176.242 140.56 164.462L137.63 115.982L163.1 113.482V113.492Z" fill="#EAADAC"/>
<path d="M137.63 115.993L130.39 97.6427L163.57 91.5527L163.1 114.293L137.63 115.993Z" fill="#EAADAC"/>
<path d="M155.47 106.023C153.52 103.533 153.9 100.243 156.24 99.2525L169.62 93.5925C170.69 93.1425 172.1 93.6325 172.99 94.7725C174.03 96.1125 174.02 97.8625 172.96 98.6925L161.64 107.513C159.92 108.853 157.16 108.183 155.47 106.023Z" fill="#EAADAC"/>
<path d="M154.7 88.9226C154.67 90.3726 154.64 91.8326 154.59 93.2826C154.57 94.0126 154.57 94.7426 154.51 95.4626C154.44 96.1826 154.38 96.9126 154.26 97.6326H154.23C154.17 96.9026 154.19 96.1726 154.2 95.4426C154.22 94.7126 154.29 93.9926 154.34 93.2626C154.44 91.8126 154.55 90.3626 154.67 88.9126H154.7V88.9226Z" fill="#0E002B"/>
<path d="M146.78 88.9226C146.75 90.3726 146.72 91.8326 146.67 93.2826C146.65 94.0126 146.65 94.7426 146.59 95.4626C146.52 96.1826 146.46 96.9126 146.34 97.6326H146.31C146.26 96.9026 146.27 96.1726 146.28 95.4426C146.3 94.7126 146.37 93.9926 146.42 93.2626C146.52 91.8126 146.63 90.3626 146.75 88.9126H146.78V88.9226Z" fill="#0E002B"/>
<path d="M139.17 88.6125C139.14 90.0625 139.109 91.5225 139.059 92.9725C139.039 93.7025 139.04 94.4325 138.98 95.1525C138.91 95.8725 138.85 96.6025 138.73 97.3225H138.7C138.64 96.5925 138.66 95.8625 138.67 95.1325C138.69 94.4025 138.759 93.6825 138.809 92.9525C138.909 91.5025 139.02 90.0525 139.14 88.6025H139.17V88.6125Z" fill="#0E002B"/>
<path d="M22.4795 188.542H195.809" stroke="#0E002B" stroke-miterlimit="10"/>
</svg>
