<svg width="285" height="367" viewBox="0 0 285 367" fill="none" xmlns="http://www.w3.org/2000/svg">
<path d="M138.169 23.8119C136.599 18.4619 133.219 13.7319 128.869 10.3219C124.509 6.89193 119.339 4.61187 113.999 3.26187C103.249 0.591871 91.9193 1.23186 81.2493 4.00186C75.9193 5.46186 70.7289 7.47187 65.8689 10.1319C61.0089 12.7719 56.4692 16.082 52.6292 20.102C48.7692 24.082 45.6291 28.8119 43.7991 34.0319C41.9391 39.2319 41.6189 44.9719 43.1189 50.2519C44.6989 55.5219 48.0889 60.072 52.3289 63.482C56.5889 66.902 61.679 69.2119 66.969 70.6419C77.619 73.4619 88.9689 72.7919 99.5989 70.0019C110.159 66.9619 120.229 61.7119 128.059 53.8919C131.939 49.9819 135.189 45.3619 137.159 40.1719C139.119 35.0019 139.579 29.2119 138.169 23.8219V23.8119ZM138.339 23.7619C139.869 29.1819 139.429 35.0219 137.629 40.3319C135.849 45.6819 132.719 50.5319 128.929 54.7019C121.269 63.0819 110.939 68.6919 100.099 71.8119C89.2089 74.8019 77.489 75.3519 66.509 72.3019C61.049 70.7819 55.7889 68.272 51.4089 64.602C47.0189 60.972 43.6392 56.0319 42.1492 50.5219C40.6992 44.9819 41.2892 39.1019 43.1892 33.8119C45.1092 28.5019 48.3389 23.7619 52.1589 19.6619C59.9189 11.5019 70.0289 5.7719 80.8289 2.5419C91.6689 -0.4681 103.409 -1.05811 114.289 2.15189C119.699 3.76189 124.879 6.30193 129.159 9.95193C133.449 13.5719 136.839 18.3319 138.329 23.7719L138.339 23.7619Z" fill="#0E002B"/>
<path d="M158.615 350.638C228.369 341.714 277.682 277.934 268.758 208.18C259.835 138.426 196.055 89.1129 126.301 98.0363C56.5468 106.96 7.23379 170.74 16.1571 240.494C25.0804 310.248 88.861 359.561 158.615 350.638Z" fill="#F0C785"/>
<path d="M248.609 194.672C256.499 222.442 252.969 253.262 238.819 278.592C231.819 291.272 222.199 302.512 210.809 311.502C199.429 320.522 186.129 327.032 172.169 330.892C158.189 334.722 143.459 335.802 129.099 333.972C114.739 332.162 100.759 327.482 88.1993 320.322C75.6693 313.122 64.4796 303.592 55.5196 292.242C46.5596 280.892 39.8993 267.742 35.9693 253.812C32.0293 239.882 30.8193 225.172 32.5293 210.772C34.2093 196.372 38.7792 182.292 45.9092 169.642C53.0292 156.982 62.6394 145.732 74.0694 136.752C85.4894 127.752 98.7496 121.142 112.75 117.242C126.75 113.392 141.519 112.182 155.929 114.072C170.329 115.922 184.329 120.652 196.899 127.862C222.119 142.212 241.039 166.822 248.619 194.672H248.609ZM248.429 194.722C244.509 180.872 237.929 167.772 228.969 156.512C220.029 145.262 208.849 135.822 196.329 128.852C171.269 114.802 140.77 111.312 113.25 119.062C99.4796 122.902 86.5096 129.472 75.2496 138.252C63.9796 147.022 54.4692 158.052 47.4092 170.492C40.3692 182.932 35.7292 196.742 33.9292 210.942C32.1092 225.142 33.1695 239.702 36.9395 253.542C44.4495 281.232 63.3196 305.792 88.5396 319.712C101.08 326.722 114.98 331.252 129.23 332.922C143.47 334.612 158.019 333.432 171.799 329.552C185.599 325.682 198.539 319.012 209.839 310.252C221.149 301.482 230.659 290.442 237.829 278.032C244.979 265.612 249.68 251.752 251.52 237.492C253.38 223.232 252.239 208.602 248.439 194.722H248.429Z" fill="#0E002B"/>
<path d="M210.586 292.292C248.197 254.68 248.197 193.7 210.586 156.089C172.974 118.478 111.994 118.478 74.3827 156.089C36.7714 193.7 36.7714 254.681 74.3827 292.292C111.994 329.903 172.974 329.903 210.586 292.292Z" fill="white"/>
<path d="M94.7202 52.4519L34.3301 69.2418L55.9404 95.7719L84.8701 87.7219L91.5205 111.622L108.37 101.522L128.01 101.472L121.36 77.5719L150.3 69.5219L155.11 35.6519L94.7202 52.4519Z" fill="#F0C785"/>
<path d="M27.2896 169.782C26.6896 168.282 26.1291 166.782 25.6191 165.262C25.1191 163.742 24.5694 162.232 24.1094 160.692C23.1694 157.632 22.2196 154.562 21.5396 151.432L21.4492 151.022L21.6895 150.772C24.0195 148.352 26.4392 146.002 28.6392 143.462C30.8292 140.912 32.9192 138.282 34.9692 135.622C37.0492 132.982 39.2094 130.402 41.3594 127.832C43.4994 125.242 45.7293 122.732 48.0093 120.262L48.4492 119.782L48.9893 120.012C51.1193 120.922 53.2694 121.782 55.3794 122.742C57.4994 123.682 59.6095 124.642 61.6895 125.692L61.6191 125.862C59.3691 125.262 57.1495 124.572 54.9395 123.872C52.7195 123.192 50.5394 122.402 48.3394 121.672L49.3193 121.422C47.1893 124.012 45.0093 126.572 42.7393 129.052C40.4893 131.542 38.2392 134.032 35.9092 136.462C33.5592 138.862 31.2395 141.302 29.0195 143.822C26.8095 146.352 24.8193 149.072 22.7393 151.712L22.8892 151.042C23.9192 154.082 24.6992 157.192 25.4692 160.302C25.8692 161.852 26.1796 163.432 26.5396 164.992C26.8896 166.562 27.1795 168.142 27.4395 169.732L27.2593 169.782H27.2896Z" fill="#0E002B"/>
<path d="M121.01 146.662C123.13 153.032 125.09 159.442 126.99 165.872C128.87 172.312 130.73 178.752 132.43 185.232C134.09 191.732 135.61 198.262 137.39 204.732C139.11 211.212 141.04 217.632 142.99 224.052L142.34 223.682C148.58 221.762 154.84 219.902 161.12 218.102C167.39 216.282 173.67 214.482 179.97 212.782C186.26 211.022 192.58 209.402 198.9 207.752C205.23 206.132 211.57 204.582 217.94 203.102L217.99 203.282C211.77 205.302 205.54 207.242 199.28 209.132C193.02 210.992 186.76 212.862 180.47 214.602C174.19 216.402 167.89 218.102 161.58 219.782C155.28 221.482 148.95 223.122 142.62 224.702L142.1 224.832L141.97 224.332C140.33 217.832 138.661 211.332 136.791 204.902C134.981 198.452 132.9 192.072 130.97 185.642C129.07 179.212 127.34 172.732 125.63 166.252C123.94 159.762 122.3 153.262 120.83 146.712L121.01 146.662Z" fill="#0E002B"/>
<path d="M152.861 221.302C154.451 227.032 151.1 232.972 145.37 234.572C139.64 236.162 133.7 232.812 132.1 227.082C130.51 221.352 133.861 215.412 139.591 213.812C145.321 212.222 151.261 215.572 152.861 221.302Z" fill="#0E002B"/>
<path d="M149.909 222.122C150.419 224.052 150.489 226.222 149.619 228.222C148.799 230.232 146.88 231.802 144.73 232.262C142.56 232.732 140.339 232.162 138.589 231.082C136.829 230.012 135.389 228.382 134.659 226.362C133.909 224.362 134.039 221.972 135.099 220.012C136.119 218.042 137.989 216.472 140.179 215.902C142.349 215.322 144.779 215.702 146.529 217.022C148.299 218.302 149.379 220.192 149.919 222.112L149.909 222.122ZM149.73 222.172C149.21 220.242 147.639 218.752 145.929 218.082C144.199 217.422 142.379 217.292 140.699 217.792C139.029 218.282 137.529 219.352 136.599 220.872C135.679 222.382 135.299 224.252 135.629 226.102C135.959 227.942 137.159 229.692 138.889 230.572C140.609 231.472 142.649 231.422 144.329 230.802C146.029 230.202 147.489 229.142 148.629 227.662C149.739 226.192 150.32 224.102 149.75 222.182L149.73 222.172Z" fill="white"/>
</svg>
