<svg width="148" height="148" viewBox="0 0 148 148" fill="none" xmlns="http://www.w3.org/2000/svg">
<path d="M73.61 0C32.96 0 0 32.96 0 73.61C0 114.26 32.96 147.22 73.61 147.22C114.26 147.22 147.22 114.26 147.22 73.61C147.22 32.96 114.26 0 73.61 0ZM73.61 106.88C55.23 106.88 40.34 91.98 40.34 73.61C40.34 55.24 55.24 40.34 73.61 40.34C91.98 40.34 106.88 55.24 106.88 73.61C106.88 91.98 91.98 106.88 73.61 106.88Z" fill="#F0C785"/>
<path d="M2.32031 36.1301C2.32031 22.8001 8.83031 11.9701 16.9403 11.6501L37.4103 11.6401V60.6301H16.9403V60.6101C8.83031 60.2901 2.32031 49.4601 2.32031 36.1301Z" fill="#5B5ABB"/>
<path d="M37.78 60.6201C46.0588 60.6201 52.77 49.6556 52.77 36.1301C52.77 22.6047 46.0588 11.6401 37.78 11.6401C29.5013 11.6401 22.79 22.6047 22.79 36.1301C22.79 49.6556 29.5013 60.6201 37.78 60.6201Z" fill="#383995"/>
<path d="M26.0798 11.6401C17.7998 11.6401 11.0898 22.6101 11.0898 36.1301C11.0898 49.6501 17.7998 60.6201 26.0798 60.6201" stroke="#331D7A" stroke-linecap="round" stroke-linejoin="round"/>
<path d="M37.7207 36.1303C37.7207 37.8303 38.5507 39.1903 39.5807 39.1903H111.981C113.031 39.1903 113.861 37.8203 113.861 36.1303C113.861 34.4403 113.031 33.0703 111.981 33.0703H39.5807C38.5507 33.0703 37.7207 34.4403 37.7207 36.1303Z" fill="#E48A59"/>
<path d="M71.291 33.0703V39.2003H111.991C113.041 39.2003 113.871 37.8303 113.871 36.1403C113.871 34.4503 113.041 33.0803 111.991 33.0803H71.291V33.0703Z" fill="#E48A59"/>
<path d="M94.4404 36.1301C94.4404 22.8001 100.95 11.9701 109.06 11.6501L129.53 11.6401V60.6301H109.06V60.6101C100.95 60.2901 94.4404 49.4601 94.4404 36.1301Z" fill="#5B5ABB"/>
<path d="M129.9 60.6201C138.179 60.6201 144.89 49.6556 144.89 36.1301C144.89 22.6047 138.179 11.6401 129.9 11.6401C121.621 11.6401 114.91 22.6047 114.91 36.1301C114.91 49.6556 121.621 60.6201 129.9 60.6201Z" fill="#383995"/>
<path d="M118.211 11.6401C109.931 11.6401 103.221 22.6101 103.221 36.1301C103.221 49.6501 109.931 60.6201 118.211 60.6201" stroke="#331D7A" stroke-linecap="round" stroke-linejoin="round"/>
<path d="M127.16 36.1303C127.16 37.8203 128 39.1903 129.03 39.1903H142.42C143.46 39.1903 144.3 37.8203 144.3 36.1303C144.3 34.4403 143.46 33.0703 142.42 33.0703H129.03C128 33.0703 127.16 34.4403 127.16 36.1303Z" fill="#5B5ABB"/>
<path d="M140.55 36.1303C140.55 37.8203 141.39 39.1903 142.42 39.1903C143.45 39.1903 144.3 37.8203 144.3 36.1303C144.3 34.4403 143.46 33.0703 142.42 33.0703C141.38 33.0703 140.55 34.4403 140.55 36.1303Z" fill="#E48A59"/>
<path d="M56.0801 28.6299L55.1501 33.9599L53.3401 44.3699C53.1201 45.6299 51.8301 46.6399 50.2401 46.7799L45.8601 35.6699L45.2401 28.6999C45.0301 26.3099 47.2901 24.1599 50.2901 23.8899C53.7501 23.5799 56.5601 25.8799 56.0801 28.6299Z" fill="#EAADAC"/>
<path d="M58.8907 24.22C62.3507 23.91 65.1607 26.21 64.6907 28.96L61.9507 44.7C61.7307 45.96 60.4407 46.97 58.8507 47.11C56.9907 47.28 55.3807 46.22 55.2507 44.74L53.8407 29.03C53.6307 26.64 55.8907 24.49 58.9007 24.22H58.8907Z" fill="#EAADAC"/>
<path d="M67.5606 24.22C71.0206 23.91 73.8306 26.21 73.3606 28.96L70.6206 44.7C70.4006 45.96 69.1106 46.97 67.5206 47.11C65.6606 47.28 64.0506 46.22 63.9206 44.74L62.5106 29.03C62.3006 26.64 64.5606 24.49 67.5706 24.22H67.5606Z" fill="#EAADAC"/>
<path d="M76.5401 24.22C80.0001 23.91 82.8101 26.21 82.3401 28.96L79.6001 44.7C79.3801 45.96 78.0901 46.97 76.5001 47.11C74.6401 47.28 73.0301 46.22 72.9001 44.74L71.4901 29.03C71.2801 26.64 73.5401 24.49 76.5501 24.22H76.5401Z" fill="#EAADAC"/>
<path d="M94.0703 93.1203L81.8203 53.0903L53.8203 55.8403L59.0703 96.0203L65.7203 146.87C68.3203 147.1 70.9503 147.22 73.6003 147.22C85.9703 147.22 96.9103 144.38 108.16 138.86L94.0603 93.1203H94.0703Z" fill="#EAADAC"/>
<path d="M53.8203 55.8302L45.8604 35.6602L82.3403 28.9702L81.8203 53.9702L53.8203 55.8302Z" fill="#EAADAC"/>
<path d="M73.4301 44.8799C71.2901 42.1399 71.7001 38.5299 74.2801 37.4399L88.9901 31.2099C90.1701 30.7099 91.7101 31.2499 92.6901 32.5099C93.8401 33.9799 93.8201 35.9099 92.6501 36.8199L80.2101 46.5199C78.3201 47.9899 75.2801 47.2599 73.4301 44.8799Z" fill="#EAADAC"/>
<path d="M72.5806 26.0801L72.1006 35.6701" stroke="#331D7A" stroke-linecap="round" stroke-linejoin="round"/>
<path d="M63.8406 26.0801L63.3906 35.6701" stroke="#331D7A" stroke-linecap="round" stroke-linejoin="round"/>
<path d="M55.4703 25.73L55.0303 35.32" stroke="#331D7A" stroke-linecap="round" stroke-linejoin="round"/>
</svg>
