<svg width="729" height="1030" viewBox="0 0 729 1030" fill="none" xmlns="http://www.w3.org/2000/svg">
<path d="M371.95 31.21C371.95 31.21 387.25 0 428.25 0C469.25 0 500.15 66.8601 500.15 157.68C500.15 248.5 476.48 329.23 447.16 433.3C417.84 537.37 199.4 614.04 199.4 614.04C199.4 614.04 119.08 583.73 119.08 516.56C119.08 449.39 154.83 429.23 154.83 429.23C154.83 429.23 140.64 384.11 159.56 338.7C178.48 293.29 228.62 263.96 278.77 254.5C328.91 245.04 347.2 199.63 347.2 199.63L371.95 31.22V31.21Z" fill="#5B5ABB"/>
<path d="M395.75 183.34C395.75 183.34 440.87 181.59 446.54 128.64C449.69 99.2796 440.75 72.4296 423.53 54.3896C423.53 54.3896 463.73 78.0496 455.22 144.75C446.71 211.45 390.41 213.18 390.41 213.18L395.75 183.34Z" fill="#0E002B"/>
<path d="M387.79 80.8801C407.722 80.8801 423.88 66.0563 423.88 47.7701C423.88 29.484 407.722 14.6602 387.79 14.6602C367.858 14.6602 351.7 29.484 351.7 47.7701C351.7 66.0563 367.858 80.8801 387.79 80.8801Z" fill="#E48A59"/>
<path d="M396.8 160.25C396.8 160.25 377.16 227.06 473.66 255.44C570.16 283.82 603.27 283.82 635.44 365.18C667.61 446.54 677.07 555.34 677.07 578.05C677.07 600.76 631.66 684.01 631.66 684.01H527.59L573 555.34L543.67 433.3L508.67 558.18L528.54 608.32C528.54 608.32 494.48 634.81 405.55 634.81C316.62 634.81 269.32 601.7 269.32 601.7L232.42 698.2L165.76 710.27L223.91 543.99C223.91 543.99 189.85 353.83 217.29 309.36C244.73 264.89 335.23 265.76 347.22 212.82L396.82 160.24L396.8 160.25Z" fill="#EAADAC"/>
<path d="M343.38 223.59C361.34 224.9 394.53 224.35 401.73 203.7C390.81 180.65 396.81 160.25 396.81 160.25L347.2 212.83L343.38 223.59Z" fill="#DE9796"/>
<path d="M307.15 59.9199H405.54V100.29C405.54 134.98 394.82 213.19 341.21 213.19C287.6 213.19 288.86 98.3999 288.86 98.3999L307.15 59.9299V59.9199Z" fill="#EAADAC"/>
<path d="M408.38 158.3C422.833 158.3 434.55 146.583 434.55 132.13C434.55 117.677 422.833 105.96 408.38 105.96C393.927 105.96 382.21 117.677 382.21 132.13C382.21 146.583 393.927 158.3 408.38 158.3Z" fill="#EAADAC"/>
<path d="M422.06 121.61C421.43 120.35 420.65 119.16 419.68 118.17C418.72 117.18 417.501 116.44 416.201 116.26L415.711 116.2C415.591 116.24 415.47 116.2 415.35 116.29C415.23 116.34 415.11 116.4 415 116.51C414.88 116.59 414.78 116.71 414.68 116.83C414.28 117.32 413.94 117.91 413.67 118.54C413.1 119.78 412.7 121.13 412.31 122.46C411.54 125.14 410.97 127.9 410.42 130.65C409.9 133.41 409.41 136.191 409.01 138.961L407.76 138.68C408.4 136.76 409.191 134.93 410.151 133.15C410.631 132.26 411.171 131.4 411.841 130.61C412.511 129.84 413.27 129.02 414.42 128.71C414.72 128.68 415.01 128.62 415.31 128.65C415.59 128.73 415.91 128.74 416.16 128.91C416.68 129.19 417.08 129.61 417.36 130.06C417.93 130.97 418.221 131.96 418.401 132.94C418.751 134.92 418.84 136.91 418.72 138.88C418.6 136.91 418.38 134.94 417.87 133.06C417.61 132.13 417.26 131.21 416.75 130.47C416.24 129.72 415.44 129.31 414.66 129.56C413.88 129.8 413.21 130.52 412.66 131.25C412.1 132 411.61 132.83 411.17 133.69C410.29 135.4 409.59 137.24 408.98 139.06L407.73 138.78C408.52 133.16 409.53 127.58 411.22 122.12C411.66 120.76 412.161 119.41 412.831 118.12C413.161 117.47 413.55 116.84 414.07 116.26C414.2 116.12 414.34 115.98 414.51 115.86C414.66 115.73 414.85 115.63 415.07 115.55C415.26 115.44 415.52 115.46 415.74 115.44L416.3 115.53C417.81 115.8 419.041 116.79 419.951 117.88C420.881 118.98 421.561 120.26 422.031 121.59L422.06 121.61Z" fill="#0E002B"/>
<path d="M342.03 110.08C342.38 107.92 343.09 105.81 344.12 103.85C345.15 101.89 346.53 100.05 348.39 98.6797C350.25 97.3297 352.65 96.6197 354.93 96.9197C357.21 97.1897 359.26 98.2397 360.98 99.5597C358.99 98.6797 356.92 98.0296 354.86 97.9496C352.8 97.8896 350.82 98.5396 349.18 99.7496C347.52 100.94 346.19 102.6 345.03 104.37C343.89 106.16 342.89 108.07 342.05 110.08H342.03Z" fill="#0E002B"/>
<path d="M373.63 125.13C374.59 129.13 368.79 133.95 360.69 135.88C352.59 137.82 345.24 136.14 344.29 132.14C343.33 128.14 349.13 123.32 357.23 121.39C365.33 119.45 372.68 121.13 373.63 125.13Z" fill="white"/>
<path d="M366.12 127.36C366.12 131.34 362.89 134.57 358.91 134.57C354.93 134.57 351.7 131.34 351.7 127.36C351.7 123.38 354.93 120.15 358.91 120.15C362.89 120.15 366.12 123.38 366.12 127.36Z" fill="#0E002B"/>
<path d="M344.29 132.14C344.07 131.41 344.05 130.61 344.25 129.84C344.47 129.09 344.79 128.36 345.25 127.71C346.15 126.42 347.34 125.37 348.6 124.45C351.14 122.63 354.08 121.49 357.08 120.73C360.1 120.05 363.24 119.73 366.33 120.21C367.87 120.45 369.4 120.86 370.79 121.6C371.48 121.97 372.1 122.48 372.64 123.05C373.16 123.64 373.51 124.37 373.64 125.12C373.36 124.4 372.93 123.79 372.39 123.3C371.82 122.84 371.2 122.45 370.5 122.19C369.15 121.61 367.68 121.34 366.21 121.23C363.26 121.01 360.28 121.34 357.39 122.03C354.51 122.72 351.69 123.78 349.16 125.31C347.9 126.07 346.71 126.98 345.77 128.11C345.27 128.65 344.89 129.28 344.59 129.95C344.33 130.64 344.22 131.38 344.3 132.14H344.29Z" fill="#0E002B"/>
<path d="M291.08 128.85C290.12 132.85 295.92 137.67 304.02 139.6C312.12 141.54 319.47 139.86 320.42 135.86C321.37 131.86 315.58 127.04 307.48 125.11C299.38 123.17 292.03 124.85 291.08 128.85Z" fill="white"/>
<path d="M301.9 132.35C301.9 136.33 305.13 139.56 309.11 139.56C313.09 139.56 316.32 136.33 316.32 132.35C316.32 128.37 313.09 125.14 309.11 125.14C305.13 125.14 301.9 128.37 301.9 132.35Z" fill="#0E002B"/>
<path d="M320.42 135.86C320.5 135.1 320.39 134.35 320.13 133.67C319.83 133 319.45 132.37 318.95 131.83C318.01 130.71 316.82 129.8 315.56 129.03C313.03 127.5 310.22 126.45 307.33 125.75C304.44 125.07 301.46 124.73 298.51 124.95C297.04 125.06 295.57 125.33 294.22 125.91C293.53 126.17 292.91 126.56 292.33 127.02C291.79 127.51 291.35 128.13 291.08 128.84C291.21 128.09 291.56 127.36 292.08 126.77C292.61 126.2 293.24 125.69 293.93 125.32C295.32 124.58 296.85 124.17 298.39 123.93C301.48 123.45 304.62 123.77 307.64 124.45C310.64 125.21 313.58 126.34 316.12 128.17C317.38 129.08 318.56 130.13 319.47 131.43C319.92 132.07 320.25 132.81 320.47 133.56C320.67 134.33 320.65 135.13 320.43 135.86H320.42Z" fill="#0E002B"/>
<path d="M375.52 135.99C375.52 136.98 374.72 137.77 373.74 137.77C372.76 137.77 371.96 136.97 371.96 135.99C371.96 135.01 372.76 134.21 373.74 134.21C374.72 134.21 375.52 135.01 375.52 135.99Z" fill="#0E002B"/>
<path d="M296.51 114.47C296.79 112.59 297.43 110.75 298.45 109.12C299.44 107.48 300.94 106.09 302.76 105.33C304.57 104.54 306.62 104.42 308.52 104.75C309.5 104.82 310.42 105.18 311.37 105.41C312.26 105.82 313.21 106.11 314.01 106.69C317.45 108.72 319.56 112.34 320.83 115.95C322.11 119.62 322.64 123.46 322.96 127.27C323.54 134.92 322.86 142.55 322.23 150.11C321.56 157.69 320.56 165.24 319.08 172.72L318.53 172.39C322.15 169.48 325.74 166.54 329.39 163.66C325.94 166.78 322.44 169.83 318.97 172.91L318.25 173.54L318.42 172.58C319.71 165.12 320.39 157.55 321.05 150.01C321.64 142.45 322.14 134.87 321.7 127.36C321.43 123.62 320.94 119.85 319.74 116.33C318.52 112.86 316.66 109.44 313.52 107.47C312.79 106.9 311.91 106.61 311.09 106.2C310.2 105.96 309.34 105.59 308.41 105.51C306.6 105.15 304.7 105.22 302.97 105.87C301.24 106.5 299.75 107.74 298.71 109.3C297.66 110.85 296.9 112.62 296.51 114.48V114.47Z" fill="#0E002B"/>
<path d="M351.7 169.11C353.19 169.75 354.74 170.09 356.23 170.01C357.72 169.93 359.13 169.42 360.33 168.55C361.59 167.74 362.55 166.52 363.52 165.31C363.94 164.65 364.42 164.03 364.84 163.35C365.24 162.67 365.65 161.98 366.11 161.3C365.92 162.09 365.67 162.86 365.42 163.64C365.13 164.4 364.75 165.13 364.39 165.87C363.54 167.27 362.53 168.66 361.09 169.63C359.69 170.61 357.93 171.18 356.21 171.03C354.5 170.91 352.89 170.21 351.69 169.1L351.7 169.11Z" fill="#0E002B"/>
<path d="M367.92 31.2096C317.25 31.5296 297.74 59.5196 290.98 73.7896C280.67 95.5496 288.97 111.16 289.29 112.82C289.3 112.89 289.3 112.91 289.3 112.91C289.3 112.91 320.39 104.38 329.39 64.9596C329.39 64.9596 368.37 111.34 400.17 107.29C401.85 106.74 403.6 106.34 405.4 106.14C405.4 106.14 405.42 106.14 405.43 106.14H405.44C406.4 106.03 407.38 105.97 408.37 105.97C422.83 105.97 434.54 117.69 434.54 132.14C434.54 146.59 422.82 158.31 408.37 158.31C404.68 158.31 401.18 157.54 398 156.16C398 156.16 398 156.16 398 156.17C397.61 157.55 397.19 158.91 396.77 160.28L396.8 160.24C396.8 160.24 393.98 169.85 395.74 183.32C395.74 183.32 440.86 181.58 446.53 128.63C452.21 75.6796 418.58 30.8996 367.91 31.2096H367.92Z" fill="#5B5ABB"/>
<path d="M392.25 14.6098C403.28 5.8798 417.31 0.849766 431.49 0.759766C435.03 0.759766 438.57 1.07979 442.07 1.65979C445.55 2.30979 449 3.1798 452.34 4.3598C455.68 5.5498 458.94 6.95978 462.05 8.64978L464.39 9.90979L466.65 11.2998C468.16 12.2098 469.67 13.1998 471.03 14.3398C476.55 18.9198 480.55 24.9298 483.85 31.1398C487.09 37.4098 489.63 44.0098 491.77 50.7098C495.98 64.1398 498.78 77.9798 500.58 91.9298C502.42 105.88 503.35 119.95 503.44 134.03C503.54 148.11 502.84 162.19 501.22 176.18C499.65 190.17 497.07 204.07 493.31 217.64C489.49 231.16 484.53 244.53 476.96 256.42L476.85 256.35C478.64 253.33 480.29 250.23 481.8 247.06C483.28 243.88 484.67 240.66 485.94 237.39C488.5 230.86 490.58 224.15 492.39 217.38C495.93 203.81 498.28 189.95 499.87 176.02C501.4 162.08 502.21 148.06 502.21 134.02C502.19 119.99 501.54 105.95 499.88 92.0098C499.04 85.0398 497.98 78.0998 496.59 71.2198C495.92 67.7698 495.12 64.3598 494.29 60.9498C493.41 57.5498 492.45 54.1698 491.36 50.8398C489.21 44.1698 486.57 37.6298 483.23 31.4798C479.86 25.3798 475.78 19.5398 470.37 15.1898C459.17 7.07976 445.5 1.77979 431.52 1.77979C424.55 1.73979 417.58 2.8898 410.95 5.1098C404.34 7.3498 397.95 10.4598 392.37 14.7098L392.28 14.6098H392.25Z" fill="#0E002B"/>
<path d="M428.29 88.9804C421.14 96.1404 412.71 102.28 403.08 105.86C398.24 107.52 393.15 108.55 388 108.56C382.85 108.67 377.75 107.57 372.95 105.86C363.34 102.34 354.92 96.2704 347.62 89.2304C340.32 82.1504 333.95 74.1204 328.83 65.2604L329.97 65.1404C328.16 71.1804 325.8 76.9904 322.95 82.5804C320.06 88.1404 316.75 93.5204 312.71 98.3504C308.69 103.17 303.98 107.5 298.54 110.68C295.8 112.23 292.91 113.51 289.91 114.43C286.88 115.29 283.77 115.74 280.65 115.9V115.77C283.74 115.47 286.8 114.87 289.73 113.89C292.65 112.87 295.45 111.54 298.08 109.93C303.3 106.63 307.86 102.37 311.71 97.5304C315.61 92.7404 318.88 87.4504 321.7 81.9404C324.49 76.4304 326.96 70.6904 328.78 64.8004L329.21 63.4004L329.92 64.6804C332.35 69.0604 335.16 73.2904 338.17 77.3304C341.18 81.3804 344.44 85.2604 348 88.8504C355.11 95.9804 363.56 102.07 373.18 105.16C377.96 106.72 382.97 107.54 387.98 107.44C392.98 107.33 397.94 106.4 402.7 104.84C405.02 103.89 407.41 103.09 409.6 101.84C410.71 101.25 411.88 100.76 412.94 100.1L416.16 98.1204C417.26 97.4904 418.27 96.7404 419.28 95.9804L422.34 93.7504C424.32 92.1804 426.21 90.5004 428.18 88.9004L428.27 89.0004L428.29 88.9804Z" fill="#0E002B"/>
<path d="M271.83 514.66C271.83 514.66 329.13 586.85 511.45 548.23L515.12 535.15L271.83 514.66Z" fill="#DE9796"/>
<path d="M341.27 213.19C340.6 216.77 338.78 220.02 336.63 222.91C336.14 223.67 335.55 224.36 334.95 225.04L333.19 227.1C331.9 228.36 330.61 229.64 329.29 230.87C323.84 235.66 317.58 239.37 311.23 242.81C304.78 246.07 298.1 248.87 291.29 251.26L286.16 252.99C284.44 253.55 282.75 254.19 281 254.64L270.57 257.55C256.53 260.96 242.31 263.29 228.72 268.07C221.93 270.4 215.24 273.09 208.82 276.33C202.42 279.61 196.24 283.33 190.48 287.63C178.96 296.22 169.06 307 161.63 319.29C154.11 331.55 149.02 345.13 145.42 359.02C143.63 365.98 141.88 372.97 141.65 380.11C141.36 387.24 142.21 394.4 144.04 401.29C145.86 408.19 148.6 414.85 152.06 421.11C155.52 427.35 159.64 433.3 164.42 438.55L165.19 439.39L164.07 439.61C157.71 440.89 151.52 443.46 145.84 446.72C142.98 448.33 140.26 450.2 137.64 452.19C136.37 453.23 135.08 454.25 133.82 455.32L130.26 458.74C129.65 459.29 129.1 459.91 128.57 460.54L126.95 462.4L125.32 464.26C124.8 464.89 124.34 465.59 123.85 466.25L120.95 470.26L118.42 474.52L117.15 476.65C116.76 477.38 116.43 478.13 116.07 478.88L113.93 483.35C113.55 484.08 113.27 484.86 112.99 485.64L112.13 487.97L110.41 492.63L110.28 492.59L111.9 487.89L112.71 485.54C112.97 484.75 113.24 483.97 113.61 483.22L115.66 478.68C116.01 477.93 116.33 477.16 116.7 476.42L117.93 474.25L120.41 469.92L123.29 465.85C123.78 465.18 124.23 464.48 124.75 463.83L126.37 461.93L127.99 460.03C128.52 459.39 129.06 458.76 129.68 458.19L133.24 454.69C134.49 453.6 135.79 452.55 137.07 451.48C139.69 449.43 142.43 447.51 145.32 445.84C151.08 442.46 157.24 439.79 163.87 438.38L163.52 439.45C158.51 434.12 154.42 428.11 150.87 421.78C147.35 415.44 144.55 408.69 142.69 401.66C141.74 398.15 141.07 394.57 140.69 390.95C140.32 387.34 140.13 383.69 140.33 380.06C140.54 376.43 140.91 372.8 141.71 369.25C142.45 365.7 143.31 362.21 144.25 358.72C147.98 344.78 153.3 331.16 160.99 318.9C168.59 306.6 178.61 295.84 190.24 287.31C196.04 283.02 202.19 279.2 208.6 275.89C215.03 272.61 221.68 269.77 228.47 267.34C235.25 264.87 242.22 262.94 249.24 261.25C256.3 259.67 263.29 258.1 270.28 256.42C284.2 252.87 297.92 248.36 310.81 242.01C317.15 238.68 323.42 235.09 328.88 230.42C330.21 229.23 331.52 228 332.83 226.77L334.62 224.77C335.22 224.11 335.83 223.44 336.33 222.7C338.52 219.89 340.4 216.71 341.14 213.2H341.27V213.19Z" fill="#0E002B"/>
<path d="M296.51 260.51C296.51 260.51 297.17 401.13 366.49 394.2C435.82 387.26 459.3 250.63 459.3 250.63L493.89 261.27C493.89 261.27 461.04 445.92 538.62 413.75L543.67 433.3L515.12 535.15C515.12 535.15 332.3 575.42 271.83 514.66L247.86 396.72C247.86 396.72 279.82 356.95 272.67 270.87L296.5 260.51H296.51Z" fill="#E48A59"/>
<path d="M247.86 396.72L238.09 336.8L261.74 548.23L225.79 698.2H232.41L269.31 601.7L275.93 548.23L271.83 514.66L247.86 396.72Z" fill="#DE9796"/>
<path d="M543.67 433.3V336.8L533.58 467.36L543.67 433.3Z" fill="#DE9796"/>
<path d="M288.921 263.84C288.251 271.76 288.07 279.71 288.08 287.66C288.09 295.6 288.451 303.54 289.101 311.45C289.761 319.36 290.76 327.24 292.27 335.02C293.79 342.79 295.68 350.52 298.36 357.97C301.01 365.42 304.3 372.68 308.71 379.27C313.08 385.85 318.58 391.76 325.18 396.16C328.47 398.36 331.991 400.22 335.701 401.62C339.421 403 343.281 403.96 347.191 404.55C349.141 404.88 351.121 405.02 353.091 405.19C355.071 405.25 357.051 405.36 359.031 405.27C361.011 405.27 362.981 405.07 364.961 404.94C366.921 404.68 368.891 404.5 370.831 404.1C372.791 403.79 374.7 403.28 376.62 402.83C378.52 402.27 380.421 401.75 382.281 401.05C386.001 399.72 389.641 398.14 393.091 396.23C400.041 392.47 406.37 387.63 412.12 382.21C423.57 371.26 432.501 357.93 439.901 343.95C447.231 329.89 453.11 315.09 457.93 299.96C460.33 292.39 462.451 284.73 464.321 277.01C466.171 269.29 467.901 261.52 469.151 253.67L469.281 253.69C467.081 269.45 463.43 285 458.85 300.25C454.23 315.48 448.53 330.45 441.12 344.59C433.74 358.71 424.64 372.12 412.99 383.12C410.06 385.85 407.001 388.43 403.771 390.79C400.531 393.14 397.121 395.25 393.591 397.13C390.071 399.03 386.361 400.58 382.581 401.88C380.701 402.56 378.761 403.06 376.841 403.61C374.891 404.04 372.95 404.53 370.97 404.82C369.01 405.2 367.021 405.37 365.031 405.62C363.041 405.74 361.05 405.93 359.05 405.91C357.05 405.98 355.061 405.86 353.061 405.78C351.071 405.59 349.08 405.44 347.11 405.08C343.17 404.44 339.29 403.44 335.55 402.02C331.83 400.57 328.251 398.76 324.921 396.55C318.261 392.13 312.631 386.26 308.101 379.69C303.551 373.11 300.09 365.83 297.33 358.35C291.88 343.3 289.32 327.4 288.09 311.54C286.95 295.65 287.13 279.66 288.8 263.84H288.93H288.921Z" fill="#0E002B"/>
<path d="M452.56 465.54C452.56 468.92 427.66 463.79 425.19 466.83C423.21 469.27 437.9 491.15 434.56 493.26C431.82 495 416.45 473.15 412.93 474.62C409.86 475.9 415.3 502.07 411.72 503.1C408.47 504.04 398.76 479.11 395.15 479.83C391.8 480.5 392.53 507.25 388.91 507.7C385.49 508.13 379.53 482.04 375.92 482.25C372.46 482.46 369.72 509.08 366.12 509.08C362.52 509.08 359.78 482.45 356.32 482.25C352.71 482.03 346.75 508.12 343.33 507.7C339.72 507.25 340.45 480.5 337.09 479.83C333.48 479.11 323.76 504.04 320.51 503.1C316.93 502.06 322.38 475.9 319.3 474.62C315.78 473.15 300.4 494.99 297.66 493.26C294.33 491.15 309.02 469.27 307.04 466.83C304.57 463.8 279.67 468.92 279.67 465.55C279.67 462.18 304.57 467.3 307.04 464.26C309.02 461.82 294.33 439.94 297.67 437.83C300.41 436.09 315.78 457.94 319.3 456.47C322.37 455.19 316.93 429.03 320.51 427.99C323.76 427.05 333.47 451.98 337.08 451.26C340.43 450.59 339.7 423.84 343.32 423.39C346.74 422.96 352.7 449.05 356.31 448.84C359.77 448.63 362.51 422.01 366.11 422.01C369.71 422.01 372.45 448.64 375.91 448.84C379.52 449.06 385.48 422.97 388.9 423.39C392.51 423.84 391.78 450.59 395.14 451.26C398.75 451.98 408.47 427.05 411.72 427.99C415.3 429.03 409.85 455.19 412.93 456.47C416.45 457.94 431.83 436.1 434.57 437.83C437.9 439.94 423.21 461.82 425.19 464.26C427.66 467.29 452.56 462.17 452.56 465.54Z" fill="#F0C785"/>
<path d="M485.03 258.54C483.58 266.97 482.46 275.46 481.51 283.96C480.53 292.46 479.76 300.97 479.24 309.51C478.2 326.56 477.92 343.7 479.53 360.7C480.31 369.19 481.55 377.65 483.63 385.92C485.67 394.18 488.65 402.25 493.03 409.52C495.24 413.14 497.85 416.52 500.94 419.42C504.02 422.33 507.57 424.73 511.45 426.44C515.32 428.18 519.51 429.2 523.75 429.6C528 430 532.29 429.81 536.53 429.24C532.31 429.91 528.01 430.22 523.72 429.92C519.44 429.63 515.18 428.7 511.19 427.03C507.21 425.36 503.55 422.95 500.36 420.03C497.17 417.11 494.45 413.7 492.15 410.06C487.55 402.74 484.57 394.54 482.44 386.22C480.3 377.89 479.01 369.37 478.19 360.83C476.68 343.73 476.95 326.53 478.21 309.45C479.5 292.37 481.73 275.35 485.02 258.56L485.03 258.54Z" fill="#0E002B"/>
<path d="M280.66 267.44C281.59 280.48 281.82 293.56 281.61 306.63C281.39 319.71 280.59 332.78 279.16 345.79C277.58 358.77 275.44 371.75 271.61 384.3C269.69 390.56 267.4 396.74 264.3 402.53C261.18 408.27 257.33 413.77 252.15 417.81C257.13 413.54 260.82 408.03 263.72 402.23C266.67 396.43 268.85 390.26 270.63 384.01C274.22 371.49 276.37 358.59 277.84 345.64C279.38 332.69 280.15 319.65 280.59 306.61C280.82 300.09 280.91 293.56 280.92 287.03C280.95 280.5 280.86 273.97 280.66 267.44Z" fill="#0E002B"/>
<path d="M625.98 1029.78H412.17L395.78 849.58L382.84 1029.78H206.88C206.88 1029.78 204.97 794.98 227.61 698.2C236.85 658.77 250.14 623.34 269.32 601.69C269.32 601.69 269.33 601.7 269.36 601.72C272.01 603.14 395.64 669.14 528.51 608.33C528.52 608.32 528.54 608.32 528.54 608.32C528.54 608.32 534.64 619.4 543.82 638.07L527.6 684H565.08C592.72 747.4 626 953.49 626 1029.78H625.98Z" fill="#383995"/>
<path d="M364.85 742.7H15.29C6.83999 742.7 0 735.85 0 727.41C0 718.96 6.84999 712.11 15.29 712.11H364.86C373.31 712.11 380.15 718.96 380.15 727.41C380.15 735.86 373.3 742.7 364.86 742.7H364.85Z" fill="#E48A59"/>
<path d="M86.7197 637.84H61.4297V816.76H86.7197V637.84Z" fill="#0E002B"/>
<path d="M61.4295 816.97C84.1616 816.97 102.59 776.872 102.59 727.41C102.59 677.947 84.1616 637.85 61.4295 637.85C38.6975 637.85 20.2695 677.947 20.2695 727.41C20.2695 776.872 38.6975 816.97 61.4295 816.97Z" fill="#0E002B"/>
<path d="M83.91 816.97C106.642 816.97 125.07 776.872 125.07 727.41C125.07 677.947 106.642 637.85 83.91 637.85C61.178 637.85 42.75 677.947 42.75 727.41C42.75 776.872 61.178 816.97 83.91 816.97Z" fill="#5B5ABB"/>
<path d="M110.09 727.41C110.09 735.86 103.38 742.7 95.1099 742.7C86.8399 742.7 80.1299 735.85 80.1299 727.41C80.1299 718.97 86.8399 712.11 95.1099 712.11C103.38 712.11 110.09 718.96 110.09 727.41Z" fill="#E48A59"/>
<path d="M163.43 712.11H93.5098V742.7H163.43V712.11Z" fill="#E48A59"/>
<path d="M76.0102 817.04C73.7902 817.06 71.5602 816.71 69.4302 816.05C67.2902 815.37 65.2902 814.33 63.4102 813.11C59.7202 810.57 56.5102 807.36 53.8702 803.76C48.5502 796.56 44.8302 788.34 42.0902 779.9C39.3502 771.43 37.7102 762.68 36.4502 753.91C35.8802 749.51 35.4102 745.11 35.0702 740.69C34.7702 736.27 34.5502 731.84 34.4902 727.41C34.3302 709.7 36.3502 691.79 41.9702 674.87C44.7702 666.44 48.5402 658.23 53.9002 651.06C56.5602 647.48 59.7402 644.25 63.4302 641.71C65.3102 640.49 67.3002 639.44 69.4402 638.76C71.5802 638.1 73.8002 637.75 76.0202 637.76V637.89C73.8102 637.97 71.6402 638.41 69.5802 639.15C67.5202 639.9 65.6202 641.03 63.8102 642.24C60.2602 644.8 57.2202 648.04 54.6802 651.62C52.1202 655.19 49.9802 659.04 48.1202 663.02C46.2802 667.01 44.6402 671.1 43.2702 675.28C37.8402 692.04 35.4702 709.73 35.2202 727.39C35.1302 736.22 35.6102 745.08 36.9102 753.83C38.2002 762.57 40.2702 771.21 43.1402 779.54C44.5402 783.72 46.2002 787.8 48.0702 791.78C49.9502 795.75 52.1202 799.59 54.7002 803.14C57.2602 806.7 60.2702 809.95 63.8202 812.52C65.6302 813.74 67.5202 814.86 69.5802 815.62C71.6402 816.36 73.8102 816.8 76.0202 816.89V817.02L76.0102 817.04Z" fill="#F0C785"/>
<path d="M67.6801 817.04C65.4601 817.06 63.2301 816.71 61.1001 816.05C58.9601 815.37 56.9601 814.33 55.0801 813.11C51.3901 810.57 48.1801 807.36 45.5401 803.76C40.2201 796.56 36.5001 788.34 33.7601 779.9C31.0201 771.43 29.3801 762.68 28.1201 753.91C27.5501 749.51 27.0801 745.11 26.7401 740.69C26.4401 736.27 26.2201 731.84 26.1601 727.41C26.0001 709.7 28.0201 691.79 33.6401 674.87C36.4401 666.44 40.2101 658.23 45.5701 651.06C48.2301 647.48 51.4101 644.25 55.1001 641.71C56.9801 640.49 58.9701 639.44 61.1101 638.76C63.2401 638.1 65.4701 637.75 67.6901 637.76V637.89C65.4801 637.97 63.3101 638.41 61.2501 639.15C59.1901 639.9 57.2901 641.03 55.4801 642.24C51.9301 644.8 48.8901 648.04 46.3501 651.62C43.7901 655.19 41.6501 659.04 39.7901 663.02C37.9501 667.01 36.3101 671.1 34.9401 675.28C29.5101 692.04 27.1401 709.73 26.8901 727.39C26.8001 736.22 27.2801 745.08 28.5801 753.83C29.8701 762.57 31.9401 771.21 34.8101 779.54C36.2101 783.72 37.8701 787.8 39.7401 791.78C41.6201 795.75 43.7901 799.59 46.3701 803.14C48.9301 806.7 51.9401 809.95 55.4901 812.52C57.3001 813.74 59.1901 814.86 61.2501 815.62C63.3101 816.36 65.4801 816.8 67.6901 816.89V817.02L67.6801 817.04Z" fill="#F0C785"/>
<path d="M280.34 816.97C303.072 816.97 321.5 776.872 321.5 727.41C321.5 677.947 303.072 637.85 280.34 637.85C257.608 637.85 239.18 677.947 239.18 727.41C239.18 776.872 257.608 816.97 280.34 816.97Z" fill="#0E002B"/>
<path d="M302.81 637.84H283.15V816.76H302.81V637.84Z" fill="#0E002B"/>
<path d="M302.82 816.97C325.552 816.97 343.98 776.872 343.98 727.41C343.98 677.947 325.552 637.85 302.82 637.85C280.088 637.85 261.66 677.947 261.66 727.41C261.66 776.872 280.088 816.97 302.82 816.97Z" fill="#5B5ABB"/>
<path d="M329 727.41C329 735.86 322.29 742.7 314.02 742.7C305.75 742.7 299.04 735.85 299.04 727.41C299.04 718.97 305.75 712.11 314.02 712.11C322.29 712.11 329 718.96 329 727.41Z" fill="#E48A59"/>
<path d="M347.46 712.11H314.01V742.7H347.46V712.11Z" fill="#E48A59"/>
<path d="M294.92 817.04C292.7 817.06 290.47 816.71 288.34 816.05C286.2 815.37 284.2 814.33 282.32 813.11C278.63 810.57 275.42 807.36 272.78 803.76C267.46 796.56 263.74 788.34 261 779.9C258.26 771.43 256.62 762.68 255.36 753.91C254.79 749.51 254.32 745.11 253.98 740.69C253.68 736.27 253.46 731.84 253.4 727.41C253.24 709.7 255.26 691.79 260.88 674.87C263.68 666.44 267.45 658.23 272.81 651.06C275.47 647.48 278.65 644.25 282.34 641.71C284.22 640.49 286.21 639.44 288.35 638.76C290.48 638.1 292.71 637.75 294.93 637.76V637.89C292.72 637.97 290.55 638.41 288.49 639.15C286.43 639.9 284.53 641.03 282.72 642.24C279.17 644.8 276.13 648.04 273.59 651.62C271.03 655.19 268.89 659.04 267.03 663.02C265.19 667.01 263.55 671.1 262.18 675.28C256.75 692.04 254.38 709.73 254.13 727.39C254.04 736.22 254.52 745.08 255.82 753.83C257.11 762.57 259.18 771.21 262.05 779.54C263.45 783.72 265.11 787.8 266.98 791.78C268.86 795.75 271.03 799.59 273.61 803.14C276.17 806.7 279.18 809.95 282.73 812.52C284.54 813.74 286.43 814.86 288.49 815.62C290.55 816.36 292.72 816.8 294.93 816.89V817.02L294.92 817.04Z" fill="#F0C785"/>
<path d="M286.59 817.04C284.37 817.06 282.14 816.71 280.01 816.05C277.87 815.37 275.87 814.33 273.99 813.11C270.3 810.57 267.09 807.36 264.45 803.76C259.13 796.56 255.41 788.34 252.67 779.9C249.93 771.43 248.29 762.68 247.03 753.91C246.46 749.51 245.99 745.11 245.65 740.69C245.35 736.27 245.13 731.84 245.07 727.41C244.91 709.7 246.93 691.79 252.55 674.87C255.35 666.44 259.12 658.23 264.48 651.06C267.14 647.48 270.32 644.25 274.01 641.71C275.89 640.49 277.88 639.44 280.02 638.76C282.15 638.1 284.38 637.75 286.6 637.76V637.89C284.39 637.97 282.22 638.41 280.16 639.15C278.1 639.9 276.2 641.03 274.39 642.24C270.84 644.8 267.8 648.04 265.26 651.62C262.7 655.19 260.56 659.04 258.7 663.02C256.86 667.01 255.22 671.1 253.85 675.28C248.42 692.04 246.05 709.73 245.8 727.39C245.71 736.22 246.19 745.08 247.49 753.83C248.78 762.57 250.85 771.21 253.72 779.54C255.12 783.72 256.78 787.8 258.65 791.78C260.53 795.75 262.7 799.59 265.28 803.14C267.84 806.7 270.85 809.95 274.4 812.52C276.21 813.74 278.1 814.86 280.16 815.62C282.22 816.36 284.39 816.8 286.6 816.89V817.02L286.59 817.04Z" fill="#F0C785"/>
<path d="M217.74 765.19C205.93 765.19 197.13 755.82 199.59 745.86L213.63 688.97C214.76 684.41 219.43 681.15 224.84 681.15C231.17 681.15 236.3 685.57 236.3 691.03V749.19C236.3 758.03 227.99 765.19 217.74 765.19Z" fill="#EAADAC"/>
<path d="M192.18 765.19C180.37 765.19 171.57 755.82 174.03 745.86L188.07 688.97C189.2 684.41 193.87 681.15 199.28 681.15C205.61 681.15 210.74 685.57 210.74 691.03V749.19C210.74 758.03 202.43 765.19 192.18 765.19Z" fill="#EAADAC"/>
<path d="M165.75 765.19C153.94 765.19 145.14 755.82 147.6 745.86L161.64 688.97C162.77 684.41 167.44 681.15 172.85 681.15C179.18 681.15 184.31 685.57 184.31 691.03V749.19C184.31 758.03 176 765.19 165.75 765.19Z" fill="#EAADAC"/>
<path d="M137.1 765.19C125.29 765.19 116.49 755.82 118.95 745.86L132.99 688.97C134.12 684.41 138.79 681.15 144.2 681.15C150.53 681.15 155.66 685.57 155.66 691.03V749.19C155.66 758.03 147.35 765.19 137.1 765.19Z" fill="#EAADAC"/>
<path d="M210.81 700.69C210.27 710.51 209.7 720.32 209.09 730.13C208.8 735.04 208.58 739.95 208.13 744.84C207.65 749.73 207.18 754.63 206.44 759.5H206.31C206.3 754.56 206.56 749.65 206.81 744.74C207.09 739.83 207.6 734.94 208.04 730.05C208.89 720.26 209.77 710.47 210.69 700.68H210.82L210.81 700.69Z" fill="#0E002B"/>
<path d="M184.34 703.52C183.81 712.87 183.24 722.21 182.63 731.55C182.34 736.22 182.13 740.9 181.68 745.56C181.2 750.22 180.74 754.87 180 759.51H179.87C179.85 754.8 180.12 750.13 180.36 745.46C180.63 740.79 181.14 736.13 181.58 731.47C182.42 722.15 183.3 712.83 184.21 703.51H184.34V703.52Z" fill="#0E002B"/>
<path d="M155.72 711.4C155.3 719.31 154.84 727.21 154.35 735.11C154.12 739.06 153.96 743.02 153.57 746.96C153.14 750.9 152.74 754.83 152.06 758.75H151.93C151.86 754.76 152.07 750.81 152.25 746.86C152.47 742.91 152.92 738.97 153.3 735.03C154.03 727.15 154.79 719.27 155.6 711.39H155.73L155.72 711.4Z" fill="#0E002B"/>
<path d="M262.72 622.46C273.2 627.82 284.23 632.01 295.35 635.81C306.5 639.53 317.86 642.61 329.33 645.18C352.24 650.4 375.8 653.22 399.34 652.76C405.22 652.79 411.1 652.39 416.97 652.13C422.83 651.62 428.7 651.26 434.53 650.49C446.22 649.24 457.8 647.13 469.3 644.73C475.03 643.4 480.77 642.15 486.42 640.54C489.26 639.77 492.11 639.06 494.93 638.24L503.35 635.63L507.56 634.32C508.96 633.86 510.33 633.34 511.72 632.86L520.03 629.9C525.55 627.86 530.99 625.62 536.48 623.48L536.53 623.6L528.42 627.11L524.36 628.86L522.33 629.73L520.26 630.51L511.98 633.62C510.6 634.13 509.23 634.67 507.83 635.16L503.63 636.54L495.23 639.31C492.42 640.19 489.56 640.95 486.73 641.77C481.08 643.49 475.3 644.7 469.56 646.07C466.7 646.8 463.78 647.24 460.89 647.83C457.99 648.35 455.11 649.03 452.18 649.41L443.42 650.7C440.51 651.17 437.56 651.38 434.63 651.73C428.77 652.47 422.87 652.73 416.99 653.14C411.09 653.3 405.2 653.6 399.31 653.48C393.41 653.53 387.53 653.18 381.64 652.96L372.82 652.35C369.88 652.13 366.95 651.81 364.02 651.55C352.3 650.32 340.61 648.67 329.06 646.24C317.52 643.8 306.14 640.59 294.98 636.75C283.87 632.8 272.91 628.33 262.61 622.56L262.68 622.44L262.72 622.46Z" fill="#0E002B"/>
<path d="M713.21 713.499H347.71C339.26 713.499 332.42 706.649 332.42 698.199C332.42 689.749 339.27 682.909 347.71 682.909H713.21C721.66 682.909 728.5 689.759 728.5 698.199C728.5 706.649 721.65 713.499 713.21 713.499Z" fill="#E48A59"/>
<path d="M422.789 608.64H396.439V787.56H422.789V608.64Z" fill="#0E002B"/>
<path d="M396.44 787.76C420.127 787.76 439.33 747.662 439.33 698.2C439.33 648.737 420.127 608.64 396.44 608.64C372.752 608.64 353.55 648.737 353.55 698.2C353.55 747.662 372.752 787.76 396.44 787.76Z" fill="#0E002B"/>
<path d="M419.85 787.76C443.537 787.76 462.74 747.662 462.74 698.2C462.74 648.737 443.537 608.64 419.85 608.64C396.162 608.64 376.96 648.737 376.96 698.2C376.96 747.662 396.162 787.76 419.85 787.76Z" fill="#5B5ABB"/>
<path d="M431.52 713.489C440.141 713.489 447.13 706.644 447.13 698.199C447.13 689.755 440.141 682.909 431.52 682.909C422.899 682.909 415.91 689.755 415.91 698.199C415.91 706.644 422.899 713.489 431.52 713.489Z" fill="#E48A59"/>
<path d="M512.169 682.909H431.52V713.499H512.169V682.909Z" fill="#E48A59"/>
<path d="M411.63 787.83C409.39 787.84 407.14 787.53 404.97 786.92C402.82 786.25 400.75 785.299 398.82 784.109C395.01 781.679 391.69 778.509 388.89 774.979C383.32 767.859 379.38 759.63 376.46 751.15C373.55 742.64 371.8 733.809 370.46 724.969C369.86 720.529 369.35 716.089 368.99 711.619C368.67 707.159 368.45 702.68 368.38 698.2C368.21 680.31 370.39 662.22 376.34 645.21C379.31 636.74 383.3 628.52 388.92 621.44C391.74 617.93 395.03 614.74 398.84 612.31C400.76 611.12 402.83 610.169 404.98 609.489C407.15 608.869 409.4 608.56 411.64 608.57V608.7C409.41 608.78 407.21 609.19 405.11 609.89C403.02 610.64 401.06 611.669 399.19 612.859C395.51 615.329 392.37 618.52 389.67 622.03C386.99 625.56 384.72 629.4 382.76 633.38C380.81 637.36 379.08 641.46 377.63 645.66C371.88 662.5 369.35 680.37 369.11 698.19C369.02 707.11 369.54 716.06 370.92 724.88C372.3 733.7 374.47 742.4 377.51 750.76C378.99 754.96 380.75 759.05 382.72 763.02C384.71 766.99 387 770.81 389.7 774.33C392.41 777.82 395.53 781.039 399.2 783.499C401.06 784.689 403.02 785.719 405.11 786.479C407.21 787.179 409.41 787.59 411.64 787.68V787.81L411.63 787.83Z" fill="#F0C785"/>
<path d="M402.94 787.83C400.7 787.84 398.45 787.53 396.28 786.92C394.13 786.25 392.06 785.299 390.13 784.109C386.32 781.679 383 778.509 380.2 774.979C374.63 767.859 370.69 759.63 367.77 751.15C364.86 742.64 363.11 733.809 361.77 724.969C361.17 720.529 360.66 716.089 360.3 711.619C359.98 707.159 359.76 702.68 359.69 698.2C359.52 680.31 361.7 662.22 367.65 645.21C370.62 636.74 374.61 628.52 380.23 621.44C383.05 617.93 386.34 614.74 390.15 612.31C392.07 611.12 394.14 610.169 396.29 609.489C398.46 608.869 400.71 608.56 402.95 608.57V608.7C400.72 608.78 398.52 609.19 396.42 609.89C394.33 610.64 392.37 611.669 390.5 612.859C386.82 615.329 383.68 618.52 380.98 622.03C378.3 625.56 376.03 629.4 374.07 633.38C372.12 637.36 370.39 641.46 368.94 645.66C363.19 662.5 360.66 680.37 360.42 698.19C360.33 707.11 360.85 716.06 362.23 724.88C363.61 733.7 365.78 742.4 368.82 750.76C370.3 754.96 372.06 759.05 374.03 763.02C376.02 766.99 378.31 770.81 381.01 774.33C383.72 777.82 386.84 781.039 390.51 783.499C392.37 784.689 394.33 785.719 396.42 786.479C398.52 787.179 400.72 787.59 402.95 787.68V787.81L402.94 787.83Z" fill="#F0C785"/>
<path d="M624.52 787.76C648.207 787.76 667.41 747.662 667.41 698.2C667.41 648.737 648.207 608.64 624.52 608.64C600.832 608.64 581.63 648.737 581.63 698.2C581.63 747.662 600.832 787.76 624.52 787.76Z" fill="#0E002B"/>
<path d="M647.93 608.64H627.45V787.56H647.93V608.64Z" fill="#0E002B"/>
<path d="M647.93 787.76C671.618 787.76 690.82 747.662 690.82 698.2C690.82 648.737 671.618 608.64 647.93 608.64C624.243 608.64 605.04 648.737 605.04 698.2C605.04 747.662 624.243 787.76 647.93 787.76Z" fill="#5B5ABB"/>
<path d="M659.6 713.489C668.221 713.489 675.21 706.644 675.21 698.199C675.21 689.755 668.221 682.909 659.6 682.909C650.979 682.909 643.99 689.755 643.99 698.199C643.99 706.644 650.979 713.489 659.6 713.489Z" fill="#E48A59"/>
<path d="M694.45 682.909H659.6V713.499H694.45V682.909Z" fill="#E48A59"/>
<path d="M639.71 787.83C637.46 787.84 635.22 787.53 633.05 786.92C630.9 786.25 628.83 785.299 626.9 784.109C623.09 781.679 619.77 778.509 616.97 774.979C611.4 767.859 607.46 759.63 604.54 751.15C601.63 742.64 599.88 733.809 598.54 724.969C597.94 720.529 597.43 716.089 597.07 711.619C596.75 707.159 596.53 702.68 596.46 698.2C596.29 680.31 598.47 662.22 604.42 645.21C607.39 636.74 611.38 628.52 617 621.44C619.82 617.93 623.11 614.74 626.92 612.31C628.84 611.12 630.91 610.169 633.06 609.489C635.23 608.869 637.48 608.56 639.72 608.57V608.7C637.49 608.78 635.29 609.19 633.19 609.89C631.1 610.64 629.14 611.669 627.27 612.859C623.59 615.329 620.45 618.52 617.75 622.03C615.07 625.56 612.8 629.4 610.84 633.38C608.89 637.36 607.16 641.46 605.71 645.66C599.96 662.5 597.43 680.37 597.19 698.19C597.1 707.11 597.62 716.06 599 724.88C600.38 733.7 602.55 742.4 605.59 750.76C607.07 754.96 608.83 759.05 610.8 763.02C612.79 766.99 615.08 770.81 617.78 774.33C620.49 777.82 623.61 781.039 627.28 783.499C629.14 784.689 631.1 785.719 633.19 786.479C635.29 787.179 637.49 787.59 639.72 787.68V787.81L639.71 787.83Z" fill="#F0C785"/>
<path d="M631.03 787.83C628.79 787.84 626.54 787.53 624.37 786.92C622.22 786.25 620.15 785.299 618.22 784.109C614.41 781.679 611.09 778.509 608.29 774.979C602.72 767.859 598.78 759.63 595.86 751.15C592.95 742.64 591.2 733.809 589.86 724.969C589.26 720.529 588.75 716.089 588.39 711.619C588.07 707.159 587.85 702.68 587.78 698.2C587.61 680.31 589.79 662.22 595.74 645.21C598.71 636.74 602.7 628.52 608.32 621.44C611.14 617.93 614.43 614.74 618.24 612.31C620.16 611.12 622.23 610.169 624.38 609.489C626.55 608.869 628.8 608.56 631.04 608.57V608.7C628.81 608.78 626.61 609.19 624.51 609.89C622.42 610.64 620.46 611.669 618.59 612.859C614.91 615.329 611.77 618.52 609.07 622.03C606.39 625.56 604.12 629.4 602.16 633.38C600.21 637.36 598.48 641.46 597.03 645.66C591.28 662.5 588.75 680.37 588.51 698.19C588.42 707.11 588.94 716.06 590.32 724.88C591.7 733.7 593.87 742.4 596.91 750.76C598.39 754.96 600.15 759.05 602.12 763.02C604.11 766.99 606.4 770.81 609.1 774.33C611.81 777.82 614.93 781.039 618.6 783.499C620.46 784.689 622.42 785.719 624.51 786.479C626.61 787.179 628.81 787.59 631.04 787.68V787.81L631.03 787.83Z" fill="#F0C785"/>
<path d="M481.58 651.03C493.39 651.03 502.189 660.4 499.729 670.36L485.69 727.25C484.56 731.81 479.889 735.07 474.479 735.07C468.149 735.07 463.02 730.65 463.02 725.19V667.03C463.02 658.19 471.33 651.03 481.58 651.03Z" fill="#EAADAC"/>
<path d="M507.15 651.03C518.96 651.03 527.76 660.4 525.31 670.36L511.27 727.25C510.14 731.81 505.47 735.07 500.06 735.07C493.73 735.07 488.6 730.65 488.6 725.19V667.03C488.6 658.19 496.91 651.03 507.16 651.03H507.15Z" fill="#EAADAC"/>
<path d="M533.57 651.03C545.38 651.03 554.18 660.4 551.72 670.36L537.68 727.25C536.55 731.81 531.88 735.07 526.47 735.07C520.14 735.07 515.01 730.65 515.01 725.19V667.03C515.01 658.19 523.32 651.03 533.57 651.03Z" fill="#EAADAC"/>
<path d="M562.23 651.03C574.04 651.03 582.84 660.4 580.38 670.36L566.34 727.25C565.21 731.81 560.54 735.07 555.13 735.07C548.8 735.07 543.67 730.65 543.67 725.19V667.03C543.67 658.19 551.98 651.03 562.23 651.03Z" fill="#EAADAC"/>
<path d="M395.77 849.58L385.36 792.18L360.05 1029.78H382.83L395.77 849.58Z" fill="#0E002B"/>
<path d="M488.52 715.53C489.06 705.71 489.63 695.9 490.24 686.09C490.53 681.18 490.75 676.27 491.2 671.38C491.69 666.49 492.15 661.59 492.89 656.72H493.02C493.04 661.66 492.77 666.57 492.52 671.48C492.24 676.39 491.73 681.28 491.29 686.17C490.44 695.96 489.56 705.75 488.64 715.54H488.51L488.52 715.53Z" fill="#0E002B"/>
<path d="M514.99 712.7C515.52 703.35 516.09 694.01 516.7 684.67C516.99 680 517.2 675.32 517.65 670.66C518.13 666 518.59 661.35 519.33 656.71H519.46C519.48 661.42 519.21 666.09 518.97 670.76C518.7 675.43 518.19 680.09 517.75 684.75C516.91 694.07 516.03 703.39 515.12 712.71H514.99V712.7Z" fill="#0E002B"/>
<path d="M543.6 704.82C544.02 696.91 544.48 689.01 544.97 681.11C545.2 677.16 545.36 673.2 545.75 669.26C546.18 665.32 546.58 661.39 547.26 657.47H547.39C547.46 661.46 547.25 665.41 547.07 669.36C546.85 673.31 546.4 677.25 546.02 681.19C545.29 689.07 544.53 696.95 543.72 704.83H543.59L543.6 704.82Z" fill="#0E002B"/>
<path d="M577.66 681.13C578.03 678.75 578.51 676.4 578.99 674.05L579.76 670.54C580 669.39 580.18 668.27 580.18 667.11C580.2 664.82 579.74 662.5 578.7 660.4C577.69 658.28 576.09 656.43 574.15 655.07C572.24 653.67 570 652.75 567.72 652.23C565.44 651.69 563.08 651.54 560.76 651.73C556.13 652.15 551.65 654.05 548.31 657.27L547.87 657.7L547.48 657.27C545.19 654.76 542.2 652.89 538.88 651.77L538.91 651.64C542.37 652.26 545.74 653.91 548.31 656.48H547.48C550.81 652.76 555.76 650.68 560.68 650.47C565.63 650.14 570.57 651.81 574.42 654.73C576.34 656.21 578.04 657.98 579.33 660.08C580.6 662.17 581.4 664.63 581.37 667.14C581.39 668.39 581.13 669.64 580.86 670.83L579.91 674.3C579.25 676.61 578.58 678.91 577.79 681.19L577.66 681.16V681.13Z" fill="#0E002B"/>
<path d="M230.28 682.4C227.79 681.37 225.03 681.21 222.46 681.75C219.9 682.3 217.51 683.66 215.9 685.65C215.1 686.65 214.51 687.8 214.2 689.03C213.88 690.33 213.59 691.66 213.25 692.96C212.58 695.58 211.93 698.2 211.19 700.8L210.17 704.41L210.27 700.69L210.46 693.59C210.47 692.41 210.53 691.2 210.45 690.07C210.32 688.93 209.96 687.8 209.39 686.8C208.23 684.8 206.33 683.24 204.18 682.41C202.03 681.55 199.64 681.36 197.39 681.73C195.14 682.14 193 683.12 191.36 684.66C190.55 685.43 189.86 686.32 189.36 687.31C188.85 688.29 188.63 689.37 188.35 690.55C187.28 695.16 186.13 699.75 184.97 704.34L183.66 709.55L183.64 704.18C183.62 699.77 183.77 695.35 183.81 690.94C183.86 688.85 183.04 686.77 181.63 685.15C180.24 683.52 178.34 682.31 176.24 681.65L176.27 681.52C178.43 682.02 180.51 683.08 182.1 684.72C183.68 686.35 184.73 688.58 184.8 690.92C184.86 695.34 184.99 699.75 184.98 704.17L183.65 704.01C184.76 699.41 185.88 694.81 187.08 690.23C187.37 689.12 187.64 687.86 188.26 686.74C188.85 685.62 189.65 684.63 190.58 683.81C192.46 682.16 194.83 681.16 197.25 680.86C199.67 680.58 202.17 680.9 204.38 681.9C206.59 682.86 208.56 684.47 209.73 686.6C210.33 687.65 210.75 688.81 210.9 690.02C211.02 691.25 210.96 692.4 211.01 693.6L211.2 700.7L210.28 700.59C210.84 697.95 211.48 695.32 212.1 692.69C212.4 691.37 212.75 690.08 213.1 688.76C213.48 687.37 214.17 686.08 215.09 685C216.91 682.79 219.6 681.49 222.32 681.04C225.06 680.59 227.93 681.02 230.33 682.3L230.27 682.42L230.28 682.4Z" fill="#0E002B"/>
</svg>
