<svg width="228" height="228" viewBox="0 0 228 228" fill="none" xmlns="http://www.w3.org/2000/svg">
<path d="M113.565 218.265C171.389 218.265 218.265 171.389 218.265 113.565C218.265 55.741 171.389 8.86523 113.565 8.86523C55.741 8.86523 8.86523 55.741 8.86523 113.565C8.86523 171.389 55.741 218.265 113.565 218.265Z" fill="white"/>
<path d="M113.565 226.645C176.018 226.645 226.645 176.018 226.645 113.565C226.645 51.113 176.018 0.485352 113.565 0.485352C51.113 0.485352 0.485352 51.113 0.485352 113.565C0.485352 176.018 51.113 226.645 113.565 226.645Z" stroke="black" stroke-width="0.97" stroke-miterlimit="10"/>
<mask id="mask0_227_207" style="mask-type:luminance" maskUnits="userSpaceOnUse" x="8" y="8" width="211" height="211">
<path d="M113.565 218.265C171.389 218.265 218.265 171.389 218.265 113.565C218.265 55.741 171.389 8.86523 113.565 8.86523C55.741 8.86523 8.86523 55.741 8.86523 113.565C8.86523 171.389 55.741 218.265 113.565 218.265Z" fill="white"/>
</mask>
<g mask="url(#mask0_227_207)">
<path d="M63.3848 109.935C59.0048 109.535 55.1348 106.415 53.2248 102.445C51.3248 98.4749 51.2448 93.8049 52.3748 89.5549C49.5748 88.5549 47.5748 85.5049 47.0448 82.5749C45.9048 76.3249 49.4048 69.5249 55.1448 66.8049C53.6048 64.5649 53.6648 61.7449 54.1548 59.0749C55.4348 52.1149 61.6348 46.3649 68.6748 45.6149C69.0448 40.6749 72.2348 35.9049 76.6348 33.6349C81.0348 31.3649 86.7848 31.7949 90.5948 34.9649C93.0448 29.9949 98.2148 25.9549 103.715 25.3849C109.225 24.8149 114.945 27.2449 118.365 31.6049C120.615 29.2549 124.175 27.8749 127.385 27.3249C131.575 26.6049 136.065 27.0049 139.785 29.0549C143.505 31.1049 146.345 34.9749 146.575 39.2149C150.765 38.7349 155.875 40.3249 158.835 43.3349C161.795 46.3449 163.265 50.7449 162.715 54.9249C166.595 55.0749 169.805 57.8949 171.305 61.4749C172.805 65.0549 172.465 69.2549 170.865 72.7949C175.355 74.3149 178.755 78.4949 179.525 83.1749C180.295 87.8549 178.295 92.8749 174.535 95.7549C175.915 100.455 173.785 106.365 170.135 109.625C166.485 112.885 160.665 113.565 156.515 110.965C153.715 109.205 149.995 109.765 146.695 110.005C140.215 110.465 133.705 109.975 127.215 109.635C105.935 108.535 84.6048 111.885 63.3848 109.925V109.935Z" fill="black"/>
<path d="M153.755 99.3247C153.755 122.095 139.275 149.275 112.525 149.275C85.7749 149.275 71.2949 122.095 71.2949 99.3247C71.2949 76.5547 89.7549 58.0947 112.525 58.0947C135.295 58.0947 153.755 76.5547 153.755 99.3247Z" fill="#C35F39"/>
<path d="M70.1846 85.615C74.2146 87.255 79.0046 86.255 82.4546 83.535C85.9046 80.815 88.0546 76.565 88.8046 72.145C91.8946 74.545 96.2246 76.565 100.045 76.005C103.865 75.445 107.455 72.985 109.155 69.385C111.335 72.285 114.625 74.095 118.175 74.085C121.725 74.075 125.225 72.275 127.385 69.365C128.885 72.135 129.885 75.045 132.365 76.915C134.845 78.785 138.045 79.795 141.025 79.075C141.855 81.795 143.145 84.515 145.535 85.945C147.915 87.375 150.815 87.845 153.505 87.245C151.975 77.025 146.325 67.775 138.135 61.865C129.945 55.955 119.695 53.365 109.735 54.095C99.7746 54.825 90.1446 58.755 82.0146 64.765C75.5746 69.525 70.6246 77.435 70.1846 85.615Z" fill="black"/>
<path d="M75.8852 101.695C77.9752 98.7446 79.0552 95.1946 79.6852 91.6446C80.3852 87.7146 80.5352 83.4446 78.6052 79.9446C78.0052 78.8646 77.1952 77.8646 76.1052 77.3046C74.1652 76.3146 71.6952 76.9346 70.0452 78.3546C68.3952 79.7746 67.4252 81.8246 66.7452 83.8846C64.7552 89.9446 64.8852 96.4746 66.0152 102.685C66.5552 105.645 66.4452 107.885 69.8752 106.565C72.3052 105.625 74.3952 103.805 75.8952 101.695H75.8852Z" fill="black"/>
<path d="M150.885 101.695C148.795 98.7446 147.715 95.1946 147.085 91.6446C146.385 87.7146 146.235 83.4446 148.165 79.9446C148.765 78.8646 149.575 77.8646 150.665 77.3046C152.605 76.3146 155.075 76.9346 156.725 78.3546C158.375 79.7746 159.345 81.8246 160.025 83.8846C162.015 89.9446 161.885 96.4746 160.755 102.685C160.215 105.645 160.325 107.885 156.895 106.565C154.465 105.625 152.375 103.805 150.875 101.695H150.885Z" fill="black"/>
<path d="M164.705 106.264C164.155 109.204 162.525 111.924 160.465 113.964C159.065 115.344 157.425 116.464 155.675 116.934C153.925 117.404 152.055 117.194 150.665 116.124C149.395 115.144 148.595 113.534 148.205 111.804C147.315 107.814 148.525 103.174 150.975 99.6944C152.675 97.2844 155.095 95.3144 157.685 94.9844C162.915 94.3244 165.685 101.064 164.705 106.264Z" fill="#C35F39"/>
<g style="mix-blend-mode:multiply">
<path d="M149.984 112.385C151.234 112.315 152.484 111.865 153.544 111.105C153.864 110.875 154.194 110.545 154.184 110.145C154.184 109.915 154.054 109.715 153.934 109.535C153.224 108.455 152.334 107.505 151.314 106.755C152.054 105.085 152.804 103.395 153.914 101.965C155.024 100.535 156.534 99.3748 158.234 99.1448C159.934 98.9048 161.784 99.7748 162.434 101.445C162.434 101.445 164.714 106.255 159.344 111.465C153.684 116.955 149.984 112.385 149.984 112.385Z" fill="#C35F39"/>
</g>
<path d="M162.424 101.444C161.784 100.254 160.544 99.6145 159.344 99.5345C158.134 99.4445 156.984 99.9545 156.024 100.704C155.064 101.464 154.294 102.444 153.644 103.534C153.004 104.624 152.444 105.804 151.894 107.004L151.694 106.234C152.354 106.754 152.954 107.354 153.484 107.994C153.744 108.324 153.984 108.664 154.204 109.014C154.314 109.194 154.424 109.354 154.534 109.614C154.654 109.864 154.684 110.244 154.564 110.534C154.324 111.104 153.874 111.334 153.534 111.544C153.174 111.754 152.784 111.914 152.394 112.054C151.614 112.314 150.794 112.454 149.984 112.384C150.774 112.224 151.514 111.974 152.184 111.594C152.524 111.404 152.834 111.184 153.134 110.954C153.444 110.724 153.694 110.464 153.724 110.264C153.734 110.174 153.724 110.134 153.664 110.024C153.604 109.924 153.484 109.764 153.364 109.614C153.134 109.314 152.884 109.024 152.624 108.754C152.114 108.204 151.544 107.704 150.934 107.274L150.524 106.984L150.734 106.504C151.254 105.284 151.784 104.034 152.514 102.864C153.234 101.684 154.154 100.564 155.344 99.7645C156.504 98.9645 158.024 98.4645 159.464 98.7845C160.874 99.0745 162.124 100.124 162.434 101.454L162.424 101.444Z" fill="black"/>
<path d="M59.2048 106.264C59.7548 109.204 61.3848 111.924 63.4448 113.964C64.8448 115.344 66.4848 116.464 68.2348 116.934C69.9848 117.404 71.8548 117.194 73.2448 116.124C74.5148 115.144 75.3148 113.534 75.7048 111.804C76.5948 107.814 75.3848 103.174 72.9348 99.6944C71.2348 97.2844 68.8148 95.3144 66.2248 94.9844C60.9948 94.3244 58.2248 101.064 59.2048 106.264Z" fill="#C35F39"/>
<g style="mix-blend-mode:multiply">
<path d="M73.9247 112.385C72.6747 112.315 71.4247 111.865 70.3747 111.105C70.0547 110.875 69.7247 110.545 69.7347 110.145C69.7347 109.915 69.8647 109.715 69.9847 109.535C70.6947 108.455 71.5847 107.505 72.6047 106.755C71.8647 105.085 71.1147 103.395 70.0047 101.965C68.8947 100.535 67.3847 99.3748 65.6847 99.1448C63.9847 98.9048 62.1347 99.7748 61.4847 101.445C61.4847 101.445 59.2047 106.255 64.5747 111.465C70.2347 116.955 73.9347 112.385 73.9347 112.385H73.9247Z" fill="#C35F39"/>
</g>
<path d="M61.4746 101.445C61.7846 100.125 63.0346 99.0647 64.4446 98.7747C65.8946 98.4547 67.4046 98.9547 68.5646 99.7547C69.7546 100.555 70.6746 101.675 71.3946 102.855C72.1246 104.035 72.6446 105.285 73.1746 106.495L73.3846 106.975L72.9746 107.265C72.3646 107.695 71.7946 108.195 71.2846 108.745C71.0246 109.015 70.7746 109.305 70.5446 109.605C70.4346 109.755 70.3046 109.915 70.2446 110.025C70.1846 110.135 70.1746 110.175 70.1846 110.265C70.2146 110.455 70.4646 110.725 70.7746 110.955C71.0746 111.185 71.3846 111.405 71.7246 111.595C72.3946 111.975 73.1446 112.235 73.9246 112.385C73.1246 112.455 72.3046 112.315 71.5146 112.055C71.1246 111.915 70.7346 111.765 70.3746 111.545C70.0346 111.335 69.5946 111.105 69.3446 110.535C69.2246 110.245 69.2546 109.865 69.3746 109.615C69.4846 109.355 69.6046 109.195 69.7046 109.015C69.9246 108.665 70.1646 108.325 70.4246 107.995C70.9546 107.345 71.5546 106.755 72.2146 106.235L72.0146 107.005C71.4646 105.805 70.9046 104.625 70.2646 103.535C69.6146 102.445 68.8446 101.455 67.8846 100.705C66.9246 99.9547 65.7746 99.4447 64.5646 99.5347C63.3646 99.6147 62.1246 100.255 61.4846 101.445H61.4746Z" fill="black"/>
<path d="M101.715 96.9745C101.715 98.9945 100.075 100.634 98.0545 100.634C96.0345 100.634 94.3945 98.9945 94.3945 96.9745C94.3945 94.9545 96.0345 93.3145 98.0545 93.3145C100.075 93.3145 101.715 94.9545 101.715 96.9745Z" fill="black"/>
<path d="M85.6045 94.7151C86.2945 92.8251 87.3945 91.0851 88.6945 89.4751C90.0245 87.8951 91.6345 86.5151 93.4245 85.4051C93.8745 85.1351 94.3345 84.8651 94.7845 84.5751L96.1945 83.8051C96.6845 83.5851 97.1845 83.3951 97.6945 83.2251C98.2145 83.0951 98.7445 83.0051 99.2845 82.9351C101.424 82.7551 103.674 83.0851 105.534 84.3751L105.494 84.7651C103.464 85.6251 101.744 86.1451 100.044 86.7351C99.6245 86.8951 99.2045 87.0251 98.7745 87.1151C98.3545 87.2451 97.9145 87.3351 97.4745 87.4151L96.1545 87.7151C95.7245 87.8451 95.2945 87.9951 94.8545 88.1451C93.1645 88.8351 91.5445 89.7451 90.0345 90.8651C88.5045 91.9651 87.1545 93.3351 85.9445 94.8851L85.6045 94.6951V94.7151Z" fill="black"/>
<path d="M129.585 100.634C131.606 100.634 133.245 98.9958 133.245 96.9745C133.245 94.9531 131.606 93.3145 129.585 93.3145C127.563 93.3145 125.925 94.9531 125.925 96.9745C125.925 98.9958 127.563 100.634 129.585 100.634Z" fill="black"/>
<path d="M141.685 94.8948C140.475 93.3448 139.135 91.9748 137.595 90.8748C136.085 89.7548 134.455 88.8448 132.775 88.1548C132.345 88.0048 131.915 87.8548 131.475 87.7248L130.155 87.4248C129.715 87.3448 129.275 87.2448 128.855 87.1248C128.425 87.0248 128.005 86.8948 127.585 86.7448C125.885 86.1548 124.165 85.6248 122.135 84.7748L122.095 84.3848C123.955 83.0948 126.205 82.7648 128.345 82.9448C128.875 83.0148 129.415 83.1048 129.935 83.2348C130.445 83.4048 130.945 83.5948 131.445 83.8148L132.855 84.5848C133.305 84.8748 133.765 85.1448 134.215 85.4148C136.005 86.5248 137.615 87.9048 138.945 89.4848C140.255 91.0848 141.355 92.8348 142.035 94.7248L141.695 94.9148L141.685 94.8948Z" fill="black"/>
<path d="M114.745 90.8645C114.785 93.8245 114.895 96.8145 115.175 99.6745C115.275 100.364 115.445 101.014 115.765 101.554C116.075 102.104 116.545 102.574 117.085 103.004C118.155 103.884 119.505 104.574 120.675 105.714C122.965 108.024 123.795 111.594 122.705 114.614C121.625 117.634 118.725 119.754 115.745 119.934C118.625 119.184 120.875 116.894 121.625 114.264C122.365 111.634 121.555 108.624 119.655 106.744C118.725 105.784 117.405 105.084 116.205 104.054C115.615 103.534 115.035 102.914 114.655 102.154C114.245 101.394 114.105 100.564 114.055 99.7845C113.945 96.7445 114.225 93.7945 114.745 90.8545V90.8645Z" fill="black"/>
<path d="M111.845 119.285C111.075 119.185 110.385 118.955 109.725 118.675C109.065 118.395 108.435 118.065 107.835 117.685L107.285 117.325L107.555 116.765C107.845 116.175 108.205 115.615 108.655 115.135C109.105 114.655 109.615 114.225 110.245 113.945C110.045 114.595 109.805 115.165 109.575 115.725L108.885 117.365L108.605 116.455C109.225 116.805 109.795 117.225 110.355 117.675C110.905 118.135 111.425 118.645 111.865 119.285H111.845Z" fill="black"/>
<path d="M101.255 122.325C103.215 124.145 105.355 125.715 107.675 126.885C108.835 127.455 110.025 127.955 111.265 128.225C111.875 128.405 112.505 128.465 113.125 128.565C113.755 128.585 114.385 128.665 114.995 128.565C116.225 128.525 117.445 128.155 118.595 127.655C119.775 127.185 120.855 126.475 121.915 125.735C124.025 124.215 125.915 122.345 127.665 120.335C126.405 122.705 124.695 124.855 122.615 126.625C120.555 128.385 117.975 129.825 115.085 130.015C113.655 130.115 112.245 129.925 110.905 129.535C109.565 129.155 108.285 128.585 107.125 127.855C104.785 126.425 102.775 124.525 101.255 122.315V122.325Z" fill="black"/>
<path d="M115.505 179.555C126.055 179.555 132.515 171.385 135.735 165.715C131.725 163.665 128.795 161.475 127.885 159.015C124.445 149.715 125.825 139.195 125.825 139.195L114.445 139.975L102.255 139.195C102.255 139.195 104.445 149.705 101.005 159.015C100.035 161.635 96.7948 163.945 92.3848 166.105C96.0948 171.085 104.095 179.555 115.515 179.555H115.505Z" fill="#C35F39"/>
<path d="M174.795 182.265C167.475 176.775 151.475 172.555 140.135 167.745C136.185 174.715 128.235 184.765 115.275 184.765C101.415 184.765 91.6649 174.605 87.0249 168.465C75.8349 172.985 61.0449 177.055 54.0849 182.265C42.7649 190.755 37.5049 226.745 37.5049 226.745H191.375C191.375 226.745 186.115 190.755 174.795 182.265Z" fill="#580087"/>
<path d="M115.265 184.765C128.235 184.765 136.175 174.725 140.125 167.745C138.555 167.085 137.085 166.405 135.725 165.715C132.505 171.395 126.045 179.555 115.495 179.555C104.075 179.555 96.0747 171.085 92.3647 166.105C90.7247 166.905 88.9146 167.695 87.0146 168.465C91.6446 174.605 101.405 184.765 115.265 184.765Z" fill="#E6C3FF"/>
<path d="M92.7651 143.465C96.3151 145.125 100.005 146.325 103.745 147.195C107.495 148.005 111.325 148.475 115.105 148.355C118.865 148.235 122.585 147.285 126.125 145.845C129.665 144.385 133.055 142.475 136.225 140.175C133.575 143.085 130.305 145.435 126.745 147.215C124.965 148.125 123.075 148.815 121.145 149.365C119.205 149.885 117.195 150.205 115.165 150.285C111.135 150.375 107.155 149.795 103.345 148.645C99.5551 147.475 95.8951 145.815 92.7451 143.455L92.7651 143.465Z" fill="black"/>
<g style="mix-blend-mode:multiply" opacity="0.2">
<path d="M135.535 119.305C140.346 119.305 144.245 116.346 144.245 112.695C144.245 109.044 140.346 106.085 135.535 106.085C130.725 106.085 126.825 109.044 126.825 112.695C126.825 116.346 130.725 119.305 135.535 119.305Z" fill="#C35F39"/>
</g>
<g style="mix-blend-mode:multiply" opacity="0.2">
<path d="M93.295 119.305C98.1054 119.305 102.005 116.346 102.005 112.695C102.005 109.044 98.1054 106.085 93.295 106.085C88.4846 106.085 84.585 109.044 84.585 112.695C84.585 116.346 88.4846 119.305 93.295 119.305Z" fill="#C35F39"/>
</g>
<g opacity="0.26">
<path d="M76.1348 44.3253C77.3848 43.1853 78.9948 42.4053 80.7048 42.0853C82.4048 41.7753 84.2148 41.8453 85.8848 42.4553C89.2248 43.6453 91.7948 46.7253 92.3948 50.2153L91.8448 49.8653C93.7848 49.4053 95.8348 49.8053 97.5148 50.7153C99.2148 51.6153 100.585 53.0853 101.385 54.7753C100.355 53.2153 98.8948 52.0053 97.2548 51.2453C95.6148 50.4953 93.7548 50.2953 92.0548 50.7353L91.6048 50.8553L91.5148 50.3853C90.8848 47.2353 88.5648 44.4653 85.5848 43.2553C84.0848 42.6653 82.4248 42.4253 80.7948 42.6253C79.1648 42.8153 77.5548 43.3653 76.1448 44.3153L76.1348 44.3253Z" fill="white"/>
<path d="M97.9446 65.6451C99.5746 63.6151 102.155 62.3351 104.845 62.1651C107.535 62.0151 110.285 63.0151 112.255 64.8751L111.535 64.9951C112.005 64.1251 112.825 63.4651 113.715 63.1051C114.605 62.7351 115.535 62.6451 116.455 62.6451C117.395 62.6651 118.315 62.8951 119.105 63.3651C119.895 63.8251 120.585 64.4551 121.025 65.2151C120.435 64.5551 119.715 64.0351 118.925 63.7151C118.135 63.4051 117.295 63.2251 116.465 63.2951C115.625 63.3551 114.775 63.5451 114.045 63.8851C113.305 64.2151 112.725 64.7651 112.345 65.4551L112.065 65.9751L111.615 65.5751C109.785 63.9351 107.335 62.9951 104.855 63.0051C102.375 62.9951 99.8846 63.9651 97.9346 65.6551L97.9446 65.6451Z" fill="white"/>
<path d="M102.614 35.5952C105.564 34.4052 109.094 34.6652 111.964 36.2452C114.844 37.8352 116.934 40.7352 117.594 43.9552L117.034 43.6052C119.074 43.1452 121.194 43.3752 123.094 44.0952C124.994 44.7952 126.714 46.0552 127.794 47.7352C126.484 46.2352 124.724 45.2552 122.894 44.6852C121.054 44.1452 119.074 44.0352 117.254 44.5052L116.794 44.6252L116.694 44.1552C116.044 41.2052 114.124 38.5652 111.544 36.9752C108.964 35.3752 105.694 34.8852 102.614 35.6052V35.5952Z" fill="white"/>
<path d="M123.755 59.3453C125.575 56.7653 128.585 55.0153 131.815 54.6053C135.045 54.2253 138.435 55.2153 140.945 57.3153L140.205 57.5153C140.655 56.3253 141.455 55.3253 142.385 54.5353C143.315 53.7353 144.375 53.1453 145.465 52.6553C146.575 52.1653 147.765 51.8753 148.965 51.8453C150.155 51.8253 151.355 51.9953 152.445 52.4353C151.305 52.1753 150.135 52.1053 148.995 52.2553C147.865 52.4053 146.755 52.7153 145.755 53.2553C144.735 53.7853 143.785 54.4253 142.955 55.1753C142.135 55.9253 141.465 56.8353 141.085 57.8453L140.855 58.4553L140.345 58.0453C137.995 56.1553 134.925 55.1753 131.895 55.4153C128.865 55.6253 125.915 57.0653 123.755 59.3353V59.3453Z" fill="white"/>
<path d="M144.265 67.9155C146.415 66.8055 149.075 66.6655 151.435 67.4855C153.795 68.3355 155.805 70.1455 156.865 72.4355L156.275 72.1955C157.245 71.8455 158.315 71.7955 159.305 71.9955C160.305 72.1855 161.225 72.6355 162.025 73.2055C163.635 74.3355 164.835 75.9955 165.385 77.8155C164.515 76.1355 163.205 74.7155 161.655 73.7755C160.095 72.8555 158.225 72.4755 156.595 73.0855L156.195 73.2355L156.005 72.8455C155.005 70.8055 153.255 69.1255 151.145 68.2355C149.035 67.3155 146.565 67.2255 144.265 67.9155Z" fill="white"/>
<path d="M153.395 86.2355C155.245 85.6855 157.335 85.9054 159.125 86.7454C160.935 87.5754 162.475 89.0255 163.365 90.8355L162.755 90.6255C163.385 90.3455 164.075 90.2455 164.735 90.2955C165.395 90.3555 166.015 90.5555 166.595 90.8255C167.725 91.3955 168.675 92.2755 169.285 93.3355C168.445 92.4555 167.425 91.8054 166.345 91.4254C165.275 91.0454 164.095 90.9754 163.165 91.4554L162.765 91.6655L162.545 91.2454C161.715 89.6454 160.345 88.3655 158.755 87.4855C157.155 86.6155 155.315 86.1355 153.405 86.2255L153.395 86.2355Z" fill="white"/>
<path d="M60.6545 70.7755C60.9645 69.5155 61.6245 68.3355 62.4745 67.3255C63.3545 66.3355 64.4545 65.5255 65.6945 64.9855C68.1945 63.9355 71.1645 64.0855 73.5545 65.4055L72.8545 65.7255C73.1145 64.5555 73.6545 63.4955 74.3345 62.5755C75.0145 61.6455 75.8245 60.8155 76.7945 60.1755C78.7145 58.8755 81.1645 58.4855 83.3045 59.0855C81.1045 58.8455 78.8745 59.4555 77.2045 60.7455C76.3745 61.4055 75.6645 62.2155 75.0645 63.0855C74.4845 63.9655 73.9945 64.9255 73.7945 65.9255L73.6645 66.5555L73.0945 66.2455C70.9445 65.0955 68.2945 64.8855 65.9745 65.7155C64.8145 66.1155 63.7245 66.7955 62.8245 67.6755C61.8945 68.5355 61.1645 69.5955 60.6445 70.7855L60.6545 70.7755Z" fill="white"/>
<path d="M56.5547 80.6656C58.4947 79.8356 60.9047 80.0056 62.8147 81.1556C64.7347 82.2856 66.0547 84.3456 66.3547 86.5556L65.7347 86.1856C66.4447 85.9356 67.2047 85.9356 67.8947 86.1056C68.5847 86.2756 69.2047 86.5956 69.7547 86.9956C70.8447 87.7956 71.6947 88.8956 72.1247 90.1256C71.4347 89.0256 70.4747 88.1456 69.4047 87.5356C68.3447 86.9256 67.0847 86.6356 66.0547 87.0556L65.5247 87.2756L65.4347 86.6956C65.1247 84.7656 63.9747 82.9856 62.3647 81.8656C60.7347 80.7556 58.6247 80.2956 56.5647 80.6656H56.5547Z" fill="white"/>
</g>
</g>
</svg>
