<svg width="228" height="228" viewBox="0 0 228 228" fill="none" xmlns="http://www.w3.org/2000/svg">
<path d="M113.565 218.265C171.389 218.265 218.265 171.389 218.265 113.565C218.265 55.741 171.389 8.86523 113.565 8.86523C55.741 8.86523 8.86523 55.741 8.86523 113.565C8.86523 171.389 55.741 218.265 113.565 218.265Z" fill="white"/>
<path d="M113.565 226.645C176.018 226.645 226.645 176.018 226.645 113.565C226.645 51.113 176.018 0.485352 113.565 0.485352C51.113 0.485352 0.485352 51.113 0.485352 113.565C0.485352 176.018 51.113 226.645 113.565 226.645Z" stroke="black" stroke-width="0.97" stroke-miterlimit="10"/>
<mask id="mask0_227_347" style="mask-type:luminance" maskUnits="userSpaceOnUse" x="8" y="8" width="211" height="211">
<path d="M113.565 218.265C171.389 218.265 218.265 171.389 218.265 113.565C218.265 55.741 171.389 8.86523 113.565 8.86523C55.741 8.86523 8.86523 55.741 8.86523 113.565C8.86523 171.389 55.741 218.265 113.565 218.265Z" fill="white"/>
</mask>
<g mask="url(#mask0_227_347)">
<path d="M189.725 112.395C189.515 108.915 187.625 105.705 185.225 103.055C182.835 100.415 179.925 98.2254 177.225 95.8654C171.075 90.4854 165.925 84.0954 162.055 77.0754C156.585 67.1254 153.515 55.6954 145.415 47.5154C137.715 39.7454 126.405 35.9854 115.235 34.6054C114.315 34.4954 113.385 34.4454 112.455 34.4754C112.455 34.4754 112.395 34.4754 112.355 34.4754C112.325 34.4754 112.295 34.4754 112.255 34.4754C111.325 34.4454 110.395 34.4954 109.475 34.6054C98.3053 35.9854 86.9953 39.7354 79.2953 47.5154C71.1853 55.7054 68.1253 67.1254 62.6553 77.0754C58.7853 84.1054 53.6353 90.4854 47.4853 95.8654C44.7853 98.2254 41.8853 100.415 39.4853 103.055C37.0953 105.695 35.1953 108.915 34.9853 112.395C34.6353 118.235 39.2953 123.615 45.0253 125.795C43.3653 129.085 43.9053 133.015 46.2853 135.865C48.6653 138.715 52.8253 140.145 56.5953 139.385C56.2153 142.625 57.7753 146.515 60.5053 148.495C63.2353 150.485 66.7953 151.275 70.2353 151.135C71.0053 153.185 71.2953 155.405 72.9553 156.925C74.6053 158.435 76.8653 159.145 79.0753 159.715C83.5753 160.865 88.6053 161.545 92.7053 159.455L112.245 162.425V162.455H112.345H112.445V162.425L131.985 159.455C136.085 161.545 141.115 160.865 145.615 159.715C147.825 159.145 150.095 158.435 151.735 156.925C153.385 155.415 153.675 153.185 154.455 151.135C157.895 151.275 161.455 150.485 164.185 148.495C166.915 146.505 168.485 142.615 168.095 139.385C171.865 140.145 176.025 138.725 178.405 135.865C180.785 133.005 181.325 129.075 179.665 125.795C185.405 123.615 190.065 118.235 189.705 112.395H189.725Z" fill="black"/>
<path d="M116.876 180.275C109.356 172.735 101.826 165.195 94.2856 157.675C93.9256 157.865 93.5656 158.045 93.1956 158.235C92.1356 158.755 90.9957 159.265 89.8057 159.775C97.6457 168.185 105.436 176.635 113.196 185.115C114.416 183.495 115.646 181.885 116.876 180.275Z" fill="white"/>
<path d="M135.005 157.015C131.795 155.205 129.485 153.275 128.705 151.145C125.265 141.845 126.645 131.325 126.645 131.325L115.265 132.105L103.075 131.325C103.075 131.325 105.265 141.835 101.825 151.145C100.945 153.535 98.1449 155.675 94.2949 157.675C101.835 165.195 109.355 172.735 116.885 180.275C122.855 172.455 128.895 164.705 135.015 157.015H135.005Z" fill="#C35F39"/>
<path d="M120.815 184.215C127.175 175.885 133.735 167.695 140.455 159.665C139.075 159.075 137.765 158.465 136.555 157.855C136.015 157.585 135.505 157.305 135.005 157.025C128.885 164.715 122.835 172.475 116.875 180.285C118.185 181.595 119.505 182.905 120.815 184.225V184.215Z" fill="white"/>
<path d="M113.195 185.115C114.455 186.495 115.735 187.875 116.995 189.265C118.265 187.575 119.535 185.895 120.815 184.215C119.505 182.905 118.185 181.585 116.875 180.275C115.645 181.885 114.415 183.505 113.195 185.115Z" fill="white"/>
<path d="M155.255 218.875H192.195C192.195 218.875 186.935 182.885 175.615 174.395C168.295 168.905 152.295 164.685 140.955 159.875C140.785 159.805 140.625 159.725 140.455 159.655C133.725 167.695 127.175 175.885 120.815 184.205C132.315 195.735 143.795 207.295 155.255 218.875Z" fill="black"/>
<path d="M89.8052 159.775C89.1652 160.045 88.5152 160.325 87.8452 160.595C76.6552 165.115 61.8652 169.185 54.9052 174.395C43.5852 182.885 38.3252 218.875 38.3252 218.875H88.4052C96.5052 207.505 104.765 196.245 113.195 185.115C105.435 176.635 97.6452 168.185 89.8052 159.775Z" fill="black"/>
<path d="M95.9453 218.875H143.675C134.835 208.955 125.945 199.075 116.995 189.255C109.725 198.945 102.705 208.825 95.9453 218.875Z" fill="black"/>
<path d="M120.815 184.215C119.535 185.895 118.255 187.575 116.995 189.265C125.945 199.085 134.835 208.965 143.675 218.885H155.255C143.795 207.305 132.315 195.755 120.815 184.215Z" fill="white"/>
<path d="M113.195 185.115C104.765 196.245 96.5053 207.505 88.4053 218.875H95.9353C102.695 208.825 109.715 198.945 116.985 189.255C115.725 187.865 114.455 186.495 113.185 185.105L113.195 185.115Z" fill="black"/>
<path d="M154.575 91.4556C154.575 114.226 140.095 141.406 113.345 141.406C86.5952 141.406 72.1152 114.226 72.1152 91.4556C72.1152 68.6856 90.5752 50.2256 113.345 50.2256C136.115 50.2256 154.575 68.6856 154.575 91.4556Z" fill="#C35F39"/>
<path d="M76.7055 93.8255C78.7955 90.8755 79.8755 87.3255 80.5055 83.7755C81.2055 79.8455 81.3555 75.5755 79.4255 72.0755C78.8255 70.9955 78.0155 69.9955 76.9255 69.4355C74.9855 68.4455 72.5155 69.0655 70.8655 70.4855C69.2155 71.9055 68.2455 73.9555 67.5655 76.0155C65.5755 82.0755 65.7055 88.6055 66.8355 94.8155C67.3755 97.7755 67.2655 100.016 70.6955 98.6955C73.1255 97.7555 75.2155 95.9355 76.7155 93.8255H76.7055Z" fill="black"/>
<path d="M151.705 93.8255C149.615 90.8755 148.535 87.3255 147.905 83.7755C147.205 79.8455 147.055 75.5755 148.985 72.0755C149.585 70.9955 150.395 69.9955 151.485 69.4355C153.425 68.4455 155.895 69.0655 157.545 70.4855C159.195 71.8955 160.165 73.9555 160.845 76.0155C162.835 82.0755 162.705 88.6055 161.575 94.8155C161.035 97.7755 161.145 100.016 157.715 98.6955C155.285 97.7555 153.195 95.9355 151.695 93.8255H151.705Z" fill="black"/>
<path d="M165.525 98.3855C164.975 101.326 163.345 104.046 161.285 106.086C159.885 107.466 158.245 108.586 156.495 109.056C154.745 109.526 152.875 109.316 151.485 108.246C150.215 107.266 149.415 105.656 149.025 103.926C148.135 99.9355 149.345 95.2955 151.795 91.8155C153.495 89.4055 155.915 87.4355 158.505 87.1055C163.735 86.4455 166.505 93.1855 165.525 98.3855Z" fill="#C35F39"/>
<g style="mix-blend-mode:multiply">
<path d="M150.805 104.516C152.055 104.446 153.305 103.996 154.355 103.236C154.675 103.006 155.005 102.676 154.995 102.276C154.995 102.046 154.865 101.846 154.745 101.666C154.035 100.586 153.145 99.6356 152.125 98.8856C152.865 97.2156 153.615 95.5257 154.725 94.0957C155.835 92.6657 157.345 91.5056 159.045 91.2756C160.745 91.0356 162.595 91.9057 163.245 93.5757C163.245 93.5757 165.525 98.3857 160.155 103.596C154.495 109.086 150.795 104.516 150.795 104.516H150.805Z" fill="#C35F39"/>
</g>
<path d="M163.245 93.5755C162.605 92.3855 161.365 91.7456 160.165 91.6656C158.955 91.5756 157.805 92.0856 156.845 92.8356C155.885 93.5956 155.115 94.5756 154.465 95.6656C153.825 96.7556 153.265 97.9355 152.715 99.1355L152.515 98.3655C153.175 98.8855 153.775 99.4856 154.305 100.126C154.565 100.456 154.805 100.796 155.025 101.146C155.135 101.326 155.245 101.486 155.355 101.746C155.475 101.996 155.505 102.376 155.385 102.666C155.145 103.236 154.695 103.466 154.355 103.676C153.995 103.886 153.605 104.046 153.215 104.186C152.435 104.446 151.615 104.586 150.805 104.516C151.595 104.356 152.335 104.106 153.005 103.726C153.345 103.536 153.655 103.316 153.955 103.086C154.265 102.856 154.515 102.596 154.545 102.396C154.555 102.306 154.545 102.266 154.485 102.156C154.425 102.056 154.305 101.896 154.185 101.736C153.955 101.436 153.705 101.146 153.445 100.876C152.935 100.326 152.365 99.8255 151.755 99.3955L151.345 99.1055L151.555 98.6256C152.075 97.4056 152.605 96.1556 153.335 94.9856C154.055 93.8056 154.975 92.6855 156.165 91.8855C157.325 91.0855 158.845 90.5855 160.285 90.9055C161.695 91.1955 162.945 92.2455 163.255 93.5755H163.245Z" fill="black"/>
<path d="M60.0251 98.3855C60.5751 101.326 62.2051 104.046 64.2651 106.086C65.6651 107.466 67.3051 108.586 69.0551 109.056C70.8051 109.526 72.6751 109.316 74.0651 108.246C75.3351 107.266 76.1351 105.656 76.5251 103.926C77.4151 99.9355 76.2051 95.2955 73.7551 91.8155C72.0551 89.4055 69.6351 87.4355 67.0451 87.1055C61.8151 86.4455 59.0451 93.1855 60.0251 98.3855Z" fill="#C35F39"/>
<g style="mix-blend-mode:multiply">
<path d="M74.745 104.516C73.495 104.446 72.245 103.996 71.195 103.236C70.875 103.006 70.545 102.676 70.555 102.276C70.555 102.046 70.685 101.846 70.805 101.666C71.515 100.586 72.405 99.6356 73.425 98.8856C72.685 97.2156 71.935 95.5257 70.825 94.0957C69.715 92.6657 68.205 91.5056 66.505 91.2756C64.805 91.0356 62.955 91.9057 62.305 93.5757C62.305 93.5757 60.025 98.3857 65.395 103.596C71.055 109.086 74.755 104.516 74.755 104.516H74.745Z" fill="#C35F39"/>
</g>
<path d="M62.2949 93.5755C62.6049 92.2555 63.8549 91.1955 65.2649 90.9055C66.7149 90.5855 68.2249 91.0855 69.3849 91.8855C70.5749 92.6855 71.4949 93.8056 72.2149 94.9856C72.9449 96.1656 73.4649 97.4156 73.9949 98.6256L74.2049 99.1055L73.7949 99.3955C73.1849 99.8255 72.6149 100.326 72.1049 100.876C71.8449 101.146 71.5949 101.436 71.3649 101.736C71.2549 101.886 71.1249 102.046 71.0649 102.156C71.0049 102.266 70.9949 102.306 71.0049 102.396C71.0349 102.586 71.2849 102.856 71.5949 103.086C71.8949 103.316 72.2049 103.536 72.5449 103.726C73.2149 104.106 73.9649 104.366 74.7449 104.516C73.9449 104.586 73.1249 104.446 72.3349 104.186C71.9449 104.046 71.5549 103.896 71.1949 103.676C70.8549 103.466 70.4149 103.236 70.1649 102.666C70.0449 102.376 70.0749 101.996 70.1949 101.746C70.3049 101.486 70.4249 101.326 70.5249 101.146C70.7449 100.796 70.9849 100.456 71.2449 100.126C71.7749 99.4756 72.3749 98.8855 73.0349 98.3655L72.8349 99.1355C72.2849 97.9355 71.7249 96.7556 71.0849 95.6656C70.4349 94.5756 69.6649 93.5856 68.7049 92.8356C67.7549 92.0856 66.5949 91.5756 65.3849 91.6656C64.1849 91.7456 62.9449 92.3855 62.3049 93.5755H62.2949Z" fill="black"/>
<path d="M98.8748 92.7653C100.896 92.7653 102.535 91.1267 102.535 89.1053C102.535 87.0839 100.896 85.4453 98.8748 85.4453C96.8535 85.4453 95.2148 87.0839 95.2148 89.1053C95.2148 91.1267 96.8535 92.7653 98.8748 92.7653Z" fill="black"/>
<path d="M86.4258 86.8352C87.1158 84.9452 88.2158 83.1952 89.5158 81.5952C90.8458 80.0152 92.4558 78.6352 94.2458 77.5252C94.6958 77.2552 95.1558 76.9852 95.6058 76.6952L97.0158 75.9252C97.5058 75.7052 98.0058 75.5152 98.5258 75.3452C99.0458 75.2152 99.5758 75.1252 100.116 75.0552C102.256 74.8752 104.506 75.2052 106.366 76.4952L106.326 76.8752C104.296 77.7352 102.576 78.2552 100.876 78.8452C100.456 79.0052 100.036 79.1352 99.6058 79.2252C99.1858 79.3552 98.7458 79.4452 98.3058 79.5252L96.9858 79.8252C96.5558 79.9552 96.1258 80.1052 95.6858 80.2552C93.9958 80.9452 92.3758 81.8552 90.8658 82.9752C89.3358 84.0752 87.9858 85.4452 86.7758 86.9952L86.4358 86.8052L86.4258 86.8352Z" fill="black"/>
<path d="M130.405 92.7653C132.426 92.7653 134.065 91.1267 134.065 89.1053C134.065 87.0839 132.426 85.4453 130.405 85.4453C128.384 85.4453 126.745 87.0839 126.745 89.1053C126.745 91.1267 128.384 92.7653 130.405 92.7653Z" fill="black"/>
<path d="M142.505 87.0255C141.295 85.4755 139.955 84.1055 138.415 83.0055C136.905 81.8855 135.275 80.9755 133.595 80.2855C133.165 80.1355 132.735 79.9855 132.295 79.8555L130.975 79.5555C130.535 79.4755 130.095 79.3755 129.675 79.2555C129.245 79.1555 128.825 79.0255 128.405 78.8755C126.705 78.2855 124.985 77.7555 122.955 76.9055L122.915 76.5255C124.775 75.2355 127.025 74.9055 129.165 75.0855C129.695 75.1555 130.235 75.2455 130.755 75.3755C131.265 75.5455 131.765 75.7355 132.255 75.9555L133.665 76.7255C134.115 77.0155 134.575 77.2855 135.025 77.5555C136.815 78.6655 138.425 80.0455 139.755 81.6255C141.065 83.2255 142.165 84.9755 142.845 86.8655L142.505 87.0555V87.0255Z" fill="black"/>
<path d="M102.075 114.445C104.035 116.265 106.175 117.835 108.495 119.005C109.655 119.575 110.845 120.075 112.085 120.345C112.695 120.525 113.325 120.585 113.945 120.685C114.575 120.705 115.205 120.785 115.815 120.685C117.045 120.645 118.265 120.275 119.415 119.775C120.595 119.305 121.675 118.595 122.735 117.855C124.845 116.335 126.735 114.465 128.485 112.455C127.225 114.825 125.515 116.975 123.435 118.745C121.375 120.505 118.795 121.945 115.905 122.135C114.475 122.235 113.065 122.045 111.725 121.655C110.385 121.275 109.105 120.705 107.945 119.975C105.605 118.545 103.595 116.645 102.075 114.435V114.445Z" fill="black"/>
<path d="M93.585 135.596C97.035 137.656 100.705 139.216 104.475 140.336C108.245 141.406 112.155 142.016 116.015 141.866C119.855 141.706 123.625 140.536 127.145 138.836C130.665 137.106 133.985 134.896 137.055 132.306C134.555 135.466 131.375 138.106 127.845 140.166C124.315 142.226 120.275 143.586 116.095 143.796C111.935 143.926 107.835 143.186 103.995 141.766C100.175 140.336 96.565 138.316 93.585 135.596Z" fill="black"/>
<g style="mix-blend-mode:multiply" opacity="0.2">
<path d="M136.355 111.425C141.166 111.425 145.066 108.466 145.066 104.815C145.066 101.164 141.166 98.2051 136.355 98.2051C131.545 98.2051 127.646 101.164 127.646 104.815C127.646 108.466 131.545 111.425 136.355 111.425Z" fill="#C35F39"/>
</g>
<g style="mix-blend-mode:multiply" opacity="0.2">
<path d="M94.1153 111.425C98.9257 111.425 102.825 108.466 102.825 104.815C102.825 101.164 98.9257 98.2051 94.1153 98.2051C89.3049 98.2051 85.4053 101.164 85.4053 104.815C85.4053 108.466 89.3049 111.425 94.1153 111.425Z" fill="#C35F39"/>
</g>
<path d="M114.375 82.6457C114.915 86.5457 115.225 90.4557 116.275 94.1457C116.805 95.9757 117.485 97.7657 118.435 99.3857C119.355 101.026 120.545 102.506 121.975 103.706L122.405 104.076L122.125 104.536C121.135 106.166 119.875 107.596 118.465 108.806C117.055 110.026 115.485 111.046 113.825 111.836C115.285 110.716 116.655 109.516 117.885 108.196C119.105 106.876 120.185 105.446 121.025 103.896L121.185 104.716C119.535 103.486 118.215 101.866 117.185 100.106C116.185 98.3357 115.445 96.4257 115.005 94.4657C114.545 92.5157 114.335 90.5257 114.255 88.5457C114.175 86.5657 114.255 84.6057 114.385 82.6357L114.375 82.6457Z" fill="black"/>
<path d="M71.4748 73.5458C79.3048 75.9658 88.0348 75.2758 95.3948 71.6758C102.755 68.0758 108.645 61.5858 111.535 53.9158C115.745 61.3258 122.015 66.8058 129.835 70.1958C137.655 73.5858 146.395 74.6258 154.865 73.6958C152.575 66.6158 149.485 59.1858 143.895 54.2858C139.545 50.4658 133.895 48.4558 128.265 47.0858C122.235 45.6258 115.985 44.7958 109.815 45.4458C101.595 46.3158 93.7448 49.8058 87.2148 54.8858C80.6848 59.9658 75.4748 66.3158 71.4648 73.5458H71.4748Z" fill="black"/>
<g style="mix-blend-mode:multiply" opacity="0.44">
<path d="M122.585 119.405C122.585 122.055 119.225 125.175 115.085 125.175C110.945 125.175 107.585 122.055 107.585 119.405C107.585 116.755 110.945 115.575 115.085 115.575C119.225 115.575 122.585 116.755 122.585 119.405Z" fill="#C35F39"/>
</g>
<g opacity="0.2">
<path d="M115.775 42.3049C117.215 45.1849 118.755 48.0049 120.575 50.6149C122.395 53.2249 124.445 55.6849 126.885 57.7049C129.265 59.7849 132.035 61.4049 135.005 62.5049C137.965 63.6049 141.175 64.1049 144.385 63.8349C142.805 64.1749 141.175 64.2449 139.555 64.1449C137.935 64.0149 136.325 63.6849 134.765 63.2049C131.645 62.2149 128.775 60.5249 126.265 58.4349C123.805 56.2849 121.685 53.7649 119.965 51.0149C118.245 48.2649 116.855 45.3249 115.785 42.2949L115.775 42.3049Z" fill="white"/>
<path d="M124.686 43.1848C126.036 45.1848 127.556 47.0348 129.276 48.6748C131.006 50.3048 132.876 51.7648 134.906 52.9848C136.926 54.2148 139.096 55.2048 141.336 55.9748C143.586 56.7348 145.936 57.2248 148.326 57.4948C147.726 57.5148 147.116 57.5148 146.516 57.5148L144.696 57.3848L142.896 57.0948L141.116 56.6848C138.756 56.0648 136.496 55.0648 134.396 53.8048C132.306 52.5248 130.376 50.9848 128.736 49.1848C127.086 47.3948 125.676 45.3748 124.676 43.1748L124.686 43.1848Z" fill="white"/>
<path d="M72.666 65.0353C76.076 66.3153 79.766 66.5953 83.286 66.0353C86.816 65.4753 90.226 64.1653 93.166 62.1553C96.156 60.1953 98.676 57.5753 100.786 54.6753C101.846 53.2253 102.796 51.6853 103.636 50.0853C104.506 48.5053 105.236 46.8453 105.926 45.1553C104.956 48.6653 103.436 52.0353 101.406 55.0953C99.376 58.1553 96.766 60.8553 93.716 62.9553C90.616 64.9853 87.076 66.3553 83.396 66.7753C81.566 66.9753 79.706 66.9653 77.886 66.6953C76.076 66.3953 74.296 65.8753 72.676 65.0353H72.666Z" fill="white"/>
<path d="M77.4358 58.4747C79.4958 58.0347 81.4858 57.3847 83.3558 56.5047C85.2158 55.6147 86.9858 54.5347 88.5858 53.2447C90.2058 51.9747 91.6558 50.4847 92.9358 48.8747C94.2158 47.2547 95.2958 45.4547 96.1858 43.5547C96.0358 44.0647 95.8858 44.5647 95.7158 45.0647L95.1158 46.5447L94.3758 47.9547L93.5358 49.3147C92.3458 51.0947 90.8558 52.6647 89.1858 54.0047C87.5058 55.3247 85.6358 56.4347 83.6358 57.1947C81.6458 57.9647 79.5358 58.4347 77.4258 58.4847L77.4358 58.4747Z" fill="white"/>
<path d="M166.976 104.085C168.516 105.945 170.406 107.415 172.346 108.805C174.296 110.185 176.296 111.565 178.076 113.255C179.826 114.945 181.406 117.025 181.946 119.495C182.216 120.715 182.286 121.975 182.066 123.195C181.816 124.405 181.296 125.575 180.456 126.445C180.786 125.935 181.046 125.405 181.256 124.845C181.446 124.285 181.556 123.705 181.606 123.125C181.716 121.965 181.576 120.785 181.236 119.685C180.576 117.455 179.106 115.565 177.416 113.955C175.726 112.315 173.766 110.935 171.906 109.395C170.976 108.625 170.056 107.825 169.206 106.965C168.376 106.075 167.596 105.135 166.996 104.095L166.976 104.085Z" fill="white"/>
<path d="M157.945 113.185C158.555 115.115 159.775 116.725 161.085 118.205C162.415 119.685 163.945 120.975 165.325 122.475C166.715 123.945 168.015 125.635 168.695 127.645C169.375 129.605 169.475 131.935 168.405 133.855L168.225 133.285C169.925 134.165 171.055 135.915 171.225 137.765C171.385 139.615 170.535 141.465 169.115 142.515C170.375 141.285 170.955 139.475 170.695 137.835C170.445 136.185 169.305 134.725 167.855 134.045L167.475 133.865L167.675 133.475C168.525 131.805 168.425 129.765 167.795 127.975C167.185 126.155 165.985 124.575 164.685 123.095C163.365 121.615 161.925 120.195 160.655 118.605C159.385 117.035 158.315 115.205 157.955 113.215L157.945 113.185Z" fill="white"/>
<path d="M145.256 126.064C146.456 128.394 147.826 130.604 149.426 132.644C151.016 134.704 152.846 136.474 154.746 138.304C155.676 139.234 156.586 140.214 157.376 141.304C158.146 142.404 158.796 143.614 159.176 144.904C159.586 146.184 159.786 147.524 159.806 148.854C159.796 150.184 159.606 151.514 159.186 152.754C159.396 151.464 159.476 150.164 159.336 148.874C159.226 147.594 158.946 146.334 158.476 145.154C157.586 142.754 155.926 140.794 154.066 138.984C153.156 138.064 152.196 137.164 151.296 136.184C150.406 135.204 149.566 134.174 148.826 133.084C147.316 130.914 146.086 128.554 145.256 126.064Z" fill="white"/>
<path d="M81.9755 128.575C81.8555 129.785 81.5555 130.975 81.1655 132.135C80.7355 133.285 80.1955 134.395 79.5355 135.435C78.8755 136.485 78.0855 137.445 77.2055 138.315C76.3155 139.195 75.3255 139.925 74.4055 140.675C73.4655 141.415 72.5655 142.175 71.8555 143.085C71.1055 143.975 70.5655 145.015 70.1155 146.095C69.2455 148.285 68.9455 150.705 68.9155 153.115C68.7255 151.915 68.6855 150.695 68.7355 149.465C68.8255 148.245 69.0355 147.015 69.4155 145.835C69.7955 144.655 70.3755 143.515 71.1355 142.515C71.8955 141.505 72.8655 140.685 73.8055 139.915C74.7655 139.165 75.7255 138.455 76.5855 137.655C77.4655 136.865 78.2155 135.955 78.9355 135.015C80.3355 133.105 81.3555 130.905 81.9955 128.575H81.9755Z" fill="white"/>
<path d="M69.6759 111.095C69.2859 113.295 68.0959 115.385 66.3759 116.895C65.5159 117.645 64.5159 118.275 63.4659 118.715C62.4259 119.185 61.3559 119.515 60.3659 119.955C58.4059 120.835 56.7259 122.305 55.5459 124.085C54.3259 125.845 53.5859 127.955 53.5059 130.105L53.4859 130.555L53.0459 130.515C51.1059 130.345 49.1659 131.675 48.2159 133.475C47.2359 135.305 47.0259 137.495 47.0359 139.625C46.8959 138.565 46.8459 137.485 46.9259 136.405C47.0059 135.325 47.2359 134.235 47.7159 133.225C48.1959 132.215 48.9259 131.325 49.8459 130.655C50.7559 129.985 51.9259 129.575 53.1159 129.675L52.6559 130.085C52.7059 127.765 53.4659 125.485 54.7459 123.555C56.0459 121.635 57.8959 120.095 60.0259 119.175C61.0859 118.725 62.1559 118.405 63.1859 118.025C64.2159 117.655 65.1559 117.135 66.0159 116.455C67.7159 115.105 69.0459 113.235 69.6859 111.095H69.6759Z" fill="white"/>
<path d="M57.8956 100.465C57.5656 101.775 56.7956 102.955 55.8856 103.975C54.9456 104.975 53.8456 105.805 52.7056 106.545C50.4156 108.015 47.9256 109.065 45.8856 110.685C43.8256 112.275 42.2056 114.405 41.0856 116.775C40.5256 117.965 40.1056 119.215 39.8356 120.515C39.5356 121.805 39.4256 123.145 39.4456 124.485C39.2156 123.155 39.2256 121.785 39.3656 120.435C39.5456 119.085 39.8956 117.755 40.4056 116.475C41.4156 113.925 43.1156 111.635 45.2956 109.925C47.4956 108.215 50.0256 107.195 52.3256 105.915C53.4856 105.275 54.5856 104.545 55.5556 103.645C56.5456 102.775 57.3656 101.705 57.9056 100.475L57.8956 100.465Z" fill="white"/>
</g>
<path d="M69.2754 108.846V129.916" stroke="white" stroke-width="0.97" stroke-miterlimit="10"/>
<path d="M74.8456 129.916C74.8456 132.856 72.4555 135.246 69.5155 135.246C66.5755 135.246 64.1855 132.856 64.1855 129.916C64.1855 126.976 66.5755 124.586 69.5155 124.586C72.4555 124.586 74.8456 126.976 74.8456 129.916Z" fill="#E6C3FF"/>
<path d="M156.205 108.846V129.916" stroke="white" stroke-width="0.97" stroke-miterlimit="10"/>
<path d="M156.445 135.246C159.389 135.246 161.775 132.86 161.775 129.916C161.775 126.972 159.389 124.586 156.445 124.586C153.502 124.586 151.115 126.972 151.115 129.916C151.115 132.86 153.502 135.246 156.445 135.246Z" fill="#E6C3FF"/>
</g>
</svg>
