<svg width="228" height="228" viewBox="0 0 228 228" fill="none" xmlns="http://www.w3.org/2000/svg">
<path d="M113.565 218.265C171.389 218.265 218.265 171.389 218.265 113.565C218.265 55.741 171.389 8.86523 113.565 8.86523C55.741 8.86523 8.86523 55.741 8.86523 113.565C8.86523 171.389 55.741 218.265 113.565 218.265Z" fill="white"/>
<path d="M113.565 226.645C176.018 226.645 226.645 176.018 226.645 113.565C226.645 51.113 176.018 0.485352 113.565 0.485352C51.113 0.485352 0.485352 51.113 0.485352 113.565C0.485352 176.018 51.113 226.645 113.565 226.645Z" stroke="black" stroke-width="0.97" stroke-miterlimit="10"/>
<mask id="mask0_227_251" style="mask-type:luminance" maskUnits="userSpaceOnUse" x="8" y="8" width="211" height="211">
<path d="M113.565 218.265C171.389 218.265 218.265 171.389 218.265 113.565C218.265 55.741 171.389 8.86523 113.565 8.86523C55.741 8.86523 8.86523 55.741 8.86523 113.565C8.86523 171.389 55.741 218.265 113.565 218.265Z" fill="white"/>
</mask>
<g mask="url(#mask0_227_251)">
<path d="M123.426 144.726C122.056 137.326 122.916 130.666 122.916 130.666L111.536 131.446L99.3457 130.666C99.3457 130.666 100.786 137.596 99.4857 145.186C107.366 146.826 115.616 146.656 123.426 144.726Z" fill="#C35F39"/>
<path d="M171.886 173.746C164.566 168.256 148.566 164.036 137.226 159.226C135.656 158.566 134.186 157.886 132.826 157.196C128.816 155.146 125.886 152.956 124.976 150.496C124.276 148.596 123.776 146.636 123.416 144.736C115.606 146.666 107.356 146.836 99.4757 145.196C99.1757 146.956 98.7257 148.746 98.0857 150.496C97.1157 153.116 93.8757 155.426 89.4657 157.586C87.8257 158.386 86.0157 159.176 84.1157 159.946C72.9257 164.466 58.1357 168.536 51.1757 173.746C39.8557 182.236 34.5957 218.226 34.5957 218.226H188.466C188.466 218.226 183.206 182.236 171.886 173.746Z" fill="black"/>
<path d="M150.846 90.8052C150.846 113.575 136.366 140.755 109.616 140.755C82.8657 140.755 68.3857 113.575 68.3857 90.8052C68.3857 68.0352 86.8457 49.5752 109.616 49.5752C132.386 49.5752 150.846 68.0352 150.846 90.8052Z" fill="#C35F39"/>
<path d="M98.8054 88.4559C98.8054 90.4759 97.1654 92.1159 95.1454 92.1159C93.1254 92.1159 91.4854 90.4759 91.4854 88.4559C91.4854 86.4359 93.1254 84.7959 95.1454 84.7959C97.1654 84.7959 98.8054 86.4359 98.8054 88.4559Z" fill="black"/>
<path d="M82.7061 86.1858C83.3961 84.2958 84.4961 82.5558 85.7961 80.9458C87.1261 79.3658 88.7361 77.9858 90.5261 76.8758C90.9761 76.6058 91.4361 76.3358 91.8861 76.0458L93.2961 75.2758C93.7861 75.0558 94.2861 74.8658 94.8061 74.6958C95.3261 74.5658 95.8561 74.4758 96.3961 74.4058C98.5361 74.2258 100.786 74.5558 102.646 75.8458L102.606 76.2358C100.576 77.0958 98.8561 77.6158 97.1561 78.2058C96.7361 78.3658 96.3161 78.4958 95.8861 78.5858C95.4661 78.7158 95.0261 78.8058 94.5861 78.8858L93.2661 79.1858C92.8361 79.3158 92.4061 79.4658 91.9661 79.6158C90.2761 80.3058 88.6561 81.2158 87.1461 82.3358C85.6161 83.4358 84.2661 84.8058 83.0561 86.3558L82.7161 86.1658L82.7061 86.1858Z" fill="black"/>
<path d="M123.016 88.4559C123.016 90.4759 124.656 92.1159 126.676 92.1159C128.696 92.1159 130.336 90.4759 130.336 88.4559C130.336 86.4359 128.696 84.7959 126.676 84.7959C124.656 84.7959 123.016 86.4359 123.016 88.4559Z" fill="black"/>
<path d="M138.785 86.3753C137.575 84.8253 136.235 83.4553 134.695 82.3553C133.185 81.2353 131.555 80.3253 129.875 79.6353C129.445 79.4853 129.015 79.3353 128.575 79.2053L127.255 78.9053C126.815 78.8253 126.375 78.7253 125.955 78.6053C125.525 78.5053 125.105 78.3753 124.685 78.2253C122.985 77.6353 121.265 77.1053 119.235 76.2553L119.195 75.8653C121.055 74.5753 123.305 74.2453 125.445 74.4253C125.975 74.4953 126.515 74.5853 127.035 74.7153C127.545 74.8853 128.045 75.0753 128.545 75.2953L129.955 76.0653C130.405 76.3553 130.865 76.6253 131.315 76.8953C133.105 78.0053 134.715 79.3853 136.045 80.9653C137.355 82.5653 138.455 84.3153 139.135 86.2053L138.795 86.3953L138.785 86.3753Z" fill="black"/>
<path d="M98.3555 113.796C100.315 115.616 102.455 117.186 104.775 118.356C105.935 118.926 107.125 119.426 108.365 119.696C108.975 119.876 109.605 119.936 110.225 120.036C110.855 120.056 111.485 120.136 112.095 120.036C113.325 119.996 114.545 119.626 115.695 119.126C116.875 118.656 117.955 117.946 119.015 117.206C121.125 115.686 123.015 113.816 124.765 111.806C123.505 114.166 121.795 116.326 119.715 118.096C117.655 119.856 115.075 121.296 112.185 121.486C110.755 121.586 109.345 121.396 108.005 121.006C106.665 120.626 105.385 120.056 104.225 119.326C101.885 117.896 99.8755 115.996 98.3555 113.786V113.796Z" fill="black"/>
<path d="M89.8557 134.945C93.4057 136.605 97.0957 137.805 100.846 138.675C104.596 139.485 108.426 139.955 112.206 139.835C115.966 139.715 119.686 138.765 123.226 137.325C126.766 135.865 130.156 133.955 133.326 131.655C130.676 134.565 127.406 136.915 123.846 138.695C122.066 139.605 120.176 140.295 118.246 140.845C116.306 141.365 114.296 141.685 112.266 141.765C108.236 141.855 104.256 141.275 100.446 140.125C96.6557 138.955 92.9957 137.295 89.8457 134.935L89.8557 134.945Z" fill="black"/>
<g style="mix-blend-mode:multiply" opacity="0.2">
<path d="M141.346 104.166C141.346 107.816 137.446 110.776 132.636 110.776C127.826 110.776 123.926 107.816 123.926 104.166C123.926 100.516 127.826 97.5557 132.636 97.5557C137.446 97.5557 141.346 100.516 141.346 104.166Z" fill="#C35F39"/>
</g>
<g style="mix-blend-mode:multiply" opacity="0.2">
<path d="M99.1055 104.166C99.1055 107.816 95.2055 110.776 90.3955 110.776C85.5855 110.776 81.6855 107.816 81.6855 104.166C81.6855 100.516 85.5855 97.5557 90.3955 97.5557C95.2055 97.5557 99.1055 100.516 99.1055 104.166Z" fill="#C35F39"/>
</g>
<path d="M65.1152 97.3956L71.0352 30.8056C71.0352 30.8056 90.0352 26.9256 111.485 28.1456C132.935 29.3756 150.705 33.0456 150.705 33.0456L154.175 97.1856H143.755L142.735 71.2456C142.735 71.2456 129.865 61.4356 110.465 61.4356C91.0652 61.4356 77.3752 69.6056 77.3752 69.6056L75.1252 99.0256L65.1152 97.3956Z" fill="black"/>
<path d="M161.805 97.7351C161.255 100.675 159.625 103.395 157.565 105.435C156.165 106.815 154.525 107.935 152.775 108.405C151.025 108.875 149.155 108.665 147.765 107.595C146.495 106.615 145.695 105.005 145.305 103.275C144.415 99.2851 145.625 94.6452 148.075 91.1652C149.775 88.7552 152.195 86.7851 154.785 86.4551C160.015 85.7951 162.785 92.5351 161.805 97.7351Z" fill="#C35F39"/>
<g style="mix-blend-mode:multiply">
<path d="M147.075 103.865C148.325 103.795 149.575 103.345 150.625 102.585C150.945 102.355 151.275 102.025 151.265 101.625C151.265 101.395 151.135 101.195 151.015 101.015C150.305 99.9352 149.415 98.9852 148.395 98.2352C149.135 96.5652 149.885 94.8753 150.995 93.4453C152.105 92.0153 153.615 90.8553 155.315 90.6253C157.015 90.3853 158.865 91.2552 159.515 92.9252C159.515 92.9252 161.795 97.7353 156.425 102.945C150.765 108.435 147.065 103.865 147.065 103.865H147.075Z" fill="#C35F39"/>
</g>
<path d="M159.525 92.9251C158.885 91.7351 157.645 91.0951 156.445 91.0151C155.235 90.9251 154.085 91.4352 153.125 92.1852C152.165 92.9452 151.395 93.9251 150.745 95.0151C150.105 96.1051 149.545 97.2851 148.995 98.4851L148.795 97.7152C149.455 98.2352 150.055 98.8352 150.585 99.4752C150.845 99.8052 151.085 100.145 151.305 100.495C151.415 100.675 151.525 100.835 151.635 101.095C151.755 101.345 151.785 101.725 151.665 102.015C151.425 102.585 150.975 102.815 150.635 103.025C150.275 103.235 149.885 103.395 149.495 103.535C148.715 103.795 147.895 103.935 147.085 103.865C147.875 103.705 148.615 103.455 149.285 103.075C149.625 102.885 149.935 102.665 150.235 102.435C150.545 102.205 150.795 101.945 150.825 101.745C150.835 101.655 150.825 101.615 150.765 101.505C150.705 101.405 150.585 101.245 150.465 101.085C150.235 100.785 149.985 100.495 149.725 100.225C149.215 99.6752 148.645 99.1752 148.035 98.7452L147.625 98.4551L147.835 97.9752C148.355 96.7552 148.885 95.5051 149.615 94.3351C150.335 93.1551 151.255 92.0351 152.445 91.2351C153.605 90.4351 155.125 89.9352 156.565 90.2552C157.975 90.5452 159.225 91.5951 159.535 92.9251H159.525Z" fill="black"/>
<path d="M56.2956 97.7351C56.8456 100.675 58.4756 103.395 60.5356 105.435C61.9356 106.815 63.5756 107.935 65.3256 108.405C67.0756 108.875 68.9456 108.665 70.3356 107.595C71.6056 106.615 72.4056 105.005 72.7956 103.275C73.6856 99.2851 72.4756 94.6452 70.0256 91.1652C68.3256 88.7552 65.9056 86.7851 63.3156 86.4551C58.0856 85.7951 55.3156 92.5351 56.2956 97.7351Z" fill="#C35F39"/>
<g style="mix-blend-mode:multiply">
<path d="M71.0155 103.865C69.7655 103.795 68.5155 103.345 67.4655 102.585C67.1455 102.355 66.8155 102.025 66.8255 101.625C66.8255 101.395 66.9555 101.195 67.0755 101.015C67.7855 99.9352 68.6755 98.9852 69.6955 98.2352C68.9555 96.5652 68.2055 94.8753 67.0955 93.4453C65.9855 92.0153 64.4755 90.8553 62.7755 90.6253C61.0755 90.3853 59.2255 91.2552 58.5755 92.9252C58.5755 92.9252 56.2955 97.7353 61.6655 102.945C67.3255 108.435 71.0255 103.865 71.0255 103.865H71.0155Z" fill="#C35F39"/>
</g>
<path d="M58.5752 92.9251C58.8852 91.6051 60.1352 90.5452 61.5452 90.2552C62.9952 89.9352 64.5052 90.4351 65.6652 91.2351C66.8552 92.0351 67.7752 93.1551 68.4952 94.3351C69.2252 95.5151 69.7452 96.7652 70.2752 97.9752L70.4852 98.4551L70.0752 98.7452C69.4652 99.1752 68.8952 99.6752 68.3852 100.225C68.1252 100.495 67.8752 100.785 67.6452 101.085C67.5352 101.235 67.4052 101.395 67.3452 101.505C67.2852 101.615 67.2752 101.655 67.2852 101.745C67.3152 101.935 67.5652 102.205 67.8752 102.435C68.1752 102.665 68.4852 102.885 68.8252 103.075C69.4952 103.455 70.2452 103.715 71.0252 103.865C70.2252 103.935 69.4052 103.795 68.6152 103.535C68.2252 103.395 67.8352 103.245 67.4752 103.025C67.1352 102.815 66.6952 102.585 66.4452 102.015C66.3252 101.725 66.3552 101.345 66.4752 101.095C66.5852 100.835 66.7052 100.675 66.8052 100.495C67.0252 100.145 67.2652 99.8052 67.5252 99.4752C68.0552 98.8252 68.6552 98.2352 69.3152 97.7152L69.1152 98.4851C68.5652 97.2851 68.0052 96.1051 67.3652 95.0151C66.7152 93.9251 65.9452 92.9352 64.9852 92.1852C64.0352 91.4352 62.8752 90.9251 61.6652 91.0151C60.4652 91.0951 59.2252 91.7351 58.5852 92.9251H58.5752Z" fill="black"/>
<path d="M71.0361 30.8057C74.2561 31.9257 77.4961 32.9657 80.7761 33.8957C84.0461 34.8557 87.3261 35.7357 90.6361 36.5157C93.9461 37.2757 97.2761 37.9757 100.626 38.5457C103.976 39.0757 107.346 39.4957 110.726 39.6957C117.486 40.1057 124.276 39.3957 130.956 38.1857C134.296 37.5857 137.616 36.8457 140.906 35.9757C144.206 35.1357 147.466 34.1557 150.696 33.0557C144.376 35.6157 137.786 37.5257 131.096 38.9157C124.406 40.2857 117.536 40.9957 110.666 40.6657C103.816 40.1957 97.0661 38.9557 90.4561 37.2457C83.8461 35.5157 77.3361 33.4157 71.0361 30.8157V30.8057Z" fill="white"/>
<g opacity="0.22">
<path d="M141.506 52.8654C141.926 52.3554 142.446 51.9254 143.016 51.5754C143.306 51.4054 143.606 51.2554 143.926 51.1354C144.086 51.0754 144.266 51.0254 144.476 51.0254C144.676 51.0254 144.926 51.1354 145.046 51.3454C145.266 51.7854 145.076 52.1654 144.976 52.4654C144.856 52.7754 144.706 53.0854 144.556 53.3854C144.236 53.9754 143.856 54.5454 143.386 55.0354L143.086 54.6754C143.606 54.3654 144.186 54.1954 144.786 54.1654C144.936 54.1654 145.156 54.1654 145.336 54.3254C145.506 54.4954 145.526 54.6954 145.536 54.8454C145.556 55.1554 145.506 55.4554 145.416 55.7454C145.046 56.8854 143.896 57.7254 142.756 57.6054C143.886 57.5354 144.826 56.6554 145.086 55.6554C145.146 55.4054 145.166 55.1454 145.136 54.8954C145.086 54.6154 145.076 54.5954 144.816 54.6054C144.296 54.6454 143.776 54.8154 143.336 55.0854L141.986 55.9354L143.046 54.7254C143.466 54.2454 143.856 53.7354 144.166 53.1854C144.326 52.9054 144.466 52.6254 144.586 52.3254C144.716 52.0454 144.796 51.7254 144.716 51.5554C144.646 51.3754 144.346 51.3654 144.046 51.4554C143.746 51.5454 143.446 51.6654 143.156 51.8154C142.566 52.0854 142.026 52.4554 141.526 52.8854L141.506 52.8654Z" fill="white"/>
<path d="M122.115 52.2457C121.725 51.3657 121.675 50.3256 122.005 49.3956L122.045 49.2656L122.175 49.3356C123.025 49.7656 123.815 50.3257 124.525 50.9757L124.115 51.1957C124.045 50.7057 124.035 50.1957 124.175 49.6957C124.255 49.4457 124.385 49.1957 124.615 49.0257C124.845 48.8557 125.135 48.7957 125.395 48.8557C125.925 48.9757 126.265 49.3957 126.495 49.8157C126.725 50.2357 126.885 50.6857 127.215 51.0257C126.855 50.7157 126.645 50.2657 126.385 49.8757C126.145 49.4957 125.775 49.1457 125.355 49.0957C124.925 49.0457 124.595 49.3656 124.525 49.7956C124.435 50.2156 124.485 50.6757 124.585 51.1057L124.785 51.9757L124.175 51.3257C123.555 50.6457 122.835 50.0457 122.045 49.5557L122.215 49.4957C121.835 50.3457 121.785 51.3557 122.105 52.2557L122.115 52.2457Z" fill="white"/>
<path d="M112.505 36.9351C112.115 36.0551 112.065 35.0151 112.395 34.0851L112.435 33.9551L112.565 34.0251C113.415 34.4551 114.205 35.0151 114.915 35.6651L114.505 35.8851C114.435 35.3951 114.425 34.8851 114.565 34.3851C114.645 34.1351 114.775 33.8851 115.005 33.7151C115.235 33.5451 115.525 33.4851 115.785 33.5451C116.315 33.6651 116.655 34.0851 116.885 34.5051C117.115 34.9251 117.275 35.3751 117.605 35.7151C117.245 35.4051 117.035 34.9551 116.775 34.5651C116.535 34.1851 116.165 33.8351 115.745 33.7851C115.315 33.7351 114.985 34.0551 114.915 34.4851C114.825 34.9051 114.875 35.3651 114.975 35.7951L115.175 36.6651L114.565 36.0151C113.945 35.3351 113.225 34.7351 112.435 34.2451L112.605 34.1851C112.225 35.0351 112.185 36.0451 112.495 36.9451L112.505 36.9351Z" fill="white"/>
<path d="M78.6753 58.0355C77.6553 57.5655 76.9453 56.4355 76.9453 55.2455V55.0255L77.1753 55.0555C78.2053 55.2055 79.1953 55.5755 80.0853 56.1255L79.7653 56.4655C79.4853 56.0455 79.1653 55.6055 79.0253 55.0655C78.8853 54.5255 78.9553 53.8855 79.4053 53.4655C79.6253 53.2555 79.9153 53.1555 80.2053 53.1455C80.4953 53.1455 80.7653 53.2555 80.9853 53.3955C81.4253 53.6855 81.7653 54.0855 82.0453 54.5055C81.6953 54.1455 81.3153 53.7955 80.8753 53.5955C80.4453 53.3655 79.9453 53.3955 79.6653 53.7155C79.3953 54.0355 79.3253 54.5255 79.4553 54.9455C79.5853 55.3855 79.8653 55.7855 80.1653 56.1855L80.9353 57.2355L79.8453 56.5255C79.0253 55.9955 78.0953 55.6255 77.1253 55.4355L77.3553 55.2555C77.2753 56.2955 77.7953 57.3755 78.6953 58.0255L78.6753 58.0355Z" fill="white"/>
<path d="M94.1357 50.8249C93.8457 49.9949 93.8057 49.0748 93.9757 48.1848L94.0157 47.9648L94.2357 48.0548C95.0757 48.3848 95.7657 49.0548 96.1457 49.8748L95.7257 50.1049C95.4157 49.6249 95.5857 49.0348 95.9257 48.6848C96.2857 48.3048 96.8657 48.2548 97.2857 48.4348C97.7157 48.6048 98.0557 48.9548 98.2157 49.3648C98.3757 49.7748 98.4157 50.2048 98.3557 50.6148C98.3057 50.2048 98.2157 49.8049 98.0057 49.4749C97.8157 49.1349 97.5157 48.8848 97.1657 48.7948C96.8257 48.7048 96.4557 48.7548 96.2457 48.9948C96.0257 49.2348 95.9557 49.6248 96.1257 49.8348L95.7057 50.0648C95.3957 49.3448 94.8057 48.7448 94.0857 48.3948L94.3457 48.2648C94.1157 49.0748 94.0557 49.9448 94.1357 50.8148V50.8249Z" fill="white"/>
<path d="M131.905 36.655C131.125 36.245 130.465 35.615 129.975 34.855L129.855 34.665L130.075 34.575C130.905 34.235 131.875 34.255 132.715 34.595L132.575 35.055C132.015 34.915 131.735 34.375 131.745 33.895C131.745 33.375 132.135 32.935 132.565 32.785C132.995 32.605 133.485 32.635 133.875 32.815C134.265 33.005 134.595 33.285 134.835 33.625C134.515 33.365 134.175 33.135 133.795 33.035C133.425 32.925 133.035 32.945 132.715 33.115C132.405 33.285 132.165 33.575 132.185 33.895C132.185 34.215 132.405 34.545 132.675 34.585L132.535 35.045C131.815 34.735 130.965 34.705 130.215 34.945L130.315 34.675C130.705 35.425 131.255 36.095 131.915 36.665L131.905 36.655Z" fill="white"/>
<path d="M76.2458 40.4557C75.9858 41.1657 76.2458 42.0457 76.8358 42.2957C77.1058 42.4157 77.4458 42.3357 77.6858 42.1357C77.9358 41.9357 78.0458 41.6357 77.9458 41.4057L78.3958 41.3257C78.3458 41.8557 78.7058 42.3957 79.2058 42.6257C79.7158 42.8357 80.3958 42.7057 80.8358 42.2457C80.5458 42.8257 79.7858 43.1557 79.0958 42.9557C78.3958 42.7657 77.9158 42.0457 77.9358 41.3057L77.9658 40.3857L78.3858 41.2157C78.6358 41.7057 78.3358 42.2557 77.9758 42.5057C77.6258 42.7757 77.1058 42.9057 76.6758 42.6657C76.2758 42.4357 76.0458 42.0157 75.9958 41.6157C75.9458 41.2057 76.0358 40.7857 76.2658 40.4757L76.2458 40.4557Z" fill="white"/>
<path d="M71.8755 76.9555C71.0155 76.0855 70.3655 75.0055 69.9655 73.8255L69.8955 73.6155L70.1155 73.5555C70.8655 73.3555 71.6955 73.4155 72.3955 73.7755L72.1055 74.1355C71.8355 73.8055 71.5655 73.4555 71.3455 73.0655C71.1255 72.6755 70.9655 72.2155 70.9955 71.7455C71.0255 71.2555 71.3055 70.8255 71.6855 70.5755C72.0455 70.3155 72.6155 70.2455 72.9355 70.5755C72.5555 70.3455 72.1055 70.4955 71.8255 70.7655C71.5355 71.0255 71.3355 71.4055 71.3555 71.7655C71.3955 72.5455 71.9255 73.2155 72.4755 73.8455L73.2355 74.7055L72.1955 74.2055C71.5955 73.9155 70.8855 73.8155 70.2255 73.9755L70.3755 73.7055C70.7055 74.8455 71.2155 75.9355 71.8855 76.9555H71.8755Z" fill="white"/>
<path d="M92.0157 31.6853C91.9657 32.6553 92.9157 33.4553 93.7357 33.3053C94.1357 33.2253 94.4957 32.9553 94.7057 32.5853C94.9157 32.2153 94.9557 31.7653 94.8057 31.4053L95.2357 31.1953C95.6657 31.9753 96.1557 32.7453 96.9657 33.0053C97.3557 33.1353 97.8057 33.1153 98.1157 32.8453C98.4357 32.5953 98.6557 32.1253 98.4757 31.6953C98.7557 32.0853 98.6057 32.6653 98.2757 33.0153C97.9257 33.3953 97.3457 33.4653 96.8657 33.3553C96.3757 33.2553 95.9457 32.9453 95.6257 32.5853C95.2957 32.2253 95.0557 31.8253 94.8157 31.4353L95.2457 31.2253C95.4657 31.7553 95.3557 32.3553 95.0757 32.8053C94.8057 33.2553 94.3357 33.6353 93.7757 33.6853C92.6557 33.7753 91.7457 32.6553 92.0057 31.6853H92.0157Z" fill="white"/>
<path d="M149.405 67.8851C148.965 67.7151 148.515 67.5751 148.065 67.5651C147.615 67.5251 147.195 67.6951 147.055 68.0551C146.905 68.3951 147.035 68.8351 147.305 69.1351C147.575 69.4451 147.975 69.6551 148.385 69.8851L148.145 70.2851C147.995 70.1451 147.655 70.2851 147.505 70.5351C147.355 70.7651 147.415 71.1151 147.575 71.4151C147.895 72.0351 148.665 72.4351 148.965 73.1651C148.525 72.5351 147.755 72.2951 147.285 71.5951C147.055 71.2751 146.885 70.7651 147.145 70.3251C147.265 70.1251 147.435 69.9551 147.655 69.8551C147.875 69.7451 148.185 69.7451 148.415 69.9051L148.175 70.3051C147.755 70.0951 147.305 69.8451 146.975 69.4351C146.645 69.0251 146.455 68.4251 146.715 67.8951C146.855 67.6451 147.085 67.4451 147.345 67.3651C147.605 67.2851 147.865 67.2851 148.115 67.3251C148.605 67.4251 149.045 67.6251 149.425 67.8951L149.405 67.8851Z" fill="white"/>
</g>
<path d="M111.476 83.8857C112.726 85.7557 113.836 87.7357 114.746 89.8057C115.666 91.8757 116.426 94.0157 117.016 96.2057C117.626 98.3957 118.026 100.636 118.296 102.896C118.546 105.156 118.646 107.426 118.546 109.696L118.526 110.076L118.226 110.246C116.346 111.286 114.296 111.966 112.196 112.276C110.106 112.586 107.966 112.516 105.936 112.056C108.016 112.156 110.066 111.946 112.036 111.456C114.006 110.956 115.876 110.186 117.586 109.146L117.266 109.686C117.246 107.476 117.126 105.266 116.856 103.066C116.616 100.866 116.216 98.6957 115.736 96.5357C115.236 94.3757 114.636 92.2457 113.916 90.1357C113.196 88.0357 112.386 85.9457 111.466 83.8957L111.476 83.8857Z" fill="black"/>
<path d="M90.4453 156.365C93.8553 157.875 97.3853 159.065 100.995 159.855C104.605 160.645 108.285 161.115 111.975 161.125C115.665 161.215 119.355 160.865 122.995 160.175C126.625 159.495 130.195 158.405 133.645 157.005C132.815 157.425 131.975 157.835 131.135 158.235L128.535 159.305L125.865 160.185L123.145 160.905C119.485 161.755 115.715 162.105 111.965 162.085C108.205 161.985 104.455 161.525 100.825 160.565C97.1953 159.605 93.6853 158.225 90.4453 156.355V156.365Z" fill="white"/>
<path d="M112.026 161.206C111.646 158.676 111.556 156.136 111.546 153.606C111.556 151.076 111.646 148.536 112.026 146.006C112.406 148.536 112.496 151.076 112.506 153.606C112.486 156.136 112.406 158.676 112.026 161.206Z" fill="white"/>
<path d="M105.856 160.776C105.676 158.226 105.786 155.716 105.966 153.216C106.176 150.716 106.466 148.216 107.046 145.726C107.226 148.256 107.116 150.776 106.936 153.286C106.726 155.796 106.436 158.306 105.856 160.776Z" fill="white"/>
<path d="M99.4658 159.465C99.5958 157.085 100.016 154.785 100.506 152.505C101.026 150.225 101.606 147.965 102.486 145.745C102.356 148.105 101.936 150.415 101.446 152.705C100.926 154.995 100.336 157.265 99.4658 159.465Z" fill="white"/>
<path d="M116.296 145.875C116.866 148.365 117.216 150.865 117.576 153.355C117.906 155.855 118.236 158.355 118.356 160.905C117.486 158.495 116.976 155.995 116.626 153.485C116.296 150.965 116.116 148.425 116.306 145.865L116.296 145.875Z" fill="white"/>
<path d="M120.546 145.285C121.546 147.715 122.376 150.165 123.256 152.605C124.106 155.055 125.006 157.475 125.766 159.995C124.316 157.795 123.236 155.385 122.346 152.925C121.486 150.455 120.806 147.905 120.546 145.285Z" fill="white"/>
</g>
</svg>
