<svg width="228" height="228" viewBox="0 0 228 228" fill="none" xmlns="http://www.w3.org/2000/svg">
<path d="M113.565 218.265C171.389 218.265 218.265 171.389 218.265 113.565C218.265 55.741 171.389 8.86523 113.565 8.86523C55.741 8.86523 8.86523 55.741 8.86523 113.565C8.86523 171.389 55.741 218.265 113.565 218.265Z" fill="white"/>
<path d="M113.565 226.645C176.018 226.645 226.645 176.018 226.645 113.565C226.645 51.113 176.018 0.485352 113.565 0.485352C51.113 0.485352 0.485352 51.113 0.485352 113.565C0.485352 176.018 51.113 226.645 113.565 226.645Z" stroke="black" stroke-width="0.97" stroke-miterlimit="10"/>
<mask id="mask0_227_300" style="mask-type:luminance" maskUnits="userSpaceOnUse" x="8" y="8" width="211" height="211">
<path d="M113.565 218.265C171.389 218.265 218.265 171.389 218.265 113.565C218.265 55.741 171.389 8.86523 113.565 8.86523C55.741 8.86523 8.86523 55.741 8.86523 113.565C8.86523 171.389 55.741 218.265 113.565 218.265Z" fill="white"/>
</mask>
<g mask="url(#mask0_227_300)">
<path d="M62.4754 97.4652C59.8554 95.4652 56.1454 95.1452 53.0854 96.3852C50.0254 97.6252 47.6554 100.285 46.4754 103.365C45.2954 106.445 45.2454 109.885 46.0154 113.095C40.7954 113.425 36.1654 118.085 35.3854 123.255C34.6154 128.425 37.1754 133.795 41.3154 136.985C39.9454 137.635 38.9154 139.535 38.1854 140.865C35.7854 145.275 35.7454 150.995 38.4754 155.205C41.2054 159.415 46.7454 161.735 51.5654 160.305C50.9554 163.725 53.1754 167.285 56.1054 169.145C59.0354 171.005 62.7954 171.275 66.1454 170.375C68.6854 173.565 72.4254 175.115 76.5054 175.185C80.4354 175.255 84.3754 174.465 87.9754 172.865C95.0054 169.745 100.475 163.645 103.705 156.665C106.935 149.685 108.045 141.865 107.895 134.175C107.695 124.165 104.985 113.515 97.3854 107.005C93.4554 103.635 88.5454 101.645 83.6154 100.065C77.1854 97.9952 69.1254 96.2252 62.4854 97.4652H62.4754Z" fill="black"/>
<path d="M169.505 97.4652C172.125 95.4652 175.835 95.1452 178.895 96.3852C181.955 97.6252 184.325 100.285 185.505 103.365C186.685 106.445 186.735 109.885 185.965 113.095C191.185 113.425 195.815 118.085 196.595 123.255C197.365 128.425 194.805 133.795 190.665 136.985C192.035 137.635 193.065 139.535 193.795 140.865C196.195 145.275 196.235 150.995 193.505 155.205C190.775 159.415 185.235 161.735 180.415 160.305C181.025 163.725 178.805 167.285 175.875 169.145C172.945 171.005 169.185 171.275 165.835 170.375C163.295 173.565 159.555 175.115 155.475 175.185C151.545 175.255 147.605 174.465 144.005 172.865C136.975 169.745 131.505 163.645 128.275 156.665C125.045 149.685 123.935 141.865 124.085 134.175C124.285 124.165 126.995 113.515 134.595 107.005C138.525 103.635 143.435 101.645 148.365 100.065C154.795 97.9952 162.855 96.2252 169.495 97.4652H169.505Z" fill="black"/>
<path d="M112.805 129.196C139.436 129.196 161.025 108.355 161.025 82.6457C161.025 56.9368 139.436 36.0957 112.805 36.0957C86.1738 36.0957 64.585 56.9368 64.585 82.6457C64.585 108.355 86.1738 129.196 112.805 129.196Z" fill="black"/>
<path d="M175.615 175.165C168.295 169.675 152.295 165.455 140.955 160.645C140.785 160.575 140.625 160.495 140.455 160.425C139.365 159.955 138.335 159.475 137.345 158.995C137.605 161.885 137.295 164.825 136.415 167.575C135.645 169.975 134.385 172.305 132.395 173.735C129.185 176.025 124.645 175.425 121.455 173.105C118.255 170.785 115.935 167.225 114.565 163.405C113.585 166.795 111.755 169.965 109.115 172.175C106.475 174.385 103.015 175.575 99.6652 175.095C97.8352 174.835 96.0152 174.035 94.8052 172.575C93.0652 170.465 92.8752 167.405 93.1952 164.635C93.4452 162.425 93.9852 160.265 94.7452 158.195C94.5952 158.275 94.4452 158.365 94.2852 158.445C93.9252 158.635 93.5652 158.815 93.1952 159.005C92.1352 159.525 90.9952 160.035 89.8052 160.545C89.1652 160.815 88.5152 161.095 87.8452 161.365C76.6552 165.885 61.8652 169.955 54.9052 175.165C43.5852 183.655 38.3252 219.645 38.3252 219.645H192.195C192.195 219.645 186.935 183.655 175.615 175.165Z" fill="#580087"/>
<path d="M129.415 153.236C129.115 152.806 128.865 152.366 128.705 151.916C125.265 142.616 126.645 132.096 126.645 132.096L115.265 132.876L103.075 132.096C103.075 132.096 105.265 142.606 101.825 151.916C101.725 152.176 101.605 152.426 101.465 152.686C105.775 155.856 111.135 157.576 116.475 157.436C121.075 157.316 125.615 155.816 129.425 153.246L129.415 153.236Z" fill="#C35F39"/>
<path d="M94.7948 172.585C96.0048 174.045 97.8248 174.845 99.6548 175.105C102.995 175.585 106.465 174.395 109.105 172.185C111.745 169.975 113.575 166.805 114.555 163.415C115.935 167.225 118.255 170.795 121.445 173.115C124.645 175.435 129.175 176.035 132.385 173.745C134.385 172.315 135.635 169.985 136.405 167.585C137.285 164.835 137.595 161.885 137.335 159.005C137.075 158.875 136.795 158.755 136.545 158.625C136.005 158.355 135.495 158.075 134.995 157.795C132.465 156.365 130.505 154.865 129.405 153.255C125.585 155.825 121.055 157.325 116.455 157.445C111.105 157.585 105.745 155.865 101.445 152.695C100.345 154.685 97.9348 156.505 94.7348 158.215C93.9748 160.285 93.4348 162.455 93.1848 164.655C92.8648 167.425 93.0548 170.495 94.7948 172.595V172.585Z" fill="#E6C3FF"/>
<path d="M154.575 92.2261C154.575 114.996 140.095 142.176 113.345 142.176C86.5952 142.176 72.1152 114.996 72.1152 92.2261C72.1152 69.4561 90.5752 50.9961 113.345 50.9961C136.115 50.9961 154.575 69.4561 154.575 92.2261Z" fill="#C35F39"/>
<path d="M76.7055 93.6161C80.9955 86.4661 84.4155 69.1861 82.4855 65.0361C81.8855 63.7561 78.0155 65.3461 76.9255 64.6761C74.9855 63.5061 72.5155 64.2461 70.8655 65.9161C69.2155 67.5961 68.2455 70.0261 67.5655 72.4861C65.5755 79.6761 65.7055 87.4261 66.8355 94.7961C67.3755 98.3161 67.2655 100.966 70.6955 99.3961C73.1255 98.2861 75.2155 96.1161 76.7155 93.6161H76.7055Z" fill="black"/>
<path d="M149.655 94.1757C147.565 90.6757 146.485 86.4657 145.855 82.2457C145.155 77.5757 145.005 72.5157 146.935 68.3657C147.535 67.0857 148.345 65.8957 149.435 65.2357C151.375 64.0657 153.845 64.8057 155.495 66.4757C157.145 68.1557 158.115 70.5857 158.795 73.0457C160.785 80.2357 160.655 87.9857 159.525 95.3557C158.985 98.8757 159.095 101.526 155.665 99.9557C153.235 98.8457 151.145 96.6857 149.645 94.1757H149.655Z" fill="black"/>
<path d="M165.525 99.156C164.975 102.096 163.345 104.816 161.285 106.856C159.885 108.236 158.245 109.356 156.495 109.826C154.745 110.296 152.875 110.086 151.485 109.016C150.215 108.036 149.415 106.426 149.025 104.696C148.135 100.706 149.345 96.066 151.795 92.586C153.495 90.176 155.915 88.206 158.505 87.876C163.735 87.216 166.505 93.956 165.525 99.156Z" fill="#C35F39"/>
<g style="mix-blend-mode:multiply">
<path d="M150.805 105.286C152.055 105.216 153.305 104.766 154.355 104.006C154.675 103.776 155.005 103.446 154.995 103.046C154.995 102.816 154.865 102.616 154.745 102.436C154.035 101.356 153.145 100.406 152.125 99.6562C152.865 97.9862 153.615 96.2962 154.725 94.8662C155.835 93.4362 157.345 92.2762 159.045 92.0462C160.745 91.8062 162.595 92.6762 163.245 94.3462C163.245 94.3462 165.525 99.1562 160.155 104.366C154.495 109.856 150.795 105.286 150.795 105.286H150.805Z" fill="#C35F39"/>
</g>
<path d="M163.245 94.3461C162.605 93.1561 161.365 92.5161 160.165 92.4361C158.955 92.3461 157.805 92.8561 156.845 93.6061C155.885 94.3661 155.115 95.3461 154.465 96.4361C153.825 97.5261 153.265 98.7061 152.715 99.9061L152.515 99.1361C153.175 99.6561 153.775 100.256 154.305 100.896C154.565 101.226 154.805 101.566 155.025 101.916C155.135 102.096 155.245 102.256 155.355 102.516C155.475 102.766 155.505 103.146 155.385 103.436C155.145 104.006 154.695 104.236 154.355 104.446C153.995 104.656 153.605 104.816 153.215 104.956C152.435 105.216 151.615 105.356 150.805 105.286C151.595 105.126 152.335 104.876 153.005 104.496C153.345 104.306 153.655 104.086 153.955 103.856C154.265 103.626 154.515 103.366 154.545 103.166C154.555 103.076 154.545 103.036 154.485 102.926C154.425 102.826 154.305 102.666 154.185 102.506C153.955 102.206 153.705 101.916 153.445 101.646C152.935 101.096 152.365 100.596 151.755 100.166L151.345 99.8761L151.555 99.3961C152.075 98.1761 152.605 96.9261 153.335 95.7561C154.055 94.5761 154.975 93.4561 156.165 92.6561C157.325 91.8561 158.845 91.3561 160.285 91.6761C161.695 91.9661 162.945 93.0161 163.255 94.3461H163.245Z" fill="black"/>
<path d="M60.0251 99.156C60.5751 102.096 62.2051 104.816 64.2651 106.856C65.6651 108.236 67.3051 109.356 69.0551 109.826C70.8051 110.296 72.6751 110.086 74.0651 109.016C75.3351 108.036 76.1351 106.426 76.5251 104.696C77.4151 100.706 76.2051 96.066 73.7551 92.586C72.0551 90.176 69.6351 88.206 67.0451 87.876C61.8151 87.216 59.0451 93.956 60.0251 99.156Z" fill="#C35F39"/>
<g style="mix-blend-mode:multiply">
<path d="M74.745 105.286C73.495 105.216 72.245 104.766 71.195 104.006C70.875 103.776 70.545 103.446 70.555 103.046C70.555 102.816 70.685 102.616 70.805 102.436C71.515 101.356 72.405 100.406 73.425 99.6562C72.685 97.9862 71.935 96.2962 70.825 94.8662C69.715 93.4362 68.205 92.2762 66.505 92.0462C64.805 91.8062 62.955 92.6762 62.305 94.3462C62.305 94.3462 60.025 99.1562 65.395 104.366C71.055 109.856 74.755 105.286 74.755 105.286H74.745Z" fill="#C35F39"/>
</g>
<path d="M62.2949 94.3461C62.6049 93.0261 63.8549 91.9661 65.2649 91.6761C66.7149 91.3561 68.2249 91.8561 69.3849 92.6561C70.5749 93.4561 71.4949 94.5761 72.2149 95.7561C72.9449 96.9361 73.4649 98.1861 73.9949 99.3961L74.2049 99.8761L73.7949 100.166C73.1849 100.596 72.6149 101.096 72.1049 101.646C71.8449 101.916 71.5949 102.206 71.3649 102.506C71.2549 102.656 71.1249 102.816 71.0649 102.926C71.0049 103.036 70.9949 103.076 71.0049 103.166C71.0349 103.356 71.2849 103.626 71.5949 103.856C71.8949 104.086 72.2049 104.306 72.5449 104.496C73.2149 104.876 73.9649 105.136 74.7449 105.286C73.9449 105.356 73.1249 105.216 72.3349 104.956C71.9449 104.816 71.5549 104.666 71.1949 104.446C70.8549 104.236 70.4149 104.006 70.1649 103.436C70.0449 103.146 70.0749 102.766 70.1949 102.516C70.3049 102.256 70.4249 102.096 70.5249 101.916C70.7449 101.566 70.9849 101.226 71.2449 100.896C71.7749 100.246 72.3749 99.6561 73.0349 99.1361L72.8349 99.9061C72.2849 98.7061 71.7249 97.5261 71.0849 96.4361C70.4349 95.3461 69.6649 94.3561 68.7049 93.6061C67.7549 92.8561 66.5949 92.3461 65.3849 92.4361C64.1849 92.5161 62.9449 93.1561 62.3049 94.3461H62.2949Z" fill="black"/>
<path d="M102.536 89.8758C102.536 91.8958 100.896 93.5358 98.8758 93.5358C96.8558 93.5358 95.2158 91.8958 95.2158 89.8758C95.2158 87.8558 96.8558 86.2158 98.8758 86.2158C100.896 86.2158 102.536 87.8558 102.536 89.8758Z" fill="black"/>
<path d="M86.4258 87.6057C87.1158 85.7157 88.2158 83.9657 89.5158 82.3657C90.8458 80.7857 92.4558 79.4057 94.2458 78.2957C94.6958 78.0257 95.1558 77.7557 95.6058 77.4657L97.0158 76.6957C97.5058 76.4757 98.0058 76.2857 98.5258 76.1157C99.0458 75.9857 99.5758 75.8957 100.116 75.8257C102.256 75.6457 104.506 75.9757 106.366 77.2657L106.326 77.6557C104.296 78.5157 102.576 79.0357 100.876 79.6257C100.456 79.7857 100.036 79.9157 99.6058 80.0057C99.1858 80.1357 98.7458 80.2257 98.3058 80.3057L96.9858 80.6057C96.5558 80.7357 96.1258 80.8857 95.6858 81.0357C93.9958 81.7257 92.3758 82.6357 90.8658 83.7557C89.3358 84.8557 87.9858 86.2257 86.7758 87.7757L86.4358 87.5857L86.4258 87.6057Z" fill="black"/>
<path d="M126.735 89.8758C126.735 91.8958 128.375 93.5358 130.395 93.5358C132.415 93.5358 134.055 91.8958 134.055 89.8758C134.055 87.8558 132.415 86.2158 130.395 86.2158C128.375 86.2158 126.735 87.8558 126.735 89.8758Z" fill="black"/>
<path d="M142.505 87.7952C141.295 86.2452 139.955 84.8752 138.415 83.7752C136.905 82.6552 135.275 81.7452 133.595 81.0552C133.165 80.9052 132.735 80.7552 132.295 80.6252L130.975 80.3252C130.535 80.2452 130.095 80.1452 129.675 80.0252C129.245 79.9252 128.825 79.7952 128.405 79.6452C126.705 79.0552 124.985 78.5252 122.955 77.6752L122.915 77.2852C124.775 75.9952 127.025 75.6652 129.165 75.8452C129.695 75.9152 130.235 76.0052 130.755 76.1352C131.265 76.3052 131.765 76.4952 132.255 76.7152L133.665 77.4852C134.115 77.7752 134.575 78.0452 135.025 78.3152C136.815 79.4252 138.425 80.8052 139.755 82.3852C141.065 83.9852 142.165 85.7352 142.845 87.6252L142.505 87.8152V87.7952Z" fill="black"/>
<path d="M102.075 115.216C104.035 117.036 106.175 118.606 108.495 119.776C109.655 120.346 110.845 120.846 112.085 121.116C112.695 121.296 113.325 121.356 113.945 121.456C114.575 121.476 115.205 121.556 115.815 121.456C117.045 121.416 118.265 121.046 119.415 120.546C120.595 120.076 121.675 119.366 122.735 118.626C124.845 117.106 126.735 115.236 128.485 113.226C127.225 115.596 125.515 117.746 123.435 119.516C121.375 121.276 118.795 122.716 115.905 122.906C114.475 123.006 113.065 122.816 111.725 122.426C110.385 122.046 109.105 121.476 107.945 120.746C105.605 119.316 103.595 117.416 102.075 115.206V115.216Z" fill="black"/>
<path d="M93.585 136.365C97.035 138.425 100.705 139.985 104.475 141.105C108.245 142.175 112.155 142.785 116.015 142.635C119.855 142.475 123.625 141.305 127.145 139.605C130.665 137.875 133.985 135.665 137.055 133.075C134.555 136.235 131.375 138.875 127.845 140.935C124.315 142.995 120.275 144.355 116.095 144.565C111.935 144.695 107.835 143.955 103.995 142.535C100.175 141.105 96.565 139.085 93.585 136.365Z" fill="black"/>
<g style="mix-blend-mode:multiply" opacity="0.2">
<path d="M145.066 105.586C145.066 109.236 141.165 112.196 136.355 112.196C131.545 112.196 127.646 109.236 127.646 105.586C127.646 101.936 131.545 98.9756 136.355 98.9756C141.165 98.9756 145.066 101.936 145.066 105.586Z" fill="#C35F39"/>
</g>
<g style="mix-blend-mode:multiply" opacity="0.2">
<path d="M102.825 105.586C102.825 109.236 98.9253 112.196 94.1153 112.196C89.3053 112.196 85.4053 109.236 85.4053 105.586C85.4053 101.936 89.3053 98.9756 94.1153 98.9756C98.9253 98.9756 102.825 101.936 102.825 105.586Z" fill="#C35F39"/>
</g>
<g style="mix-blend-mode:multiply" opacity="0.44">
<path d="M122.585 120.176C122.585 122.826 119.225 125.946 115.085 125.946C110.945 125.946 107.585 122.826 107.585 120.176C107.585 117.526 110.945 116.346 115.085 116.346C119.225 116.346 122.585 117.526 122.585 120.176Z" fill="#C35F39"/>
</g>
<path d="M80.3355 77.0352C83.1955 73.3952 83.8255 68.1352 81.9055 63.9152C84.2955 67.0852 86.8755 69.5052 90.4955 71.1252C91.3855 71.5252 92.5755 71.8052 93.2055 71.0652C93.7155 70.4652 93.5155 69.5451 93.2455 68.8051C92.3455 66.3151 91.0255 63.9851 89.3655 61.9251C93.4155 67.2251 99.9255 69.9551 106.225 72.1451C109.075 73.1351 112.106 74.0752 115.056 73.4752C115.666 73.3552 116.355 73.0752 116.535 72.4752C116.705 71.9052 116.345 71.3251 115.975 70.8651C114.345 68.7651 112.385 66.9251 110.195 65.4351C112.285 67.5151 115.006 68.8351 117.736 69.9251C128.546 74.2051 140.576 75.3352 151.986 73.1252C150.346 68.4952 146.855 64.6951 143.355 61.2451C139.695 57.6351 135.666 54.3251 131.046 52.0851C125.146 49.2151 118.446 48.1751 111.896 48.5151C105.336 48.8551 98.9055 50.5251 92.7655 52.8351C88.6455 54.3851 84.5955 56.2451 81.1655 58.9951C77.7255 61.7351 74.9255 65.4451 73.8955 69.7151" fill="black"/>
<path d="M96.9353 41.7456C96.5953 37.9256 96.7352 33.8457 98.7552 30.5957C99.4452 29.4957 100.375 28.4856 101.595 28.0456C101.895 27.9356 102.255 27.8756 102.515 28.0456C102.785 28.2356 102.855 28.6056 102.885 28.9356C103.055 31.0856 102.545 33.2857 101.435 35.1357C102.055 33.5557 103.755 32.4757 105.455 32.5757C105.745 32.5957 106.045 32.6457 106.275 32.8257C106.725 33.1757 106.725 33.8356 106.635 34.3956C106.125 37.5856 103.675 40.3756 100.575 41.2956" fill="black"/>
<path d="M114.976 87.4053C115.236 88.7353 115.426 90.0653 115.626 91.4053L115.896 93.4053C115.996 94.0653 116.036 94.7653 116.166 95.3453C116.416 96.4753 117.316 97.2853 118.376 98.1153C119.436 98.9253 120.526 100.045 121.196 101.315C121.886 102.595 122.296 104.025 122.326 105.485C122.356 106.935 121.996 108.435 121.196 109.665C120.426 110.905 119.266 111.845 117.996 112.445C116.706 113.015 115.236 113.185 113.926 112.815C116.646 112.935 119.066 111.275 120.226 109.095C121.376 106.915 121.136 104.165 119.926 102.015C119.346 100.895 118.526 100.035 117.496 99.1653C116.996 98.7153 116.456 98.2453 115.996 97.6553C115.526 97.0753 115.166 96.3153 115.066 95.5553C114.966 94.8053 114.976 94.1553 114.956 93.4753L114.926 91.4553C114.926 90.1053 114.926 88.7553 114.986 87.4053H114.976Z" fill="black"/>
<path d="M67.8151 108.166C60.8951 109.706 55.5051 116.426 55.4951 123.516C55.4951 130.606 60.8651 137.336 67.7751 138.896C74.6851 140.456 82.4351 136.686 85.4751 130.276" stroke="#E6C3FF" stroke-miterlimit="10"/>
<path d="M158.846 108.166C165.766 109.706 171.156 116.426 171.166 123.516C171.166 130.606 165.796 137.336 158.886 138.896C151.976 140.456 144.226 136.686 141.186 130.276" stroke="#E6C3FF" stroke-miterlimit="10"/>
<g opacity="0.21">
<path d="M91.2949 48.2754C92.0849 50.7354 93.1049 53.1354 94.4949 55.2954C95.9049 57.4354 97.7249 59.3354 99.9649 60.5254L100.815 60.9354L101.705 61.2654C102.285 61.4554 102.915 61.5654 103.415 61.3954C103.925 61.2354 104.155 60.7454 104.205 60.1454C104.255 59.5454 104.245 58.8954 104.185 58.2754C103.975 55.7654 102.965 53.3454 101.395 51.4054L102.065 50.9054C103.945 53.5654 106.225 55.9354 108.835 57.8654C111.435 59.8154 114.345 61.3554 117.405 62.4254C118.925 62.9954 120.515 63.3754 122.105 63.6954C122.905 63.8254 123.705 63.9654 124.515 64.0354C124.915 64.0754 125.335 64.1354 125.685 64.1254C126.045 64.1254 126.405 64.0454 126.615 63.8954C126.805 63.7454 126.875 63.5654 126.805 63.2654C126.735 62.9754 126.515 62.6154 126.325 62.2554C125.925 61.5554 125.495 60.8754 125.015 60.2154C124.065 58.9154 122.955 57.7254 121.715 56.6754L122.295 56.0954C123.865 57.9654 125.765 59.5654 127.865 60.8354C129.965 62.1154 132.245 63.1054 134.595 63.8754C139.305 65.4354 144.255 66.1854 149.195 66.8254C146.715 66.6254 144.225 66.3754 141.765 65.9854C139.295 65.5954 136.835 65.1154 134.445 64.3754C132.045 63.6454 129.705 62.6954 127.515 61.4254C125.335 60.1554 123.315 58.5654 121.665 56.6254L122.245 56.0454C123.535 57.1254 124.705 58.3554 125.705 59.7054C126.205 60.3854 126.665 61.0854 127.085 61.8154C127.285 62.1854 127.515 62.5254 127.665 63.0354C127.735 63.2854 127.755 63.5854 127.665 63.8854C127.585 64.1754 127.375 64.4454 127.145 64.6054C126.175 65.2254 125.225 64.9854 124.425 64.9354C123.585 64.8754 122.765 64.7354 121.935 64.6054C120.295 64.2854 118.655 63.9054 117.085 63.3354C115.505 62.7754 113.965 62.1054 112.505 61.2954C111.025 60.5154 109.625 59.5954 108.295 58.5854C105.625 56.5754 103.285 54.1154 101.375 51.3754L102.045 50.8754C103.725 52.9554 104.725 55.5654 104.895 58.2154C104.945 58.8854 104.935 59.5354 104.865 60.2154C104.825 60.5554 104.735 60.9254 104.535 61.2654C104.335 61.6054 103.985 61.8654 103.615 61.9854C102.865 62.2054 102.155 62.0254 101.525 61.8154L100.605 61.4454L99.7149 60.9954C97.3849 59.7054 95.5849 57.6754 94.2349 55.4554C92.8949 53.2154 91.9449 50.7754 91.2949 48.2754Z" fill="white"/>
<path d="M107.255 42.7158C108.915 44.4058 110.765 45.9058 112.815 47.0558C114.845 48.2358 117.035 49.1358 119.305 49.6858C120.435 49.9558 121.585 50.1658 122.745 50.2758C123.325 50.3858 123.895 50.3058 123.885 50.1258C123.985 49.9458 123.675 49.2758 123.435 48.7958C122.415 46.7558 120.745 45.0558 118.755 43.9758L119.295 43.1858C121.005 44.6458 122.835 45.9558 124.765 47.1158C126.685 48.2858 128.715 49.2758 130.785 50.1558C134.945 51.8858 139.375 52.9958 143.905 53.4458C139.355 53.3858 134.805 52.4558 130.515 50.8358C128.365 50.0458 126.295 49.0258 124.315 47.8658C122.335 46.7058 120.445 45.3858 118.675 43.9158L119.215 43.1258C121.385 44.3158 123.155 46.1858 124.235 48.4058C124.375 48.6858 124.495 48.9658 124.605 49.2558C124.715 49.5558 124.865 49.9458 124.695 50.4358C124.515 50.9358 123.975 51.1458 123.635 51.1658C123.265 51.2058 122.945 51.1558 122.655 51.1158C121.455 50.9958 120.265 50.7458 119.115 50.4158C116.795 49.7658 114.585 48.7558 112.565 47.4758C110.565 46.1658 108.745 44.5758 107.255 42.7258V42.7158Z" fill="white"/>
<path d="M57.2951 106.866C55.2951 107.676 53.5051 108.936 52.0951 110.516C50.6651 112.076 49.5951 113.966 49.0451 115.976C48.4951 117.996 48.4051 120.136 48.8051 122.186C49.1951 124.236 50.0851 126.186 51.3351 127.836L52.0051 128.716L50.9251 128.606C50.2151 128.536 49.4751 129.166 48.8951 129.876C48.2851 130.596 47.7551 131.386 47.3151 132.226C46.4351 133.896 45.9551 135.786 46.0051 137.666C46.0451 139.556 46.8151 141.386 48.0951 142.806C49.3451 144.236 51.1851 145.216 53.1551 145.266C51.1751 145.426 49.1951 144.526 47.7751 143.116C46.3451 141.706 45.4251 139.736 45.2951 137.706C45.1251 135.666 45.6351 133.616 46.5551 131.826C47.0151 130.926 47.5651 130.076 48.2051 129.286C48.5251 128.886 48.8851 128.496 49.3451 128.176C49.7951 127.856 50.3851 127.596 51.0251 127.656L50.6051 128.426C49.2251 126.666 48.3451 124.546 47.9551 122.356C47.5751 120.176 47.6551 117.886 48.3351 115.766C49.0151 113.646 50.2151 111.736 51.7651 110.186C53.3351 108.656 55.2351 107.476 57.3151 106.876L57.2951 106.866Z" fill="white"/>
<path d="M62.3049 146.156C62.7049 148.216 63.7149 150.096 65.1249 151.566C66.5349 153.036 68.3249 154.156 70.2749 154.636C72.1649 155.106 74.4849 155.276 75.5549 153.636C76.6949 152.076 76.5649 149.966 76.3349 147.916L77.2249 147.766C77.4949 149.026 78.6149 149.966 79.8749 150.486C81.1449 151.016 82.5749 151.226 83.9949 151.246C85.4249 151.266 86.8449 151.046 88.2349 150.656C89.6249 150.266 90.9449 149.646 92.1749 148.866C91.0449 149.786 89.7449 150.516 88.3549 151.026C86.9749 151.566 85.4949 151.816 84.0049 151.886C82.5249 151.926 80.9849 151.836 79.5549 151.246C78.8449 150.956 78.1549 150.576 77.5749 150.026C76.9849 149.486 76.5349 148.756 76.3349 147.956L77.2249 147.806C77.3449 148.846 77.4749 149.916 77.4049 151.016C77.3349 152.116 76.9849 153.256 76.2849 154.176C75.9349 154.636 75.4849 155.036 74.9649 155.326C74.4349 155.606 73.8549 155.746 73.2949 155.786C72.1749 155.866 71.0949 155.696 70.0449 155.416C67.9449 154.816 66.1249 153.516 64.7249 151.906C63.3449 150.276 62.4549 148.236 62.2949 146.146L62.3049 146.156Z" fill="white"/>
<path d="M139.305 145.376C140.205 147.526 141.485 149.516 143.185 151.066C144.845 152.646 146.925 153.746 149.145 154.166C151.355 154.586 153.695 154.376 155.655 153.306C157.615 152.266 159.195 150.486 159.845 148.386L160.115 147.506L160.675 148.236C161.495 149.296 162.475 150.246 163.595 150.966C164.715 151.676 165.995 152.146 167.295 152.136C169.935 152.116 172.615 150.856 174.245 148.706L174.415 148.486L174.635 148.646C176.965 150.296 180.545 149.926 182.635 147.766C181.695 148.936 180.275 149.696 178.775 149.966C177.275 150.236 175.635 149.996 174.315 149.116L174.705 149.046C173.045 151.396 170.245 152.956 167.305 152.986C165.805 153.006 164.355 152.496 163.125 151.736C161.885 150.966 160.825 149.956 159.925 148.826L160.755 148.676C160.035 151.066 158.225 152.986 156.065 154.106C153.895 155.236 151.315 155.486 148.975 154.926C146.625 154.386 144.475 153.126 142.825 151.426C141.185 149.706 139.985 147.616 139.285 145.386L139.305 145.376Z" fill="white"/>
<path d="M170.165 107.666C171.965 107.556 173.795 108.076 175.355 109.036C176.905 110.016 178.216 111.436 178.996 113.146C179.746 114.876 179.916 116.816 179.586 118.656C179.266 120.506 178.406 122.266 177.066 123.606L176.826 122.836C178.266 123.126 179.496 124.066 180.306 125.206C181.146 126.346 181.595 127.716 181.725 129.096C181.845 130.496 181.506 131.906 180.796 133.076C180.086 134.246 179.046 135.216 177.796 135.706C178.956 135.046 179.876 134.036 180.436 132.876C180.996 131.716 181.256 130.416 181.066 129.166C180.876 127.906 180.366 126.706 179.626 125.706C178.886 124.706 177.825 123.956 176.635 123.736L175.816 123.586L176.396 122.966C177.556 121.736 178.326 120.146 178.676 118.486C179.006 116.816 178.875 115.036 178.225 113.466C176.975 110.276 173.726 107.916 170.146 107.666H170.165Z" fill="white"/>
</g>
</g>
</svg>
